<?xml version="1.0" encoding="UTF-8" standalone="no"?>
<!DOCTYPE svg PUBLIC "-//W3C//DTD SVG 1.1//EN" "http://www.w3.org/Graphics/SVG/1.1/DTD/svg11.dtd">
<!-- Generated by graphviz version 2.40.1 (20161225.0304)
 -->
<!-- Title: G Pages: 1 -->
<svg width="1316pt" height="779pt" viewBox="14.40 14.40 1301.18 764.96" xmlns="http://www.w3.org/2000/svg" xmlns:xlink="http://www.w3.org/1999/xlink">
<g id="graph0" class="graph" transform="scale(1 1) rotate(0) translate(18.4 760.9555)">
<title>G</title>
<polygon fill="#ffffff" stroke="transparent" points="-4,4 -4,-746.5555 1282.7803,-746.5555 1282.7803,4 -4,4"/>
<text text-anchor="middle" x="639.3901" y="-702.5555" font-family="Times,serif" font-size="40.00" fill="#000000">ctrl_sys/ori</text>
<!-- 6 -->
<g id="node1" class="node">
<title>6</title>
<polygon fill="none" stroke="#000000" points="1003.4667,-534.5555 916.1394,-534.5555 916.1394,-490.5555 1003.4667,-490.5555 1003.4667,-534.5555"/>
<text text-anchor="middle" x="959.8031" y="-521.5555" font-family="Times,serif" font-size="10.00" fill="#000000">Mux3</text>
<text text-anchor="middle" x="959.8031" y="-509.5555" font-family="Times,serif" font-size="10.00" fill="#000000">Mux_mrft_output</text>
<text text-anchor="middle" x="959.8031" y="-497.5555" font-family="Times,serif" font-size="10.00" fill="#000000">Syn:8, Asyn: 5</text>
</g>
<!-- 10 -->
<g id="node2" class="node">
<title>10</title>
<polygon fill="none" stroke="#000000" points="1278.7678,-528.5555 1175.8177,-528.5555 1175.8177,-534.5555 1157.8177,-512.5555 1175.8177,-490.5555 1175.8177,-496.5555 1278.7678,-496.5555 1278.7678,-528.5555"/>
<text text-anchor="middle" x="1218.2928" y="-521.5555" font-family="Times,serif" font-size="10.00" fill="#000000">ROSUnit_Publisher</text>
<text text-anchor="middle" x="1218.2928" y="-509.5555" font-family="Times,serif" font-size="10.00" fill="#000000">ROS_Publisher_angle_err</text>
<text text-anchor="middle" x="1218.2928" y="-497.5555" font-family="Times,serif" font-size="10.00" fill="#000000">Syn:9, Asyn: 1</text>
</g>
<!-- 6&#45;&gt;10 -->
<g id="edge1" class="edge">
<title>6-&gt;10</title>
<path fill="none" stroke="#000000" d="M1003.6523,-512.5555C1044.1803,-512.5555 1104.9858,-512.5555 1151.5425,-512.5555"/>
<polygon fill="#000000" stroke="#000000" points="1157.7241,-512.5555 1151.7242,-515.2556 1154.7241,-512.5556 1151.7241,-512.5556 1151.7241,-512.5556 1151.7241,-512.5556 1154.7241,-512.5556 1151.7241,-509.8556 1157.7241,-512.5555 1157.7241,-512.5555"/>
<text text-anchor="middle" x="1080.7199" y="-515.2555" font-family="Times,serif" font-size="9.00" fill="#000000">OUTPUT-&gt;INPUT[Vector3D&lt;float&gt;]</text>
</g>
<!-- 9 -->
<g id="node3" class="node">
<title>9</title>
<polygon fill="none" stroke="#000000" points="378.3496,-667.5555 238.7871,-667.5555 238.7871,-623.5555 378.3496,-623.5555 378.3496,-667.5555"/>
<text text-anchor="middle" x="308.5684" y="-654.5555" font-family="Times,serif" font-size="10.00" fill="#000000">Constant</text>
<text text-anchor="middle" x="308.5684" y="-642.5555" font-family="Times,serif" font-size="10.00" fill="#000000">const_zero_ref_rate_roll_pitch</text>
<text text-anchor="middle" x="308.5684" y="-630.5555" font-family="Times,serif" font-size="10.00" fill="#000000">Syn:0, Asyn: 2</text>
</g>
<!-- 7 -->
<g id="node4" class="node">
<title>7</title>
<polygon fill="none" stroke="#000000" points="597.7607,-438.5555 510.4832,-438.5555 510.4832,-394.5555 597.7607,-394.5555 597.7607,-438.5555"/>
<text text-anchor="middle" x="554.122" y="-425.5555" font-family="Times,serif" font-size="10.00" fill="#000000">Sum</text>
<text text-anchor="middle" x="554.122" y="-413.5555" font-family="Times,serif" font-size="10.00" fill="#000000">sum_err_rate_roll</text>
<text text-anchor="middle" x="554.122" y="-401.5555" font-family="Times,serif" font-size="10.00" fill="#000000">Syn:4, Asyn: 4</text>
</g>
<!-- 9&#45;&gt;7 -->
<g id="edge2" class="edge">
<title>9-&gt;7</title>
<path fill="none" stroke="#000000" d="M314.6355,-623.4829C324.5957,-590.9563 347.2948,-529.99 386.2089,-492.7555 419.3618,-461.0335 468.0277,-440.9462 504.4427,-429.4095"/>
<polygon fill="#000000" stroke="#000000" points="510.1777,-427.6308 505.2468,-431.987 507.3123,-428.5195 504.447,-429.4082 504.447,-429.4082 504.447,-429.4082 507.3123,-428.5195 503.6471,-426.8294 510.1777,-427.6308 510.1777,-427.6308"/>
<text text-anchor="middle" x="442.7284" y="-496.2555" font-family="Times,serif" font-size="9.00" fill="#000000">OUTPUT-&gt;OPERAND1[float]</text>
</g>
<!-- 8 -->
<g id="node9" class="node">
<title>8</title>
<polygon fill="none" stroke="#000000" points="600.8703,-686.5555 507.3736,-686.5555 507.3736,-642.5555 600.8703,-642.5555 600.8703,-686.5555"/>
<text text-anchor="middle" x="554.122" y="-673.5555" font-family="Times,serif" font-size="10.00" fill="#000000">Sum</text>
<text text-anchor="middle" x="554.122" y="-661.5555" font-family="Times,serif" font-size="10.00" fill="#000000">sum_err_rate_pitch</text>
<text text-anchor="middle" x="554.122" y="-649.5555" font-family="Times,serif" font-size="10.00" fill="#000000">Syn:3, Asyn: 3</text>
</g>
<!-- 9&#45;&gt;8 -->
<g id="edge8" class="edge">
<title>9-&gt;8</title>
<path fill="none" stroke="#000000" d="M378.2773,-650.9494C417.2817,-653.9674 465.1343,-657.67 501.0679,-660.4504"/>
<polygon fill="#000000" stroke="#000000" points="507.1806,-660.9234 500.9902,-663.1524 504.1896,-660.6919 501.1985,-660.4604 501.1985,-660.4604 501.1985,-660.4604 504.1896,-660.6919 501.4068,-657.7685 507.1806,-660.9234 507.1806,-660.9234"/>
<text text-anchor="middle" x="442.7284" y="-662.2555" font-family="Times,serif" font-size="9.00" fill="#000000">OUTPUT-&gt;OPERAND1[float]</text>
</g>
<!-- 0 -->
<g id="node6" class="node">
<title>0</title>
<polygon fill="none" stroke="#000000" points="813.3535,-355.5555 727.5994,-355.5555 723.5994,-351.5555 723.5994,-311.5555 809.3535,-311.5555 813.3535,-315.5555 813.3535,-355.5555"/>
<polyline fill="none" stroke="#000000" points="809.3535,-351.5555 723.5994,-351.5555 "/>
<polyline fill="none" stroke="#000000" points="809.3535,-351.5555 809.3535,-311.5555 "/>
<polyline fill="none" stroke="#000000" points="809.3535,-351.5555 813.3535,-355.5555 "/>
<text text-anchor="middle" x="768.4765" y="-342.5555" font-family="Times,serif" font-size="10.00" fill="#000000">AttitudeController</text>
<text text-anchor="middle" x="768.4765" y="-330.5555" font-family="Times,serif" font-size="10.00" fill="#000000">roll</text>
<text text-anchor="middle" x="768.4765" y="-318.5555" font-family="Times,serif" font-size="10.00" fill="#000000">Syn:7, Asyn: 11</text>
</g>
<!-- 7&#45;&gt;0 -->
<g id="edge4" class="edge">
<title>7-&gt;0</title>
<path fill="none" stroke="#000000" d="M598.017,-399.559C632.7802,-386.0983 681.3818,-367.2794 717.7977,-353.1788"/>
<polygon fill="#000000" stroke="#000000" points="723.5336,-350.9578 718.9133,-355.6422 720.736,-352.0411 717.9384,-353.1244 717.9384,-353.1244 717.9384,-353.1244 720.736,-352.0411 716.9634,-350.6066 723.5336,-350.9578 723.5336,-350.9578"/>
<text text-anchor="middle" x="662.267" y="-397.2555" font-family="Times,serif" font-size="9.00" fill="#000000">OUTPUT-&gt;ERR_DOT[float]</text>
</g>
<!-- 3 -->
<g id="node5" class="node">
<title>3</title>
<polygon fill="none" stroke="#000000" points="353.4295,-405.5555 263.7072,-405.5555 263.7072,-361.5555 353.4295,-361.5555 353.4295,-405.5555"/>
<text text-anchor="middle" x="308.5684" y="-392.5555" font-family="Times,serif" font-size="10.00" fill="#000000">Demux3</text>
<text text-anchor="middle" x="308.5684" y="-380.5555" font-family="Times,serif" font-size="10.00" fill="#000000">demux_angle_rate</text>
<text text-anchor="middle" x="308.5684" y="-368.5555" font-family="Times,serif" font-size="10.00" fill="#000000">Syn:2, Asyn: 8</text>
</g>
<!-- 3&#45;&gt;7 -->
<g id="edge3" class="edge">
<title>3-&gt;7</title>
<path fill="none" stroke="#000000" d="M353.6163,-369.5466C393.2396,-359.6491 451.8281,-350.9983 499.248,-368.7555 511.0281,-373.1668 521.9453,-381.3769 530.8889,-389.7637"/>
<polygon fill="#000000" stroke="#000000" points="535.6475,-394.4182 529.4702,-392.1529 533.5029,-392.3205 531.3582,-390.2227 531.3582,-390.2227 531.3582,-390.2227 533.5029,-392.3205 533.2462,-388.2925 535.6475,-394.4182 535.6475,-394.4182"/>
<text text-anchor="middle" x="442.7284" y="-372.2555" font-family="Times,serif" font-size="9.00" fill="#000000">X-&gt;OPERAND2[float]</text>
</g>
<!-- 3&#45;&gt;8 -->
<g id="edge9" class="edge">
<title>3-&gt;8</title>
<path fill="none" stroke="#000000" d="M320.5221,-405.8117C334.6189,-431.1491 359.5304,-473.2117 386.2089,-505.5555 409.2081,-533.4388 482.9233,-600.7581 524.633,-638.2435"/>
<polygon fill="#000000" stroke="#000000" points="529.3081,-642.4406 523.0396,-640.4415 527.0757,-640.4365 524.8434,-638.4323 524.8434,-638.4323 524.8434,-638.4323 527.0757,-640.4365 526.6471,-636.4232 529.3081,-642.4406 529.3081,-642.4406"/>
<text text-anchor="middle" x="442.7284" y="-614.2555" font-family="Times,serif" font-size="9.00" fill="#000000">Y-&gt;OPERAND2[float]</text>
</g>
<!-- 2 -->
<g id="node11" class="node">
<title>2</title>
<polygon fill="none" stroke="#000000" points="806.4565,-148.5555 734.4964,-148.5555 730.4964,-144.5555 730.4964,-104.5555 802.4565,-104.5555 806.4565,-108.5555 806.4565,-148.5555"/>
<polyline fill="none" stroke="#000000" points="802.4565,-144.5555 730.4964,-144.5555 "/>
<polyline fill="none" stroke="#000000" points="802.4565,-144.5555 802.4565,-104.5555 "/>
<polyline fill="none" stroke="#000000" points="802.4565,-144.5555 806.4565,-148.5555 "/>
<text text-anchor="middle" x="768.4765" y="-135.5555" font-family="Times,serif" font-size="10.00" fill="#000000">YawController</text>
<text text-anchor="middle" x="768.4765" y="-123.5555" font-family="Times,serif" font-size="10.00" fill="#000000">yaw</text>
<text text-anchor="middle" x="768.4765" y="-111.5555" font-family="Times,serif" font-size="10.00" fill="#000000">Syn:5, Asyn: 9</text>
</g>
<!-- 3&#45;&gt;2 -->
<g id="edge14" class="edge">
<title>3-&gt;2</title>
<path fill="none" stroke="#000000" d="M336.5849,-361.3312C351.7271,-347.5897 369.1372,-328.5897 378.2089,-307.5555 387.9149,-285.0504 370.9101,-216.7033 386.2089,-197.5555 467.2095,-96.176 642.1235,-107.0191 724.2258,-118.7086"/>
<polygon fill="#000000" stroke="#000000" points="730.4503,-119.622 724.1219,-121.4222 727.4821,-119.1864 724.5139,-118.7508 724.5139,-118.7508 724.5139,-118.7508 727.4821,-119.1864 724.9059,-116.0794 730.4503,-119.622 730.4503,-119.622"/>
<text text-anchor="middle" x="554.122" y="-127.2555" font-family="Times,serif" font-size="9.00" fill="#000000">Z-&gt;OPERAND2[float]</text>
</g>
<!-- 0&#45;&gt;6 -->
<g id="edge7" class="edge">
<title>0-&gt;6</title>
<path fill="none" stroke="#000000" d="M784.0232,-355.6896C794.0142,-369.2594 807.6591,-386.6377 821.415,-400.5555 853.5584,-433.0775 894.7674,-465.4148 923.8292,-486.9197"/>
<polygon fill="#000000" stroke="#000000" points="928.7469,-490.5411 922.3145,-489.1574 926.3312,-488.7622 923.9156,-486.9833 923.9156,-486.9833 923.9156,-486.9833 926.3312,-488.7622 925.5166,-484.8091 928.7469,-490.5411 928.7469,-490.5411"/>
<text text-anchor="middle" x="864.6933" y="-475.2555" font-family="Times,serif" font-size="9.00" fill="#000000">MRFT_CMD-&gt;X[float]</text>
</g>
<!-- 5 -->
<g id="node8" class="node">
<title>5</title>
<polygon fill="none" stroke="#000000" points="1000.0285,-162.5555 919.5776,-162.5555 919.5776,-118.5555 1000.0285,-118.5555 1000.0285,-162.5555"/>
<text text-anchor="middle" x="959.8031" y="-149.5555" font-family="Times,serif" font-size="10.00" fill="#000000">Mux3</text>
<text text-anchor="middle" x="959.8031" y="-137.5555" font-family="Times,serif" font-size="10.00" fill="#000000">Mux_Angle_u</text>
<text text-anchor="middle" x="959.8031" y="-125.5555" font-family="Times,serif" font-size="10.00" fill="#000000">Syn:10, Asyn: 6</text>
</g>
<!-- 0&#45;&gt;5 -->
<g id="edge6" class="edge">
<title>0-&gt;5</title>
<path fill="none" stroke="#000000" d="M777.6952,-311.2455C787.9648,-285.4959 804.3162,-241.6646 813.415,-202.5555 816.6028,-188.8532 810.8573,-149.0536 821.415,-139.7555 846.0097,-118.0951 883.685,-119.7448 913.5183,-126.0133"/>
<polygon fill="#000000" stroke="#000000" points="919.3743,-127.323 912.9296,-128.6482 916.4466,-126.6682 913.5189,-126.0133 913.5189,-126.0133 913.5189,-126.0133 916.4466,-126.6682 914.1083,-123.3784 919.3743,-127.323 919.3743,-127.323"/>
<text text-anchor="middle" x="864.6933" y="-143.2555" font-family="Times,serif" font-size="9.00" fill="#000000">OUTPUT-&gt;X[float]</text>
</g>
<!-- 4 -->
<g id="node7" class="node">
<title>4</title>
<polygon fill="none" stroke="#000000" points="597.7637,-269.5555 510.4802,-269.5555 510.4802,-225.5555 597.7637,-225.5555 597.7637,-269.5555"/>
<text text-anchor="middle" x="554.122" y="-256.5555" font-family="Times,serif" font-size="10.00" fill="#000000">Demux3</text>
<text text-anchor="middle" x="554.122" y="-244.5555" font-family="Times,serif" font-size="10.00" fill="#000000">Demux_AngleErr</text>
<text text-anchor="middle" x="554.122" y="-232.5555" font-family="Times,serif" font-size="10.00" fill="#000000">Syn:1, Asyn: 7</text>
</g>
<!-- 4&#45;&gt;0 -->
<g id="edge5" class="edge">
<title>4-&gt;0</title>
<path fill="none" stroke="#000000" d="M598.017,-265.1665C632.7802,-279.1136 681.3818,-298.6128 717.7977,-313.223"/>
<polygon fill="#000000" stroke="#000000" points="723.5336,-315.5243 716.9596,-315.7959 720.7493,-314.4072 717.965,-313.2901 717.965,-313.2901 717.965,-313.2901 720.7493,-314.4072 718.9704,-310.7842 723.5336,-315.5243 723.5336,-315.5243"/>
<text text-anchor="middle" x="662.267" y="-313.2555" font-family="Times,serif" font-size="9.00" fill="#000000">X-&gt;ERROR[float]</text>
</g>
<!-- 1 -->
<g id="node10" class="node">
<title>1</title>
<polygon fill="none" stroke="#000000" points="813.3535,-589.5555 727.5994,-589.5555 723.5994,-585.5555 723.5994,-545.5555 809.3535,-545.5555 813.3535,-549.5555 813.3535,-589.5555"/>
<polyline fill="none" stroke="#000000" points="809.3535,-585.5555 723.5994,-585.5555 "/>
<polyline fill="none" stroke="#000000" points="809.3535,-585.5555 809.3535,-545.5555 "/>
<polyline fill="none" stroke="#000000" points="809.3535,-585.5555 813.3535,-589.5555 "/>
<text text-anchor="middle" x="768.4765" y="-576.5555" font-family="Times,serif" font-size="10.00" fill="#000000">AttitudeController</text>
<text text-anchor="middle" x="768.4765" y="-564.5555" font-family="Times,serif" font-size="10.00" fill="#000000">pitch</text>
<text text-anchor="middle" x="768.4765" y="-552.5555" font-family="Times,serif" font-size="10.00" fill="#000000">Syn:6, Asyn: 10</text>
</g>
<!-- 4&#45;&gt;1 -->
<g id="edge11" class="edge">
<title>4-&gt;1</title>
<path fill="none" stroke="#000000" d="M568.4013,-269.8808C579.3124,-288.1312 593.6825,-315.0029 600.996,-340.5555 611.8023,-378.3119 591.1301,-393.5822 608.996,-428.5555 634.3966,-478.2787 685.8698,-517.9645 723.4921,-541.9995"/>
<polygon fill="#000000" stroke="#000000" points="728.9377,-545.4314 722.422,-544.5165 726.3996,-543.8318 723.8616,-542.2323 723.8616,-542.2323 723.8616,-542.2323 726.3996,-543.8318 725.3012,-539.9481 728.9377,-545.4314 728.9377,-545.4314"/>
<text text-anchor="middle" x="662.267" y="-537.2555" font-family="Times,serif" font-size="9.00" fill="#000000">Y-&gt;ERROR[float]</text>
</g>
<!-- 4&#45;&gt;2 -->
<g id="edge15" class="edge">
<title>4-&gt;2</title>
<path fill="none" stroke="#000000" d="M593.4379,-225.3623C630.647,-204.3583 686.394,-172.8899 724.9328,-151.1353"/>
<polygon fill="#000000" stroke="#000000" points="730.4898,-147.9985 726.592,-153.2992 727.8773,-149.4732 725.2648,-150.948 725.2648,-150.948 725.2648,-150.948 727.8773,-149.4732 723.9375,-148.5967 730.4898,-147.9985 730.4898,-147.9985"/>
<text text-anchor="middle" x="662.267" y="-218.2555" font-family="Times,serif" font-size="9.00" fill="#000000">Z-&gt;ERROR[float]</text>
</g>
<!-- 11 -->
<g id="node12" class="node">
<title>11</title>
<polygon fill="none" stroke="#000000" points="1266.2908,-233.5555 1188.2948,-233.5555 1188.2948,-239.5555 1170.2948,-217.5555 1188.2948,-195.5555 1188.2948,-201.5555 1266.2908,-201.5555 1266.2908,-233.5555"/>
<text text-anchor="middle" x="1218.2928" y="-226.5555" font-family="Times,serif" font-size="10.00" fill="#000000">ROSUnit_Publisher</text>
<text text-anchor="middle" x="1218.2928" y="-214.5555" font-family="Times,serif" font-size="10.00" fill="#000000">angle_u_pub</text>
<text text-anchor="middle" x="1218.2928" y="-202.5555" font-family="Times,serif" font-size="10.00" fill="#000000">Syn:11, Asyn: 0</text>
</g>
<!-- 5&#45;&gt;11 -->
<g id="edge18" class="edge">
<title>5-&gt;11</title>
<path fill="none" stroke="#000000" d="M1000.1921,-152.5868C1044.4006,-165.7558 1115.492,-186.9328 1164.4244,-201.509"/>
<polygon fill="#000000" stroke="#000000" points="1170.2786,-203.2529 1163.7575,-204.1275 1167.4035,-202.3964 1164.5283,-201.5399 1164.5283,-201.5399 1164.5283,-201.5399 1167.4035,-202.3964 1165.2992,-198.9523 1170.2786,-203.2529 1170.2786,-203.2529"/>
<text text-anchor="middle" x="1080.7199" y="-200.2555" font-family="Times,serif" font-size="9.00" fill="#000000">OUTPUT-&gt;INPUT[Vector3D&lt;float&gt;]</text>
</g>
<!-- 14 -->
<g id="node15" class="node">
<title>14</title>
<ellipse fill="#00ff00" stroke="#000000" cx="1218.2928" cy="-64.5555" rx="60.248" ry="22.7556"/>
<text text-anchor="middle" x="1218.2928" y="-67.5555" font-family="Times,serif" font-size="10.00" fill="#000000">Vector3D&lt;float&gt;</text>
<text text-anchor="middle" x="1218.2928" y="-55.5555" font-family="Times,serif" font-size="10.00" fill="#000000">OUTPUT</text>
</g>
<!-- 5&#45;&gt;14 -->
<g id="edge21" class="edge">
<title>5-&gt;14</title>
<path fill="none" stroke="#000000" d="M969.9165,-118.282C978.521,-102.2253 992.5332,-81.6996 1011.6346,-71.7555 1056.7976,-48.244 1115.3495,-48.5742 1158.5925,-53.5452"/>
<polygon fill="#000000" stroke="#000000" points="1164.5897,-54.2754 1158.3073,-56.2303 1161.6117,-53.9128 1158.6337,-53.5501 1158.6337,-53.5501 1158.6337,-53.5501 1161.6117,-53.9128 1158.9601,-50.8699 1164.5897,-54.2754 1164.5897,-54.2754"/>
<text text-anchor="middle" x="1080.7199" y="-75.2555" font-family="Times,serif" font-size="9.00" fill="#000000">-&gt;OUTPUT[Vector3D&lt;float&gt;]</text>
</g>
<!-- 8&#45;&gt;1 -->
<g id="edge10" class="edge">
<title>8-&gt;1</title>
<path fill="none" stroke="#000000" d="M600.8981,-643.3883C635.3927,-627.7788 682.2813,-606.5607 717.6891,-590.5379"/>
<polygon fill="#000000" stroke="#000000" points="723.2696,-588.0126 718.9164,-592.9462 720.5364,-589.2495 717.8032,-590.4863 717.8032,-590.4863 717.8032,-590.4863 720.5364,-589.2495 716.6901,-588.0265 723.2696,-588.0126 723.2696,-588.0126"/>
<text text-anchor="middle" x="662.267" y="-640.2555" font-family="Times,serif" font-size="9.00" fill="#000000">OUTPUT-&gt;ERR_DOT[float]</text>
</g>
<!-- 1&#45;&gt;6 -->
<g id="edge13" class="edge">
<title>1-&gt;6</title>
<path fill="none" stroke="#000000" d="M813.8182,-554.5213C842.8254,-546.1827 880.4619,-535.3635 910.2547,-526.799"/>
<polygon fill="#000000" stroke="#000000" points="916.1037,-525.1176 911.0833,-529.3703 913.2205,-525.9465 910.3373,-526.7754 910.3373,-526.7754 910.3373,-526.7754 913.2205,-525.9465 909.5913,-524.1805 916.1037,-525.1176 916.1037,-525.1176"/>
<text text-anchor="middle" x="864.6933" y="-553.2555" font-family="Times,serif" font-size="9.00" fill="#000000">MRFT_CMD-&gt;Y[float]</text>
</g>
<!-- 1&#45;&gt;5 -->
<g id="edge12" class="edge">
<title>1-&gt;5</title>
<path fill="none" stroke="#000000" d="M776.47,-545.4128C786.9922,-515.1745 805.1232,-459.0584 813.415,-409.5555 818.7754,-377.5526 807.327,-292.9865 821.415,-263.7555 841.7636,-221.5342 883.7789,-187.4645 916.2054,-165.9445"/>
<polygon fill="#000000" stroke="#000000" points="921.3226,-162.5991 917.778,-168.1423 918.8115,-164.2407 916.3005,-165.8823 916.3005,-165.8823 916.3005,-165.8823 918.8115,-164.2407 914.8231,-163.6224 921.3226,-162.5991 921.3226,-162.5991"/>
<text text-anchor="middle" x="864.6933" y="-267.2555" font-family="Times,serif" font-size="9.00" fill="#000000">OUTPUT-&gt;Y[float]</text>
</g>
<!-- 2&#45;&gt;6 -->
<g id="edge17" class="edge">
<title>2-&gt;6</title>
<path fill="none" stroke="#000000" d="M775.8606,-148.7231C788.8718,-187.5886 815.1055,-265.0157 821.415,-276.5555 851.4604,-331.5077 876.4437,-333.6403 907.9716,-387.7555 926.3403,-419.2841 941.5209,-458.5676 950.6072,-484.5456"/>
<polygon fill="#000000" stroke="#000000" points="952.6735,-490.526 948.162,-485.7367 951.6937,-487.6905 950.714,-484.855 950.714,-484.855 950.714,-484.855 951.6937,-487.6905 953.266,-483.9732 952.6735,-490.526 952.6735,-490.526"/>
<text text-anchor="middle" x="864.6933" y="-391.2555" font-family="Times,serif" font-size="9.00" fill="#000000">MRFT_CMD-&gt;Z[float]</text>
</g>
<!-- 2&#45;&gt;5 -->
<g id="edge16" class="edge">
<title>2-&gt;5</title>
<path fill="none" stroke="#000000" d="M771.9103,-104.4522C777.3165,-78.1039 790.5772,-35.1985 821.415,-15.7555 853.9565,4.7617 875.9752,5.602 907.9716,-15.7555 940.0342,-37.1573 952.2911,-82.4992 956.958,-112.2326"/>
<polygon fill="#000000" stroke="#000000" points="957.8431,-118.3263 954.3086,-112.7767 957.4118,-115.3574 956.9806,-112.3886 956.9806,-112.3886 956.9806,-112.3886 957.4118,-115.3574 959.6526,-112.0005 957.8431,-118.3263 957.8431,-118.3263"/>
<text text-anchor="middle" x="864.6933" y="-19.2555" font-family="Times,serif" font-size="9.00" fill="#000000">COM-&gt;Z[float]</text>
</g>
<!-- 12 -->
<g id="node13" class="node">
<title>12</title>
<ellipse fill="#ff0000" stroke="#000000" cx="308.5684" cy="-230.5555" rx="60.248" ry="22.7556"/>
<text text-anchor="middle" x="308.5684" y="-233.5555" font-family="Times,serif" font-size="10.00" fill="#000000">Vector3D&lt;float&gt;</text>
<text text-anchor="middle" x="308.5684" y="-221.5555" font-family="Times,serif" font-size="10.00" fill="#000000">INPUT</text>
</g>
<!-- 12&#45;&gt;4 -->
<g id="edge19" class="edge">
<title>12-&gt;4</title>
<path fill="none" stroke="#000000" d="M367.3565,-225.4629C405.2427,-223.3708 455.4325,-222.8268 499.248,-229.7555 500.9637,-230.0269 502.6988,-230.3431 504.4428,-230.697"/>
<polygon fill="#000000" stroke="#000000" points="510.3914,-232.0343 503.9452,-233.3524 507.4644,-231.3762 504.5375,-230.7182 504.5375,-230.7182 504.5375,-230.7182 507.4644,-231.3762 505.1297,-228.0839 510.3914,-232.0343 510.3914,-232.0343"/>
<text text-anchor="middle" x="442.7284" y="-233.2555" font-family="Times,serif" font-size="9.00" fill="#000000">INPUT-&gt;[Vector3D&lt;float&gt;]</text>
</g>
<!-- 13 -->
<g id="node14" class="node">
<title>13</title>
<ellipse fill="#ff0000" stroke="#000000" cx="60.1239" cy="-383.5555" rx="60.248" ry="22.7556"/>
<text text-anchor="middle" x="60.1239" y="-386.5555" font-family="Times,serif" font-size="10.00" fill="#000000">Vector3D&lt;float&gt;</text>
<text text-anchor="middle" x="60.1239" y="-374.5555" font-family="Times,serif" font-size="10.00" fill="#000000">INPUT</text>
</g>
<!-- 13&#45;&gt;3 -->
<g id="edge20" class="edge">
<title>13-&gt;3</title>
<path fill="none" stroke="#000000" d="M120.2654,-383.5555C162.1145,-383.5555 217.3254,-383.5555 257.1314,-383.5555"/>
<polygon fill="#000000" stroke="#000000" points="263.3833,-383.5555 257.3834,-386.2556 260.3833,-383.5556 257.3833,-383.5556 257.3833,-383.5556 257.3833,-383.5556 260.3833,-383.5556 257.3833,-380.8556 263.3833,-383.5555 263.3833,-383.5555"/>
<text text-anchor="middle" x="179.5878" y="-386.2555" font-family="Times,serif" font-size="9.00" fill="#000000">INPUT-&gt;[Vector3D&lt;float&gt;]</text>
</g>
</g>
</svg>