<?xml version="1.0" encoding="UTF-8" standalone="no"?>
<!DOCTYPE svg PUBLIC "-//W3C//DTD SVG 1.1//EN" "http://www.w3.org/Graphics/SVG/1.1/DTD/svg11.dtd">
<!-- Generated by graphviz version 2.40.1 (20161225.0304)
 -->
<!-- Title: G Pages: 1 -->
<svg width="1702pt" height="1404pt" viewBox="14.40 14.40 1687.75 1389.39" xmlns="http://www.w3.org/2000/svg" xmlns:xlink="http://www.w3.org/1999/xlink">
<g id="graph0" class="graph" transform="scale(1 1) rotate(0) translate(18.4 1385.3871)">
<title>G</title>
<polygon fill="#ffffff" stroke="transparent" points="-4,4 -4,-1370.9871 1669.3523,-1370.9871 1669.3523,4 -4,4"/>
<text text-anchor="middle" x="832.6762" y="-1326.9871" font-family="Times,serif" font-size="40.00" fill="#000000">/KU_TriCopter_vtol_manual_control_01</text>
<!-- 0 -->
<g id="node1" class="node">
<title>0</title>
<polygon fill="none" stroke="#000000" points="132.1448,-672.9871 10.0572,-672.9871 6.0572,-668.9871 6.0572,-628.9871 128.1448,-628.9871 132.1448,-632.9871 132.1448,-672.9871"/>
<polyline fill="none" stroke="#000000" points="128.1448,-668.9871 6.0572,-668.9871 "/>
<polyline fill="none" stroke="#000000" points="128.1448,-668.9871 128.1448,-628.9871 "/>
<polyline fill="none" stroke="#000000" points="128.1448,-668.9871 132.1448,-672.9871 "/>
<text text-anchor="middle" x="69.101" y="-659.9871" font-family="Times,serif" font-size="10.00" fill="#000000">PX4RCtoOrientationThrust</text>
<text text-anchor="middle" x="69.101" y="-647.9871" font-family="Times,serif" font-size="10.00" fill="#000000">PX4RCtoOrientationThrust</text>
<text text-anchor="middle" x="69.101" y="-635.9871" font-family="Times,serif" font-size="10.00" fill="#000000">Syn:4, Asyn: 12</text>
</g>
<!-- 4 -->
<g id="node2" class="node">
<title>4</title>
<polygon fill="none" stroke="#000000" points="497.1071,-223.9871 372.7649,-223.9871 368.7649,-219.9871 368.7649,-179.9871 493.1071,-179.9871 497.1071,-183.9871 497.1071,-223.9871"/>
<polyline fill="none" stroke="#000000" points="493.1071,-219.9871 368.7649,-219.9871 "/>
<polyline fill="none" stroke="#000000" points="493.1071,-219.9871 493.1071,-179.9871 "/>
<polyline fill="none" stroke="#000000" points="493.1071,-219.9871 497.1071,-223.9871 "/>
<text text-anchor="middle" x="432.936" y="-210.9871" font-family="Times,serif" font-size="10.00" fill="#000000">OrientationErrorCalculator</text>
<text text-anchor="middle" x="432.936" y="-198.9871" font-family="Times,serif" font-size="10.00" fill="#000000">orientation_error_calculator</text>
<text text-anchor="middle" x="432.936" y="-186.9871" font-family="Times,serif" font-size="10.00" fill="#000000">Syn:8, Asyn: 8</text>
</g>
<!-- 0&#45;&gt;4 -->
<g id="edge1" class="edge">
<title>0-&gt;4</title>
<path fill="none" stroke="#000000" d="M71.8915,-628.5827C80.3799,-563.5722 107.6823,-376.5641 146.202,-330.1871 201.1592,-264.0197 297.2532,-230.7199 362.9243,-214.9052"/>
<polygon fill="#000000" stroke="#000000" points="368.7852,-213.5206 363.5667,-217.5278 365.8656,-214.2104 362.9459,-214.9001 362.9459,-214.9001 362.9459,-214.9001 365.8656,-214.2104 362.3252,-212.2725 368.7852,-213.5206 368.7852,-213.5206"/>
<text text-anchor="middle" x="248.5298" y="-333.6871" font-family="Times,serif" font-size="9.00" fill="#000000">OUTPUT-&gt;OPERAND1[Vector3D&lt;float&gt;]</text>
</g>
<!-- 5 -->
<g id="node3" class="node">
<title>5</title>
<polygon fill="none" stroke="#000000" points="507.0931,-375.9871 362.7789,-375.9871 358.7789,-371.9871 358.7789,-331.9871 503.0931,-331.9871 507.0931,-335.9871 507.0931,-375.9871"/>
<polyline fill="none" stroke="#000000" points="503.0931,-371.9871 358.7789,-371.9871 "/>
<polyline fill="none" stroke="#000000" points="503.0931,-371.9871 503.0931,-331.9871 "/>
<polyline fill="none" stroke="#000000" points="503.0931,-371.9871 507.0931,-375.9871 "/>
<text text-anchor="middle" x="432.936" y="-362.9871" font-family="Times,serif" font-size="10.00" fill="#000000">OrientationErrorCalculator</text>
<text text-anchor="middle" x="432.936" y="-350.9871" font-family="Times,serif" font-size="10.00" fill="#000000">orientation_error_rate_calculator</text>
<text text-anchor="middle" x="432.936" y="-338.9871" font-family="Times,serif" font-size="10.00" fill="#000000">Syn:7, Asyn: 7</text>
</g>
<!-- 0&#45;&gt;5 -->
<g id="edge2" class="edge">
<title>0-&gt;5</title>
<path fill="none" stroke="#000000" d="M72.2239,-628.73C78.8498,-589.5971 97.8797,-508.171 146.202,-461.1871 202.4939,-406.4542 289.3061,-379.1919 352.666,-365.9219"/>
<polygon fill="#000000" stroke="#000000" points="358.7225,-364.6809 353.3866,-368.5304 355.7836,-365.2832 352.8447,-365.8854 352.8447,-365.8854 352.8447,-365.8854 355.7836,-365.2832 352.3027,-363.2403 358.7225,-364.6809 358.7225,-364.6809"/>
<text text-anchor="middle" x="248.5298" y="-464.6871" font-family="Times,serif" font-size="9.00" fill="#000000">OUTPUT-&gt;OPERAND1[Vector3D&lt;float&gt;]</text>
</g>
<!-- 7 -->
<g id="node4" class="node">
<title>7</title>
<polygon fill="none" stroke="#000000" points="480.904,-548.9871 388.968,-548.9871 384.968,-544.9871 384.968,-504.9871 476.904,-504.9871 480.904,-508.9871 480.904,-548.9871"/>
<polyline fill="none" stroke="#000000" points="476.904,-544.9871 384.968,-544.9871 "/>
<polyline fill="none" stroke="#000000" points="476.904,-544.9871 476.904,-504.9871 "/>
<polyline fill="none" stroke="#000000" points="476.904,-544.9871 480.904,-548.9871 "/>
<text text-anchor="middle" x="432.936" y="-535.9871" font-family="Times,serif" font-size="10.00" fill="#000000">VTOLFeedForward</text>
<text text-anchor="middle" x="432.936" y="-523.9871" font-family="Times,serif" font-size="10.00" fill="#000000">vtol_ff</text>
<text text-anchor="middle" x="432.936" y="-511.9871" font-family="Times,serif" font-size="10.00" fill="#000000">Syn:6, Asyn: 5</text>
</g>
<!-- 0&#45;&gt;7 -->
<g id="edge3" class="edge">
<title>0-&gt;7</title>
<path fill="none" stroke="#000000" d="M75.3486,-628.9404C85.0454,-599.3971 106.8315,-548.142 146.202,-526.1871 218.4998,-485.8703 317.8568,-498.2679 378.6143,-511.9081"/>
<polygon fill="#000000" stroke="#000000" points="384.735,-513.3157 378.2824,-514.6022 381.8113,-512.6433 378.8876,-511.9709 378.8876,-511.9709 378.8876,-511.9709 381.8113,-512.6433 379.4928,-509.3396 384.735,-513.3157 384.735,-513.3157"/>
<text text-anchor="middle" x="248.5298" y="-529.6871" font-family="Times,serif" font-size="9.00" fill="#000000">OUTPUT-&gt;INPUT[Vector3D&lt;float&gt;]</text>
</g>
<!-- 0&#45;&gt;7 -->
<g id="edge4" class="edge">
<title>0-&gt;7</title>
<path fill="none" stroke="#000000" d="M132.4762,-629.388C202.2401,-605.6115 313.2007,-567.7945 378.9686,-545.3799"/>
<polygon fill="#000000" stroke="#000000" points="384.7976,-543.3933 379.9894,-547.8846 381.958,-544.3612 379.1183,-545.329 379.1183,-545.329 379.1183,-545.329 381.958,-544.3612 378.2473,-542.7733 384.7976,-543.3933 384.7976,-543.3933"/>
<text text-anchor="middle" x="248.5298" y="-626.6871" font-family="Times,serif" font-size="9.00" fill="#000000">OUTPUT-&gt;INPUT[Vector3D&lt;float&gt;]</text>
</g>
<!-- 6 -->
<g id="node9" class="node">
<title>6</title>
<polygon fill="none" stroke="#000000" points="1665.227,-743.9871 1510.7286,-743.9871 1506.7286,-739.9871 1506.7286,-699.9871 1661.227,-699.9871 1665.227,-703.9871 1665.227,-743.9871"/>
<polyline fill="none" stroke="#000000" points="1661.227,-739.9871 1506.7286,-739.9871 "/>
<polyline fill="none" stroke="#000000" points="1661.227,-739.9871 1661.227,-699.9871 "/>
<polyline fill="none" stroke="#000000" points="1661.227,-739.9871 1665.227,-743.9871 "/>
<text text-anchor="middle" x="1585.9778" y="-730.9871" font-family="Times,serif" font-size="10.00" fill="#000000">ActuatVTOLPX4MAVLinkSystem</text>
<text text-anchor="middle" x="1585.9778" y="-718.9871" font-family="Times,serif" font-size="10.00" fill="#000000">actu_sys</text>
<text text-anchor="middle" x="1585.9778" y="-706.9871" font-family="Times,serif" font-size="10.00" fill="#000000">Syn:12, Asyn: 6</text>
</g>
<!-- 0&#45;&gt;6 -->
<g id="edge13" class="edge">
<title>0-&gt;6</title>
<path fill="none" stroke="#000000" d="M75.1575,-673.0042C85.0887,-705.4656 107.6808,-766.3758 146.202,-803.9871 247.1209,-902.5222 291.8906,-939.9871 432.936,-939.9871 432.936,-939.9871 432.936,-939.9871 1260.0735,-939.9871 1396.1361,-939.9871 1518.4068,-807.0889 1565.4755,-748.8223"/>
<polygon fill="#000000" stroke="#000000" points="1569.2655,-744.0898 1567.6224,-750.4609 1567.3902,-746.4315 1565.5149,-748.7731 1565.5149,-748.7731 1565.5149,-748.7731 1567.3902,-746.4315 1563.4074,-747.0853 1569.2655,-744.0898 1569.2655,-744.0898"/>
<text text-anchor="middle" x="851.1657" y="-942.6871" font-family="Times,serif" font-size="9.00" fill="#000000">OUTPUT-&gt;INPUT[float]</text>
</g>
<!-- 0&#45;&gt;6 -->
<g id="edge14" class="edge">
<title>0-&gt;6</title>
<path fill="none" stroke="#000000" d="M132.4506,-671.0482C204.4716,-692.0437 325.942,-721.9871 432.936,-721.9871 432.936,-721.9871 432.936,-721.9871 1260.0735,-721.9871 1341.607,-721.9871 1434.6143,-721.9871 1500.3442,-721.9871"/>
<polygon fill="#000000" stroke="#000000" points="1506.6187,-721.9871 1500.6187,-724.6872 1503.6187,-721.9872 1500.6187,-721.9872 1500.6187,-721.9872 1500.6187,-721.9872 1503.6187,-721.9872 1500.6186,-719.2872 1506.6187,-721.9871 1506.6187,-721.9871"/>
<text text-anchor="middle" x="851.1657" y="-724.6871" font-family="Times,serif" font-size="9.00" fill="#000000">OUTPUT-&gt;FORWARD_CMD[float]</text>
</g>
<!-- 9 -->
<g id="node10" class="node">
<title>9</title>
<polygon fill="none" stroke="#000000" points="484.6122,-1146.9871 381.2598,-1146.9871 381.2598,-1102.9871 484.6122,-1102.9871 484.6122,-1146.9871"/>
<text text-anchor="middle" x="432.936" y="-1133.9871" font-family="Times,serif" font-size="10.00" fill="#000000">CompareGreaterThan</text>
<text text-anchor="middle" x="432.936" y="-1121.9871" font-family="Times,serif" font-size="10.00" fill="#000000">check_vtol_mode</text>
<text text-anchor="middle" x="432.936" y="-1109.9871" font-family="Times,serif" font-size="10.00" fill="#000000">Syn:5, Asyn: 3</text>
</g>
<!-- 0&#45;&gt;9 -->
<g id="edge15" class="edge">
<title>0-&gt;9</title>
<path fill="none" stroke="#000000" d="M71.0988,-673.2831C77.8318,-743.8464 101.796,-960.7064 146.202,-1012.9871 204.2691,-1081.3515 309.4425,-1108.2154 374.997,-1118.6105"/>
<polygon fill="#000000" stroke="#000000" points="381.2144,-1119.5659 374.8739,-1121.3232 378.2492,-1119.1102 375.284,-1118.6545 375.284,-1118.6545 375.284,-1118.6545 378.2492,-1119.1102 375.6941,-1115.9858 381.2144,-1119.5659 381.2144,-1119.5659"/>
<text text-anchor="middle" x="248.5298" y="-1114.6871" font-family="Times,serif" font-size="9.00" fill="#000000">OUTPUT-&gt;INPUT[float]</text>
</g>
<!-- 3 -->
<g id="node6" class="node">
<title>3</title>
<polygon fill="none" stroke="#000000" points="763.6533,-340.9871 665.3621,-340.9871 661.3621,-336.9871 661.3621,-296.9871 759.6533,-296.9871 763.6533,-300.9871 763.6533,-340.9871"/>
<polyline fill="none" stroke="#000000" points="759.6533,-336.9871 661.3621,-336.9871 "/>
<polyline fill="none" stroke="#000000" points="759.6533,-336.9871 759.6533,-296.9871 "/>
<polyline fill="none" stroke="#000000" points="759.6533,-336.9871 763.6533,-340.9871 "/>
<text text-anchor="middle" x="712.5077" y="-327.9871" font-family="Times,serif" font-size="10.00" fill="#000000">OrientationController</text>
<text text-anchor="middle" x="712.5077" y="-315.9871" font-family="Times,serif" font-size="10.00" fill="#000000">ctrl_sys/ori</text>
<text text-anchor="middle" x="712.5077" y="-303.9871" font-family="Times,serif" font-size="10.00" fill="#000000">Syn:9, Asyn: 9</text>
</g>
<!-- 4&#45;&gt;3 -->
<g id="edge7" class="edge">
<title>4-&gt;3</title>
<path fill="none" stroke="#000000" d="M492.8904,-224.0791C537.5189,-240.9197 599.7045,-265.224 653.1852,-289.1871 656.7892,-290.802 660.4913,-292.5184 664.2005,-294.2803"/>
<polygon fill="#000000" stroke="#000000" points="669.6296,-296.8878 663.0521,-296.724 666.9253,-295.5889 664.221,-294.2901 664.221,-294.2901 664.221,-294.2901 666.9253,-295.5889 665.3899,-291.8563 669.6296,-296.8878 669.6296,-296.8878"/>
<text text-anchor="middle" x="584.0999" y="-292.6871" font-family="Times,serif" font-size="9.00" fill="#000000">OUTPUT-&gt;INPUT[Vector3D&lt;float&gt;]</text>
</g>
<!-- 5&#45;&gt;3 -->
<g id="edge8" class="edge">
<title>5-&gt;3</title>
<path fill="none" stroke="#000000" d="M507.1221,-344.6996C553.3772,-338.9089 612.0258,-331.5666 654.7986,-326.2118"/>
<polygon fill="#000000" stroke="#000000" points="660.9907,-325.4366 655.3727,-328.8611 658.014,-325.8093 655.0372,-326.182 655.0372,-326.182 655.0372,-326.182 658.014,-325.8093 654.7018,-323.5029 660.9907,-325.4366 660.9907,-325.4366"/>
<text text-anchor="middle" x="584.0999" y="-346.6871" font-family="Times,serif" font-size="9.00" fill="#000000">OUTPUT-&gt;INPUT[Vector3D&lt;float&gt;]</text>
</g>
<!-- 8 -->
<g id="node7" class="node">
<title>8</title>
<polygon fill="none" stroke="#000000" points="1300.299,-525.9871 1219.848,-525.9871 1219.848,-481.9871 1300.299,-481.9871 1300.299,-525.9871"/>
<text text-anchor="middle" x="1260.0735" y="-512.9871" font-family="Times,serif" font-size="10.00" fill="#000000">Sum3</text>
<text text-anchor="middle" x="1260.0735" y="-500.9871" font-family="Times,serif" font-size="10.00" fill="#000000">add_ff_with_fb</text>
<text text-anchor="middle" x="1260.0735" y="-488.9871" font-family="Times,serif" font-size="10.00" fill="#000000">Syn:11, Asyn: 4</text>
</g>
<!-- 7&#45;&gt;8 -->
<g id="edge9" class="edge">
<title>7-&gt;8</title>
<path fill="none" stroke="#000000" d="M480.9816,-525.6511C627.5782,-521.5747 1067.9692,-509.3289 1213.1097,-505.293"/>
<polygon fill="#000000" stroke="#000000" points="1219.3851,-505.1185 1213.4625,-507.9843 1216.3862,-505.202 1213.3874,-505.2854 1213.3874,-505.2854 1213.3874,-505.2854 1216.3862,-505.202 1213.3123,-502.5864 1219.3851,-505.1185 1219.3851,-505.1185"/>
<text text-anchor="middle" x="851.1657" y="-520.6871" font-family="Times,serif" font-size="9.00" fill="#000000">OUTPUT-&gt;OPERAND1[Vector3D&lt;float&gt;]</text>
</g>
<!-- 1 -->
<g id="node5" class="node">
<title>1</title>
<polygon fill="none" stroke="#000000" points="132.679,-114.9871 9.523,-114.9871 5.523,-110.9871 5.523,-70.9871 128.679,-70.9871 132.679,-74.9871 132.679,-114.9871"/>
<polyline fill="none" stroke="#000000" points="128.679,-110.9871 5.523,-110.9871 "/>
<polyline fill="none" stroke="#000000" points="128.679,-110.9871 128.679,-70.9871 "/>
<polyline fill="none" stroke="#000000" points="128.679,-110.9871 132.679,-114.9871 "/>
<text text-anchor="middle" x="69.101" y="-101.9871" font-family="Times,serif" font-size="10.00" fill="#000000">PX4StateEstimatorRefactor</text>
<text text-anchor="middle" x="69.101" y="-89.9871" font-family="Times,serif" font-size="10.00" fill="#000000">PX4_state_est_sys</text>
<text text-anchor="middle" x="69.101" y="-77.9871" font-family="Times,serif" font-size="10.00" fill="#000000">Syn:3, Asyn: 11</text>
</g>
<!-- 1&#45;&gt;4 -->
<g id="edge5" class="edge">
<title>1-&gt;4</title>
<path fill="none" stroke="#000000" d="M88.2196,-70.9794C102.5064,-56.3099 123.4303,-38.2875 146.202,-30.1871 231.8994,.2975 273.9164,18.3249 350.8575,-30.1871 401.0213,-61.8158 421.1858,-133.4865 428.7617,-173.5441"/>
<polygon fill="#000000" stroke="#000000" points="429.8721,-179.6907 426.1483,-174.2663 429.3387,-176.7385 428.8053,-173.7862 428.8053,-173.7862 428.8053,-173.7862 429.3387,-176.7385 431.4623,-173.3062 429.8721,-179.6907 429.8721,-179.6907"/>
<text text-anchor="middle" x="248.5298" y="-33.6871" font-family="Times,serif" font-size="9.00" fill="#000000">ROT_MAT-&gt;OPERAND2[Vector3D&lt;float&gt;]</text>
</g>
<!-- 1&#45;&gt;5 -->
<g id="edge6" class="edge">
<title>1-&gt;5</title>
<path fill="none" stroke="#000000" d="M132.8639,-86.8551C198.2617,-84.471 297.7099,-92.4437 350.8575,-154.1871 368.8426,-175.0811 347.6523,-252.7985 358.8575,-277.9871 367.4768,-297.3629 383.3192,-314.6782 398.1476,-327.8694"/>
<polygon fill="#000000" stroke="#000000" points="402.7078,-331.8285 396.407,-329.9338 400.4425,-329.8617 398.1771,-327.8949 398.1771,-327.8949 398.1771,-327.8949 400.4425,-329.8617 399.9472,-325.8561 402.7078,-331.8285 402.7078,-331.8285"/>
<text text-anchor="middle" x="248.5298" y="-157.6871" font-family="Times,serif" font-size="9.00" fill="#000000">OUTPUT_ANG_VEL-&gt;OPERAND2[Vector3D&lt;float&gt;]</text>
</g>
<!-- 10 -->
<g id="node8" class="node">
<title>10</title>
<polygon fill="none" stroke="#000000" points="1044.8106,-340.9871 938.7306,-340.9871 938.7306,-296.9871 1044.8106,-296.9871 1044.8106,-340.9871"/>
<text text-anchor="middle" x="991.7706" y="-327.9871" font-family="Times,serif" font-size="10.00" fill="#000000">Saturation3</text>
<text text-anchor="middle" x="991.7706" y="-315.9871" font-family="Times,serif" font-size="10.00" fill="#000000">yaw_fb_angle_u_limit</text>
<text text-anchor="middle" x="991.7706" y="-303.9871" font-family="Times,serif" font-size="10.00" fill="#000000">Syn:10, Asyn: 2</text>
</g>
<!-- 3&#45;&gt;10 -->
<g id="edge10" class="edge">
<title>3-&gt;10</title>
<path fill="none" stroke="#000000" d="M763.7288,-318.9871C811.392,-318.9871 882.4031,-318.9871 932.4963,-318.9871"/>
<polygon fill="#000000" stroke="#000000" points="938.4985,-318.9871 932.4986,-321.6872 935.4985,-318.9872 932.4985,-318.9872 932.4985,-318.9872 932.4985,-318.9872 935.4985,-318.9872 932.4985,-316.2872 938.4985,-318.9871 938.4985,-318.9871"/>
<text text-anchor="middle" x="851.1657" y="-321.6871" font-family="Times,serif" font-size="9.00" fill="#000000">OUTPUT-&gt;INPUT[Vector3D&lt;float&gt;]</text>
</g>
<!-- 8&#45;&gt;6 -->
<g id="edge12" class="edge">
<title>8-&gt;6</title>
<path fill="none" stroke="#000000" d="M1300.4348,-520.2337C1349.8782,-541.2086 1434.9085,-580.8235 1498.6033,-629.1871 1523.8928,-648.3895 1548.2839,-675.2221 1564.8378,-695.0977"/>
<polygon fill="#000000" stroke="#000000" points="1568.6645,-699.7363 1562.7635,-696.8262 1566.7554,-697.4221 1564.8463,-695.108 1564.8463,-695.108 1564.8463,-695.108 1566.7554,-697.4221 1566.929,-693.3898 1568.6645,-699.7363 1568.6645,-699.7363"/>
<text text-anchor="middle" x="1403.5197" y="-631.6871" font-family="Times,serif" font-size="9.00" fill="#000000">OUTPUT-&gt;BODY_RATE_CMD[Vector3D&lt;float&gt;]</text>
</g>
<!-- 10&#45;&gt;8 -->
<g id="edge11" class="edge">
<title>10-&gt;8</title>
<path fill="none" stroke="#000000" d="M1044.9378,-330.3071C1093.3568,-342.947 1164.326,-367.601 1211.711,-411.1871 1230.8179,-428.7622 1243.6627,-455.6305 1251.2831,-475.9416"/>
<polygon fill="#000000" stroke="#000000" points="1253.3881,-481.7495 1248.8051,-477.0286 1252.3658,-478.9291 1251.3436,-476.1086 1251.3436,-476.1086 1251.3436,-476.1086 1252.3658,-478.9291 1253.882,-475.1886 1253.3881,-481.7495 1253.3881,-481.7495"/>
<text text-anchor="middle" x="1132.3756" y="-414.6871" font-family="Times,serif" font-size="9.00" fill="#000000">OUTPUT-&gt;OPERAND2[Vector3D&lt;float&gt;]</text>
</g>
<!-- 11 -->
<g id="node11" class="node">
<title>11</title>
<polygon fill="none" stroke="#000000" points="138.3031,-1304.9871 -.1011,-1304.9871 -.1011,-1260.9871 138.3031,-1260.9871 138.3031,-1304.9871"/>
<text text-anchor="middle" x="69.101" y="-1291.9871" font-family="Times,serif" font-size="10.00" fill="#000000">StructurePX4TimeMsg_Block</text>
<text text-anchor="middle" x="69.101" y="-1279.9871" font-family="Times,serif" font-size="10.00" fill="#000000">px4_heartbeat_block</text>
<text text-anchor="middle" x="69.101" y="-1267.9871" font-family="Times,serif" font-size="10.00" fill="#000000">Syn:0, Asyn: 1</text>
</g>
<!-- 12 -->
<g id="node12" class="node">
<title>12</title>
<polygon fill="none" stroke="#000000" points="496.509,-1304.9871 387.363,-1304.9871 387.363,-1310.9871 369.363,-1282.9871 387.363,-1254.9871 387.363,-1260.9871 496.509,-1260.9871 496.509,-1304.9871"/>
<text text-anchor="middle" x="432.936" y="-1297.9871" font-family="Times,serif" font-size="10.00" fill="#000000">MAVLink_Publisher</text>
<text text-anchor="middle" x="432.936" y="-1285.9871" font-family="Times,serif" font-size="10.00" fill="#000000">MAVLINK_Pub/heartbeast</text>
<text text-anchor="middle" x="432.936" y="-1273.9871" font-family="Times,serif" font-size="10.00" fill="#000000">Syn:1, Asyn: 0</text>
<text text-anchor="middle" x="432.936" y="-1261.9871" font-family="Times,serif" font-size="10.00" fill="#000000">Down samp: 250</text>
</g>
<!-- 11&#45;&gt;12 -->
<g id="edge16" class="edge">
<title>11-&gt;12</title>
<path fill="none" stroke="#000000" d="M138.392,-1282.9871C202.9065,-1282.9871 298.5773,-1282.9871 363.2262,-1282.9871"/>
<polygon fill="#000000" stroke="#000000" points="369.3836,-1282.9871 363.3837,-1285.6872 366.3836,-1282.9872 363.3836,-1282.9872 363.3836,-1282.9872 363.3836,-1282.9872 366.3836,-1282.9872 363.3836,-1280.2872 369.3836,-1282.9871 369.3836,-1282.9871"/>
<text text-anchor="middle" x="248.5298" y="-1285.6871" font-family="Times,serif" font-size="9.00" fill="#000000">HEARTBEAT_MSG-&gt;INPUT[mavlink_heartbeat_t]</text>
</g>
</g>
</svg>