<?xml version="1.0" encoding="UTF-8" standalone="no"?>
<!DOCTYPE svg PUBLIC "-//W3C//DTD SVG 1.1//EN" "http://www.w3.org/Graphics/SVG/1.1/DTD/svg11.dtd">
<!-- Generated by graphviz version 2.40.1 (20161225.0304)
 -->
<!-- Title: G Pages: 1 -->
<svg width="1047pt" height="291pt" viewBox="14.40 14.40 1032.59 277.03" xmlns="http://www.w3.org/2000/svg" xmlns:xlink="http://www.w3.org/1999/xlink">
<g id="graph0" class="graph" transform="scale(1 1) rotate(0) translate(18.4 273.0274)">
<title>G</title>
<polygon fill="#ffffff" stroke="transparent" points="-4,4 -4,-258.6274 1014.1852,-258.6274 1014.1852,4 -4,4"/>
<text text-anchor="middle" x="505.0926" y="-214.6274" font-family="Times,serif" font-size="40.00" fill="#000000">vtol_ff</text>
<!-- 1 -->
<g id="node1" class="node">
<title>1</title>
<polygon fill="none" stroke="#000000" points="326.4026,-45.6274 249.0931,-45.6274 249.0931,-1.6274 326.4026,-1.6274 326.4026,-45.6274"/>
<text text-anchor="middle" x="287.7479" y="-32.6274" font-family="Times,serif" font-size="10.00" fill="#000000">Demux3</text>
<text text-anchor="middle" x="287.7479" y="-20.6274" font-family="Times,serif" font-size="10.00" fill="#000000">demux_ori_des</text>
<text text-anchor="middle" x="287.7479" y="-8.6274" font-family="Times,serif" font-size="10.00" fill="#000000">Syn:0, Asyn: 4</text>
</g>
<!-- 3 -->
<g id="node2" class="node">
<title>3</title>
<polygon fill="none" stroke="#000000" points="563.5915,-45.6274 424.019,-45.6274 424.019,-1.6274 563.5915,-1.6274 563.5915,-45.6274"/>
<text text-anchor="middle" x="493.8053" y="-32.6274" font-family="Times,serif" font-size="10.00" fill="#000000">Gain</text>
<text text-anchor="middle" x="493.8053" y="-20.6274" font-family="Times,serif" font-size="10.00" fill="#000000">gain_pitch_canard_range_max</text>
<text text-anchor="middle" x="493.8053" y="-8.6274" font-family="Times,serif" font-size="10.00" fill="#000000">Syn:1, Asyn: 2</text>
</g>
<!-- 1&#45;&gt;3 -->
<g id="edge1" class="edge">
<title>1-&gt;3</title>
<path fill="none" stroke="#000000" d="M326.5057,-23.6274C352.1901,-23.6274 386.7471,-23.6274 417.7855,-23.6274"/>
<polygon fill="#000000" stroke="#000000" points="423.9426,-23.6274 417.9426,-26.3275 420.9426,-23.6275 417.9426,-23.6275 417.9426,-23.6275 417.9426,-23.6275 420.9426,-23.6275 417.9425,-20.9275 423.9426,-23.6274 423.9426,-23.6274"/>
<text text-anchor="middle" x="376.3406" y="-26.3274" font-family="Times,serif" font-size="9.00" fill="#000000">Y-&gt;INPUT[float]</text>
</g>
<!-- 2 -->
<g id="node3" class="node">
<title>2</title>
<polygon fill="none" stroke="#000000" points="735.6297,-121.6274 660.1788,-121.6274 660.1788,-77.6274 735.6297,-77.6274 735.6297,-121.6274"/>
<text text-anchor="middle" x="697.9043" y="-108.6274" font-family="Times,serif" font-size="10.00" fill="#000000">Mux3</text>
<text text-anchor="middle" x="697.9043" y="-96.6274" font-family="Times,serif" font-size="10.00" fill="#000000">mux_angle_u</text>
<text text-anchor="middle" x="697.9043" y="-84.6274" font-family="Times,serif" font-size="10.00" fill="#000000">Syn:4, Asyn: 3</text>
</g>
<!-- 3&#45;&gt;2 -->
<g id="edge2" class="edge">
<title>3-&gt;2</title>
<path fill="none" stroke="#000000" d="M563.7024,-17.1238C592.6673,-17.4561 625.601,-21.981 652.0418,-36.8274 666.1533,-44.751 677.1053,-59.0241 684.7625,-71.9628"/>
<polygon fill="#000000" stroke="#000000" points="687.842,-77.4038 682.5368,-73.5121 686.3643,-74.793 684.8866,-72.1821 684.8866,-72.1821 684.8866,-72.1821 686.3643,-74.793 687.2364,-70.8522 687.842,-77.4038 687.842,-77.4038"/>
<text text-anchor="middle" x="615.7695" y="-40.3274" font-family="Times,serif" font-size="9.00" fill="#000000">OUTPUT-&gt;Y[float]</text>
</g>
<!-- 5 -->
<g id="node6" class="node">
<title>5</title>
<polygon fill="none" stroke="#000000" points="998.0593,-192.6274 920.0633,-192.6274 920.0633,-198.6274 902.0633,-176.6274 920.0633,-154.6274 920.0633,-160.6274 998.0593,-160.6274 998.0593,-192.6274"/>
<text text-anchor="middle" x="950.0613" y="-185.6274" font-family="Times,serif" font-size="10.00" fill="#000000">ROSUnit_Publisher</text>
<text text-anchor="middle" x="950.0613" y="-173.6274" font-family="Times,serif" font-size="10.00" fill="#000000">angle_u_ff_pub</text>
<text text-anchor="middle" x="950.0613" y="-161.6274" font-family="Times,serif" font-size="10.00" fill="#000000">Syn:5, Asyn: 0</text>
</g>
<!-- 2&#45;&gt;5 -->
<g id="edge5" class="edge">
<title>2-&gt;5</title>
<path fill="none" stroke="#000000" d="M735.6547,-111.1551C778.166,-124.1366 847.6017,-145.3398 895.8926,-160.0862"/>
<polygon fill="#000000" stroke="#000000" points="901.6737,-161.8515 895.1467,-162.6814 898.8045,-160.9753 895.9353,-160.0991 895.9353,-160.0991 895.9353,-160.0991 898.8045,-160.9753 896.7239,-157.5169 901.6737,-161.8515 901.6737,-161.8515"/>
<text text-anchor="middle" x="812.8521" y="-156.3274" font-family="Times,serif" font-size="9.00" fill="#000000">OUTPUT-&gt;INPUT[Vector3D&lt;float&gt;]</text>
</g>
<!-- 8 -->
<g id="node9" class="node">
<title>8</title>
<ellipse fill="#00ff00" stroke="#000000" cx="950.0613" cy="-23.6274" rx="60.248" ry="22.7556"/>
<text text-anchor="middle" x="950.0613" y="-26.6274" font-family="Times,serif" font-size="10.00" fill="#000000">Vector3D&lt;float&gt;</text>
<text text-anchor="middle" x="950.0613" y="-14.6274" font-family="Times,serif" font-size="10.00" fill="#000000">OUTPUT</text>
</g>
<!-- 2&#45;&gt;8 -->
<g id="edge8" class="edge">
<title>2-&gt;8</title>
<path fill="none" stroke="#000000" d="M706.1924,-77.4266C713.4599,-61.408 725.7146,-40.8981 743.7668,-30.8274 788.4529,-5.8986 847.4669,-6.5381 890.9248,-11.9794"/>
<polygon fill="#000000" stroke="#000000" points="896.9506,-12.7769 890.6481,-14.6662 893.9765,-12.3832 891.0024,-11.9896 891.0024,-11.9896 891.0024,-11.9896 893.9765,-12.3832 891.3567,-9.3129 896.9506,-12.7769 896.9506,-12.7769"/>
<text text-anchor="middle" x="812.8521" y="-34.3274" font-family="Times,serif" font-size="9.00" fill="#000000">-&gt;OUTPUT[Vector3D&lt;float&gt;]</text>
</g>
<!-- 0 -->
<g id="node4" class="node">
<title>0</title>
<polygon fill="none" stroke="#000000" points="336.3885,-197.6274 239.1072,-197.6274 239.1072,-153.6274 336.3885,-153.6274 336.3885,-197.6274"/>
<text text-anchor="middle" x="287.7479" y="-184.6274" font-family="Times,serif" font-size="10.00" fill="#000000">Demux3</text>
<text text-anchor="middle" x="287.7479" y="-172.6274" font-family="Times,serif" font-size="10.00" fill="#000000">demux_ori_rate_des</text>
<text text-anchor="middle" x="287.7479" y="-160.6274" font-family="Times,serif" font-size="10.00" fill="#000000">Syn:2, Asyn: 5</text>
</g>
<!-- 4 -->
<g id="node5" class="node">
<title>4</title>
<polygon fill="none" stroke="#000000" points="571.6897,-197.6274 415.9208,-197.6274 415.9208,-153.6274 571.6897,-153.6274 571.6897,-197.6274"/>
<text text-anchor="middle" x="493.8053" y="-184.6274" font-family="Times,serif" font-size="10.00" fill="#000000">Gain</text>
<text text-anchor="middle" x="493.8053" y="-172.6274" font-family="Times,serif" font-size="10.00" fill="#000000">gain_yaw_canard_diff_range_max</text>
<text text-anchor="middle" x="493.8053" y="-160.6274" font-family="Times,serif" font-size="10.00" fill="#000000">Syn:3, Asyn: 1</text>
</g>
<!-- 0&#45;&gt;4 -->
<g id="edge3" class="edge">
<title>0-&gt;4</title>
<path fill="none" stroke="#000000" d="M336.5806,-175.6274C358.4136,-175.6274 384.7859,-175.6274 409.6416,-175.6274"/>
<polygon fill="#000000" stroke="#000000" points="415.9244,-175.6274 409.9245,-178.3275 412.9244,-175.6275 409.9244,-175.6275 409.9244,-175.6275 409.9244,-175.6275 412.9244,-175.6275 409.9244,-172.9275 415.9244,-175.6274 415.9244,-175.6274"/>
<text text-anchor="middle" x="376.3406" y="-178.3274" font-family="Times,serif" font-size="9.00" fill="#000000">Z-&gt;INPUT[float]</text>
</g>
<!-- 4&#45;&gt;2 -->
<g id="edge4" class="edge">
<title>4-&gt;2</title>
<path fill="none" stroke="#000000" d="M553.1133,-153.543C585.4431,-141.5044 624.7585,-126.8646 654.2584,-115.8798"/>
<polygon fill="#000000" stroke="#000000" points="660.0225,-113.7334 655.3419,-118.3575 657.2111,-114.7803 654.3996,-115.8272 654.3996,-115.8272 654.3996,-115.8272 657.2111,-114.7803 653.4574,-113.2969 660.0225,-113.7334 660.0225,-113.7334"/>
<text text-anchor="middle" x="615.7695" y="-145.3274" font-family="Times,serif" font-size="9.00" fill="#000000">OUTPUT-&gt;Z[float]</text>
</g>
<!-- 6 -->
<g id="node7" class="node">
<title>6</title>
<ellipse fill="#ff0000" stroke="#000000" cx="60.1239" cy="-22.6274" rx="60.248" ry="22.7556"/>
<text text-anchor="middle" x="60.1239" y="-25.6274" font-family="Times,serif" font-size="10.00" fill="#000000">Vector3D&lt;float&gt;</text>
<text text-anchor="middle" x="60.1239" y="-13.6274" font-family="Times,serif" font-size="10.00" fill="#000000">INPUT</text>
</g>
<!-- 6&#45;&gt;1 -->
<g id="edge6" class="edge">
<title>6-&gt;1</title>
<path fill="none" stroke="#000000" d="M120.5253,-22.8928C158.8386,-23.0611 207.5954,-23.2753 242.5612,-23.4289"/>
<polygon fill="#000000" stroke="#000000" points="248.9239,-23.4569 242.9121,-26.1304 245.924,-23.4436 242.924,-23.4304 242.924,-23.4304 242.924,-23.4304 245.924,-23.4436 242.9359,-20.7304 248.9239,-23.4569 248.9239,-23.4569"/>
<text text-anchor="middle" x="179.5878" y="-26.3274" font-family="Times,serif" font-size="9.00" fill="#000000">INPUT-&gt;[Vector3D&lt;float&gt;]</text>
</g>
<!-- 7 -->
<g id="node8" class="node">
<title>7</title>
<ellipse fill="#ff0000" stroke="#000000" cx="60.1239" cy="-175.6274" rx="60.248" ry="22.7556"/>
<text text-anchor="middle" x="60.1239" y="-178.6274" font-family="Times,serif" font-size="10.00" fill="#000000">Vector3D&lt;float&gt;</text>
<text text-anchor="middle" x="60.1239" y="-166.6274" font-family="Times,serif" font-size="10.00" fill="#000000">INPUT</text>
</g>
<!-- 7&#45;&gt;0 -->
<g id="edge7" class="edge">
<title>7-&gt;0</title>
<path fill="none" stroke="#000000" d="M120.5253,-175.6274C155.3668,-175.6274 198.8449,-175.6274 232.7342,-175.6274"/>
<polygon fill="#000000" stroke="#000000" points="238.9463,-175.6274 232.9463,-178.3275 235.9463,-175.6275 232.9463,-175.6275 232.9463,-175.6275 232.9463,-175.6275 235.9463,-175.6275 232.9462,-172.9275 238.9463,-175.6274 238.9463,-175.6274"/>
<text text-anchor="middle" x="179.5878" y="-178.3274" font-family="Times,serif" font-size="9.00" fill="#000000">INPUT-&gt;[Vector3D&lt;float&gt;]</text>
</g>
</g>
</svg>