<?xml version="1.0" encoding="UTF-8" standalone="no"?>
<!DOCTYPE svg PUBLIC "-//W3C//DTD SVG 1.1//EN" "http://www.w3.org/Graphics/SVG/1.1/DTD/svg11.dtd">
<!-- Generated by graphviz version 2.40.1 (20161225.0304)
 -->
<!-- Title: G Pages: 1 -->
<svg width="1238pt" height="607pt" viewBox="14.40 14.40 1224.02 593.03" xmlns="http://www.w3.org/2000/svg" xmlns:xlink="http://www.w3.org/1999/xlink">
<g id="graph0" class="graph" transform="scale(1 1) rotate(0) translate(18.4 589.0274)">
<title>G</title>
<polygon fill="#ffffff" stroke="transparent" points="-4,4 -4,-574.6274 1205.6234,-574.6274 1205.6234,4 -4,4"/>
<text text-anchor="middle" x="600.8117" y="-530.6274" font-family="Times,serif" font-size="40.00" fill="#000000">yaw</text>
<!-- 0 -->
<g id="node1" class="node">
<title>0</title>
<polygon fill="none" stroke="#000000" points="226.9165,-360 146.4656,-360 146.4656,-316 226.9165,-316 226.9165,-360"/>
<text text-anchor="middle" x="186.691" y="-347" font-family="Times,serif" font-size="10.00" fill="#000000">PID_Block</text>
<text text-anchor="middle" x="186.691" y="-335" font-family="Times,serif" font-size="10.00" fill="#000000">Pid</text>
<text text-anchor="middle" x="186.691" y="-323" font-family="Times,serif" font-size="10.00" fill="#000000">Syn:9, Asyn: 14</text>
</g>
<!-- 2 -->
<g id="node2" class="node">
<title>2</title>
<polygon fill="none" stroke="#000000" points="441.0247,-361 355.5738,-361 355.5738,-317 441.0247,-317 441.0247,-361"/>
<text text-anchor="middle" x="398.2992" y="-348" font-family="Times,serif" font-size="10.00" fill="#000000">Saturation</text>
<text text-anchor="middle" x="398.2992" y="-336" font-family="Times,serif" font-size="10.00" fill="#000000">Sat</text>
<text text-anchor="middle" x="398.2992" y="-324" font-family="Times,serif" font-size="10.00" fill="#000000">Syn:10, Asyn: 12</text>
</g>
<!-- 0&#45;&gt;2 -->
<g id="edge1" class="edge">
<title>0-&gt;2</title>
<path fill="none" stroke="#000000" d="M226.991,-338.1904C261.6781,-338.3544 311.8512,-338.5915 348.94,-338.7667"/>
<polygon fill="#000000" stroke="#000000" points="355.24,-338.7965 349.2273,-341.468 352.2401,-338.7823 349.2401,-338.7681 349.2401,-338.7681 349.2401,-338.7681 352.2401,-338.7823 349.2529,-336.0681 355.24,-338.7965 355.24,-338.7965"/>
<text text-anchor="middle" x="287.573" y="-341.7" font-family="Times,serif" font-size="9.00" fill="#000000">COMMAND-&gt;INPUT[float]</text>
</g>
<!-- 4 -->
<g id="node3" class="node">
<title>4</title>
<polygon fill="none" stroke="#000000" points="666.7973,-361 581.3464,-361 581.3464,-317 666.7973,-317 666.7973,-361"/>
<text text-anchor="middle" x="624.0719" y="-348" font-family="Times,serif" font-size="10.00" fill="#000000">Sum</text>
<text text-anchor="middle" x="624.0719" y="-336" font-family="Times,serif" font-size="10.00" fill="#000000">sum_ref_rate</text>
<text text-anchor="middle" x="624.0719" y="-324" font-family="Times,serif" font-size="10.00" fill="#000000">Syn:11, Asyn: 10</text>
</g>
<!-- 2&#45;&gt;4 -->
<g id="edge2" class="edge">
<title>2-&gt;4</title>
<path fill="none" stroke="#000000" d="M441.0308,-339C479.1339,-339 534.9043,-339 574.8598,-339"/>
<polygon fill="#000000" stroke="#000000" points="581.1315,-339 575.1316,-341.7001 578.1315,-339 575.1315,-339.0001 575.1315,-339.0001 575.1315,-339.0001 578.1315,-339 575.1315,-336.3001 581.1315,-339 581.1315,-339"/>
<text text-anchor="middle" x="513.0255" y="-341.7" font-family="Times,serif" font-size="9.00" fill="#000000">OUTPUT-&gt;OPERAND1[float]</text>
</g>
<!-- 3 -->
<g id="node4" class="node">
<title>3</title>
<polygon fill="none" stroke="#000000" points="880.0276,-208 794.5767,-208 794.5767,-164 880.0276,-164 880.0276,-208"/>
<text text-anchor="middle" x="837.3021" y="-195" font-family="Times,serif" font-size="10.00" fill="#000000">PID_Block</text>
<text text-anchor="middle" x="837.3021" y="-183" font-family="Times,serif" font-size="10.00" fill="#000000">Pid_Rate</text>
<text text-anchor="middle" x="837.3021" y="-171" font-family="Times,serif" font-size="10.00" fill="#000000">Syn:13, Asyn: 11</text>
</g>
<!-- 4&#45;&gt;3 -->
<g id="edge3" class="edge">
<title>4-&gt;3</title>
<path fill="none" stroke="#000000" d="M655.0774,-316.7525C693.957,-288.855 760.4753,-241.1259 801.4871,-211.6985"/>
<polygon fill="#000000" stroke="#000000" points="806.6051,-208.0261 803.3043,-213.7178 804.1677,-209.7751 801.7302,-211.5241 801.7302,-211.5241 801.7302,-211.5241 804.1677,-209.7751 800.1561,-209.3304 806.6051,-208.0261 806.6051,-208.0261"/>
<text text-anchor="middle" x="726.6232" y="-300.7" font-family="Times,serif" font-size="9.00" fill="#000000">OUTPUT-&gt;ERROR[float]</text>
</g>
<!-- 14 -->
<g id="node7" class="node">
<title>14</title>
<polygon fill="none" stroke="#000000" points="892.1116,-355 800.4927,-355 800.4927,-361 782.4927,-339 800.4927,-317 800.4927,-323 892.1116,-323 892.1116,-355"/>
<text text-anchor="middle" x="837.3021" y="-348" font-family="Times,serif" font-size="10.00" fill="#000000">ROSUnit_Publisher</text>
<text text-anchor="middle" x="837.3021" y="-336" font-family="Times,serif" font-size="10.00" fill="#000000">yaw_rate_setpoint_pub</text>
<text text-anchor="middle" x="837.3021" y="-324" font-family="Times,serif" font-size="10.00" fill="#000000">Syn:12, Asyn: 0</text>
</g>
<!-- 4&#45;&gt;14 -->
<g id="edge6" class="edge">
<title>4-&gt;14</title>
<path fill="none" stroke="#000000" d="M666.9657,-339C698.2212,-339 741.0173,-339 775.893,-339"/>
<polygon fill="#000000" stroke="#000000" points="782.3083,-339 776.3083,-341.7001 779.3083,-339 776.3083,-339.0001 776.3083,-339.0001 776.3083,-339.0001 779.3083,-339 776.3083,-336.3001 782.3083,-339 782.3083,-339"/>
<text text-anchor="middle" x="726.6232" y="-341.7" font-family="Times,serif" font-size="9.00" fill="#000000">OUTPUT-&gt;INPUT[float]</text>
</g>
<!-- 5 -->
<g id="node5" class="node">
<title>5</title>
<polygon fill="none" stroke="#000000" points="1079.5913,-106 999.1404,-106 999.1404,-62 1079.5913,-62 1079.5913,-106"/>
<text text-anchor="middle" x="1039.3658" y="-93" font-family="Times,serif" font-size="10.00" fill="#000000">InvertedSwitch</text>
<text text-anchor="middle" x="1039.3658" y="-81" font-family="Times,serif" font-size="10.00" fill="#000000">Mrft_Sw</text>
<text text-anchor="middle" x="1039.3658" y="-69" font-family="Times,serif" font-size="10.00" fill="#000000">Syn:14, Asyn: 9</text>
</g>
<!-- 3&#45;&gt;5 -->
<g id="edge4" class="edge">
<title>3-&gt;5</title>
<path fill="none" stroke="#000000" d="M880.1546,-164.3684C913.3368,-147.6183 959.2202,-124.4568 993.2089,-107.2996"/>
<polygon fill="#000000" stroke="#000000" points="998.9836,-104.3846 994.844,-109.4988 996.3055,-105.7365 993.6273,-107.0884 993.6273,-107.0884 993.6273,-107.0884 996.3055,-105.7365 992.4106,-104.6781 998.9836,-104.3846 998.9836,-104.3846"/>
<text text-anchor="middle" x="945.48" y="-156.7" font-family="Times,serif" font-size="9.00" fill="#000000">COMMAND-&gt;NC[float]</text>
</g>
<!-- 17 -->
<g id="node10" class="node">
<title>17</title>
<ellipse fill="#00ff00" stroke="#000000" cx="1174.2039" cy="-84" rx="27.3392" ry="22.7556"/>
<text text-anchor="middle" x="1174.2039" y="-87" font-family="Times,serif" font-size="10.00" fill="#000000">float</text>
<text text-anchor="middle" x="1174.2039" y="-75" font-family="Times,serif" font-size="10.00" fill="#000000">COM</text>
</g>
<!-- 5&#45;&gt;17 -->
<g id="edge10" class="edge">
<title>5-&gt;17</title>
<path fill="none" stroke="#000000" d="M1079.8217,-84C1099.1968,-84 1122.1289,-84 1140.537,-84"/>
<polygon fill="#000000" stroke="#000000" points="1146.5946,-84 1140.5946,-86.7001 1143.5946,-84 1140.5946,-84.0001 1140.5946,-84.0001 1140.5946,-84.0001 1143.5946,-84 1140.5945,-81.3001 1146.5946,-84 1146.5946,-84"/>
<text text-anchor="middle" x="1113.2564" y="-86.7" font-family="Times,serif" font-size="9.00" fill="#000000">-&gt;COM[float]</text>
</g>
<!-- 1 -->
<g id="node6" class="node">
<title>1</title>
<polygon fill="none" stroke="#000000" points="226.9165,-208 146.4656,-208 146.4656,-164 226.9165,-164 226.9165,-208"/>
<text text-anchor="middle" x="186.691" y="-195" font-family="Times,serif" font-size="10.00" fill="#000000">MRFT_Block</text>
<text text-anchor="middle" x="186.691" y="-183" font-family="Times,serif" font-size="10.00" fill="#000000">Mrft</text>
<text text-anchor="middle" x="186.691" y="-171" font-family="Times,serif" font-size="10.00" fill="#000000">Syn:8, Asyn: 13</text>
</g>
<!-- 1&#45;&gt;5 -->
<g id="edge5" class="edge">
<title>1-&gt;5</title>
<path fill="none" stroke="#000000" d="M198.1824,-163.9329C225.605,-114.6635 299.9858,0 398.2992,0 398.2992,0 398.2992,0 837.3021,0 899.1117,0 963.9706,-33.9273 1003.0383,-58.6584"/>
<polygon fill="#000000" stroke="#000000" points="1008.1419,-61.93 1001.6335,-60.965 1005.6163,-60.3109 1003.0906,-58.6919 1003.0906,-58.6919 1003.0906,-58.6919 1005.6163,-60.3109 1004.5478,-56.4188 1008.1419,-61.93 1008.1419,-61.93"/>
<text text-anchor="middle" x="624.0719" y="-2.7" font-family="Times,serif" font-size="9.00" fill="#000000">MRFT_CMD-&gt;NO[float]</text>
</g>
<!-- 18 -->
<g id="node11" class="node">
<title>18</title>
<ellipse fill="#00ff00" stroke="#000000" cx="398.2992" cy="-186" rx="50.4143" ry="22.7556"/>
<text text-anchor="middle" x="398.2992" y="-189" font-family="Times,serif" font-size="10.00" fill="#000000">float</text>
<text text-anchor="middle" x="398.2992" y="-177" font-family="Times,serif" font-size="10.00" fill="#000000">MRFT_CMD</text>
</g>
<!-- 1&#45;&gt;18 -->
<g id="edge11" class="edge">
<title>1-&gt;18</title>
<path fill="none" stroke="#000000" d="M226.991,-186C259.5243,-186 305.6802,-186 341.8868,-186"/>
<polygon fill="#000000" stroke="#000000" points="348.0662,-186 342.0662,-188.7001 345.0662,-186 342.0662,-186.0001 342.0662,-186.0001 342.0662,-186.0001 345.0662,-186 342.0661,-183.3001 348.0662,-186 348.0662,-186"/>
<text text-anchor="middle" x="287.573" y="-188.7" font-family="Times,serif" font-size="9.00" fill="#000000">-&gt;MRFT_CMD[float]</text>
</g>
<!-- 15 -->
<g id="node8" class="node">
<title>15</title>
<ellipse fill="#ff0000" stroke="#000000" cx="34.8851" cy="-262" rx="34.7706" ry="22.7556"/>
<text text-anchor="middle" x="34.8851" y="-265" font-family="Times,serif" font-size="10.00" fill="#000000">float</text>
<text text-anchor="middle" x="34.8851" y="-253" font-family="Times,serif" font-size="10.00" fill="#000000">ERROR</text>
</g>
<!-- 15&#45;&gt;0 -->
<g id="edge7" class="edge">
<title>15-&gt;0</title>
<path fill="none" stroke="#000000" d="M62.7287,-275.9396C84.5329,-286.8556 115.3256,-302.2717 140.7655,-315.0079"/>
<polygon fill="#000000" stroke="#000000" points="146.4395,-317.8485 139.8655,-317.5768 143.7569,-316.5055 141.0743,-315.1624 141.0743,-315.1624 141.0743,-315.1624 143.7569,-316.5055 142.283,-312.7481 146.4395,-317.8485 146.4395,-317.8485"/>
<text text-anchor="middle" x="108.0494" y="-316.7" font-family="Times,serif" font-size="9.00" fill="#000000">ERROR-&gt;[float]</text>
</g>
<!-- 15&#45;&gt;1 -->
<g id="edge8" class="edge">
<title>15-&gt;1</title>
<path fill="none" stroke="#000000" d="M62.7287,-248.0604C84.5329,-237.1444 115.3256,-221.7283 140.7655,-208.9921"/>
<polygon fill="#000000" stroke="#000000" points="146.4395,-206.1515 142.283,-211.2519 143.7569,-207.4945 141.0743,-208.8376 141.0743,-208.8376 141.0743,-208.8376 143.7569,-207.4945 139.8655,-206.4232 146.4395,-206.1515 146.4395,-206.1515"/>
<text text-anchor="middle" x="108.0494" y="-242.7" font-family="Times,serif" font-size="9.00" fill="#000000">INPUT-&gt;[float]</text>
</g>
<!-- 16 -->
<g id="node9" class="node">
<title>16</title>
<ellipse fill="#ff0000" stroke="#000000" cx="398.2992" cy="-492" rx="48.4689" ry="22.7556"/>
<text text-anchor="middle" x="398.2992" y="-495" font-family="Times,serif" font-size="10.00" fill="#000000">float</text>
<text text-anchor="middle" x="398.2992" y="-483" font-family="Times,serif" font-size="10.00" fill="#000000">OPERAND2</text>
</g>
<!-- 16&#45;&gt;4 -->
<g id="edge9" class="edge">
<title>16-&gt;4</title>
<path fill="none" stroke="#000000" d="M426.2805,-473.4236C460.27,-450.809 519.2987,-411.3761 569.545,-377 575.3482,-373.0298 581.4781,-368.7965 587.4506,-364.6504"/>
<polygon fill="#000000" stroke="#000000" points="592.4197,-361.1959 589.0344,-366.8378 589.9565,-362.9084 587.4932,-364.6208 587.4932,-364.6208 587.4932,-364.6208 589.9565,-362.9084 585.952,-362.4039 592.4197,-361.1959 592.4197,-361.1959"/>
<text text-anchor="middle" x="513.0255" y="-453.7" font-family="Times,serif" font-size="9.00" fill="#000000">OPERAND2-&gt;[float]</text>
</g>
</g>
</svg>