<?xml version="1.0" encoding="UTF-8" standalone="no"?>
<!DOCTYPE svg PUBLIC "-//W3C//DTD SVG 1.1//EN" "http://www.w3.org/Graphics/SVG/1.1/DTD/svg11.dtd">
<!-- Generated by graphviz version 2.40.1 (20161225.0304)
 -->
<!-- Title: G Pages: 1 -->
<svg width="1880pt" height="672pt" viewBox="14.40 14.40 1865.11 658.03" xmlns="http://www.w3.org/2000/svg" xmlns:xlink="http://www.w3.org/1999/xlink">
<g id="graph0" class="graph" transform="scale(1 1) rotate(0) translate(18.4 654.0274)">
<title>G</title>
<polygon fill="#ffffff" stroke="transparent" points="-4,4 -4,-639.6274 1846.7114,-639.6274 1846.7114,4 -4,4"/>
<text text-anchor="middle" x="921.3557" y="-595.6274" font-family="Times,serif" font-size="40.00" fill="#000000">Actu_sys</text>
<!-- 0 -->
<g id="node1" class="node">
<title>0</title>
<polygon fill="none" stroke="#000000" points="437.0296,-44.6274 351.5787,-44.6274 351.5787,-.6274 437.0296,-.6274 437.0296,-44.6274"/>
<text text-anchor="middle" x="394.3042" y="-31.6274" font-family="Times,serif" font-size="10.00" fill="#000000">RampThrust</text>
<text text-anchor="middle" x="394.3042" y="-19.6274" font-family="Times,serif" font-size="10.00" fill="#000000">Thrust Ramp</text>
<text text-anchor="middle" x="394.3042" y="-7.6274" font-family="Times,serif" font-size="10.00" fill="#000000">Syn:11, Asyn: 17</text>
</g>
<!-- 1 -->
<g id="node2" class="node">
<title>1</title>
<polygon fill="none" stroke="#000000" points="827.7248,-197.6274 708.0186,-197.6274 708.0186,-153.6274 827.7248,-153.6274 827.7248,-197.6274"/>
<text text-anchor="middle" x="767.8717" y="-184.6274" font-family="Times,serif" font-size="10.00" fill="#000000">ActuationAllocatorVTOL</text>
<text text-anchor="middle" x="767.8717" y="-172.6274" font-family="Times,serif" font-size="10.00" fill="#000000">actuation_allocator</text>
<text text-anchor="middle" x="767.8717" y="-160.6274" font-family="Times,serif" font-size="10.00" fill="#000000">Syn:12, Asyn: 16</text>
</g>
<!-- 0&#45;&gt;1 -->
<g id="edge1" class="edge">
<title>0-&gt;1</title>
<path fill="none" stroke="#000000" d="M437.0389,-37.4662C495.6736,-58.1858 604.0237,-97.7661 693.8292,-137.8274 702.6706,-141.7715 711.9622,-146.2439 720.8611,-150.697"/>
<polygon fill="#000000" stroke="#000000" points="726.3436,-153.4623 719.7705,-153.1709 723.665,-152.1112 720.9864,-150.7602 720.9864,-150.7602 720.9864,-150.7602 723.665,-152.1112 722.2024,-148.3495 726.3436,-153.4623 726.3436,-153.4623"/>
<text text-anchor="middle" x="584.5566" y="-141.3274" font-family="Times,serif" font-size="9.00" fill="#000000">OUTPUT-&gt;THRUST_CMD[float]</text>
</g>
<!-- 3 -->
<g id="node3" class="node">
<title>3</title>
<polygon fill="none" stroke="#000000" points="1157.2536,-343.6274 1053.0415,-343.6274 1053.0415,-349.6274 1035.0415,-327.6274 1053.0415,-305.6274 1053.0415,-311.6274 1157.2536,-311.6274 1157.2536,-343.6274"/>
<text text-anchor="middle" x="1096.1476" y="-336.6274" font-family="Times,serif" font-size="10.00" fill="#000000">ROSUnit_Publisher</text>
<text text-anchor="middle" x="1096.1476" y="-324.6274" font-family="Times,serif" font-size="10.00" fill="#000000">ROS_Publisher_Act_Cmd</text>
<text text-anchor="middle" x="1096.1476" y="-312.6274" font-family="Times,serif" font-size="10.00" fill="#000000">Syn:17, Asyn: 14</text>
</g>
<!-- 1&#45;&gt;3 -->
<g id="edge2" class="edge">
<title>1-&gt;3</title>
<path fill="none" stroke="#000000" d="M809.9674,-197.7165C820.3573,-203.0342 831.4952,-208.6221 841.9142,-213.6274 909.0138,-245.8623 987.3135,-280.5381 1039.0997,-303.0714"/>
<polygon fill="#000000" stroke="#000000" points="1044.6531,-305.4855 1038.0741,-305.5696 1041.9018,-304.2894 1039.1505,-303.0934 1039.1505,-303.0934 1039.1505,-303.0934 1041.9018,-304.2894 1040.2269,-300.6173 1044.6531,-305.4855 1044.6531,-305.4855"/>
<text text-anchor="middle" x="934.5044" y="-299.3274" font-family="Times,serif" font-size="9.00" fill="#000000">MOTOR_CMD-&gt;INPUT[std::vector&lt;float&gt;]</text>
</g>
<!-- 2 -->
<g id="node4" class="node">
<title>2</title>
<polygon fill="none" stroke="#000000" points="1145.3458,-197.6274 1046.9494,-197.6274 1046.9494,-153.6274 1145.3458,-153.6274 1145.3458,-197.6274"/>
<text text-anchor="middle" x="1096.1476" y="-184.6274" font-family="Times,serif" font-size="10.00" fill="#000000">MapAllocationToIO</text>
<text text-anchor="middle" x="1096.1476" y="-172.6274" font-family="Times,serif" font-size="10.00" fill="#000000">alloc_to_io_scaling</text>
<text text-anchor="middle" x="1096.1476" y="-160.6274" font-family="Times,serif" font-size="10.00" fill="#000000">Syn:14, Asyn: 15</text>
</g>
<!-- 1&#45;&gt;2 -->
<g id="edge3" class="edge">
<title>1-&gt;2</title>
<path fill="none" stroke="#000000" d="M828.0825,-175.6274C888.8035,-175.6274 981.7601,-175.6274 1040.7174,-175.6274"/>
<polygon fill="#000000" stroke="#000000" points="1047.0235,-175.6274 1041.0236,-178.3275 1044.0235,-175.6275 1041.0235,-175.6275 1041.0235,-175.6275 1041.0235,-175.6275 1044.0235,-175.6275 1041.0235,-172.9275 1047.0235,-175.6274 1047.0235,-175.6274"/>
<text text-anchor="middle" x="934.5044" y="-178.3274" font-family="Times,serif" font-size="9.00" fill="#000000">MOTOR_CMD-&gt;ALLOC_INP[std::vector&lt;float&gt;]</text>
</g>
<!-- 17 -->
<g id="node11" class="node">
<title>17</title>
<polygon fill="none" stroke="#000000" points="1147.8598,-39.6274 1062.4353,-39.6274 1062.4353,-45.6274 1044.4353,-23.6274 1062.4353,-1.6274 1062.4353,-7.6274 1147.8598,-7.6274 1147.8598,-39.6274"/>
<text text-anchor="middle" x="1096.1476" y="-32.6274" font-family="Times,serif" font-size="10.00" fill="#000000">ROSUnit_Publisher</text>
<text text-anchor="middle" x="1096.1476" y="-20.6274" font-family="Times,serif" font-size="10.00" fill="#000000">ros_pub_motor_cmds</text>
<text text-anchor="middle" x="1096.1476" y="-8.6274" font-family="Times,serif" font-size="10.00" fill="#000000">Syn:13, Asyn: 0</text>
</g>
<!-- 1&#45;&gt;17 -->
<g id="edge9" class="edge">
<title>1-&gt;17</title>
<path fill="none" stroke="#000000" d="M810.3683,-153.4747C820.6462,-148.244 831.633,-142.7571 841.9142,-137.8274 909.268,-105.532 987.8393,-70.6587 1039.6066,-48.0606"/>
<polygon fill="#000000" stroke="#000000" points="1045.1568,-45.6399 1040.7365,-50.5135 1042.4069,-46.8393 1039.6571,-48.0386 1039.6571,-48.0386 1039.6571,-48.0386 1042.4069,-46.8393 1038.5777,-45.5638 1045.1568,-45.6399 1045.1568,-45.6399"/>
<text text-anchor="middle" x="934.5044" y="-141.3274" font-family="Times,serif" font-size="9.00" fill="#000000">MOTOR_CMD-&gt;INPUT[std::vector&lt;float&gt;]</text>
</g>
<!-- 7 -->
<g id="node5" class="node">
<title>7</title>
<polygon fill="none" stroke="#000000" points="1511.8591,-197.6274 1365.8951,-197.6274 1365.8951,-153.6274 1511.8591,-153.6274 1511.8591,-197.6274"/>
<text text-anchor="middle" x="1438.8771" y="-184.6274" font-family="Times,serif" font-size="10.00" fill="#000000">StructurePX4MotorsMsg_Block</text>
<text text-anchor="middle" x="1438.8771" y="-172.6274" font-family="Times,serif" font-size="10.00" fill="#000000">px4_motors_block</text>
<text text-anchor="middle" x="1438.8771" y="-160.6274" font-family="Times,serif" font-size="10.00" fill="#000000">Syn:15, Asyn: 7</text>
</g>
<!-- 2&#45;&gt;7 -->
<g id="edge4" class="edge">
<title>2-&gt;7</title>
<path fill="none" stroke="#000000" d="M1145.2523,-175.6274C1201.1071,-175.6274 1293.12,-175.6274 1359.2662,-175.6274"/>
<polygon fill="#000000" stroke="#000000" points="1365.5846,-175.6274 1359.5847,-178.3275 1362.5846,-175.6275 1359.5846,-175.6275 1359.5846,-175.6275 1359.5846,-175.6275 1362.5846,-175.6275 1359.5846,-172.9275 1365.5846,-175.6274 1365.5846,-175.6274"/>
<text text-anchor="middle" x="1261.5433" y="-178.3274" font-family="Times,serif" font-size="9.00" fill="#000000">MOTOR_CMD-&gt;INP_MOTORS[std::vector&lt;float&gt;]</text>
</g>
<!-- 8 -->
<g id="node6" class="node">
<title>8</title>
<polygon fill="none" stroke="#000000" points="1842.8703,-191.6274 1746.2354,-191.6274 1746.2354,-197.6274 1728.2354,-175.6274 1746.2354,-153.6274 1746.2354,-159.6274 1842.8703,-159.6274 1842.8703,-191.6274"/>
<text text-anchor="middle" x="1785.5529" y="-184.6274" font-family="Times,serif" font-size="10.00" fill="#000000">MAVLink_Publisher</text>
<text text-anchor="middle" x="1785.5529" y="-172.6274" font-family="Times,serif" font-size="10.00" fill="#000000">MAVLINK_Pub/motors</text>
<text text-anchor="middle" x="1785.5529" y="-160.6274" font-family="Times,serif" font-size="10.00" fill="#000000">Syn:16, Asyn: 6</text>
</g>
<!-- 7&#45;&gt;8 -->
<g id="edge5" class="edge">
<title>7-&gt;8</title>
<path fill="none" stroke="#000000" d="M1511.9745,-175.6274C1574.2973,-175.6274 1662.9609,-175.6274 1722.2855,-175.6274"/>
<polygon fill="#000000" stroke="#000000" points="1728.2916,-175.6274 1722.2917,-178.3275 1725.2916,-175.6275 1722.2916,-175.6275 1722.2916,-175.6275 1722.2916,-175.6275 1725.2916,-175.6275 1722.2916,-172.9275 1728.2916,-175.6274 1728.2916,-175.6274"/>
<text text-anchor="middle" x="1620.1312" y="-178.3274" font-family="Times,serif" font-size="9.00" fill="#000000">OUT_MOTORS-&gt;INPUT[mavlink_actuator_motors_t]</text>
</g>
<!-- 13 -->
<g id="node7" class="node">
<title>13</title>
<polygon fill="none" stroke="#000000" points="91.4624,-573.6274 -.1544,-573.6274 -.1544,-541.6274 91.4624,-541.6274 91.4624,-535.6274 109.4624,-557.6274 91.4624,-579.6274 91.4624,-573.6274"/>
<text text-anchor="middle" x="54.654" y="-566.6274" font-family="Times,serif" font-size="10.00" fill="#000000">MAVLink_Subscriber</text>
<text text-anchor="middle" x="54.654" y="-554.6274" font-family="Times,serif" font-size="10.00" fill="#000000">mavlink_sub_heartbeat</text>
<text text-anchor="middle" x="54.654" y="-542.6274" font-family="Times,serif" font-size="10.00" fill="#000000">Syn:1, Asyn: 3</text>
</g>
<!-- 15 -->
<g id="node8" class="node">
<title>15</title>
<polygon fill="none" stroke="#000000" points="454.1902,-503.6274 334.4181,-503.6274 334.4181,-459.6274 454.1902,-459.6274 454.1902,-503.6274"/>
<text text-anchor="middle" x="394.3042" y="-490.6274" font-family="Times,serif" font-size="10.00" fill="#000000">MonitorPX4Status_Block</text>
<text text-anchor="middle" x="394.3042" y="-478.6274" font-family="Times,serif" font-size="10.00" fill="#000000">px4_get_arm_block</text>
<text text-anchor="middle" x="394.3042" y="-466.6274" font-family="Times,serif" font-size="10.00" fill="#000000">Syn:2, Asyn: 1</text>
</g>
<!-- 13&#45;&gt;15 -->
<g id="edge6" class="edge">
<title>13-&gt;15</title>
<path fill="none" stroke="#000000" d="M109.6022,-545.3322C169.26,-531.9832 264.5232,-510.6672 328.2207,-496.4142"/>
<polygon fill="#000000" stroke="#000000" points="334.2842,-495.0575 329.0185,-499.0026 331.3565,-495.7126 328.4289,-496.3677 328.4289,-496.3677 328.4289,-496.3677 331.3565,-495.7126 327.8393,-493.7329 334.2842,-495.0575 334.2842,-495.0575"/>
<text text-anchor="middle" x="215.3162" y="-545.3274" font-family="Times,serif" font-size="9.00" fill="#000000">OUTPUT-&gt;INP_HEARTBEAT[mavlink_heartbeat_t]</text>
</g>
<!-- 16 -->
<g id="node10" class="node">
<title>16</title>
<polygon fill="none" stroke="#000000" points="833.9567,-509.6274 701.7866,-509.6274 701.7866,-453.6274 833.9567,-453.6274 833.9567,-509.6274"/>
<text text-anchor="middle" x="767.8717" y="-496.6274" font-family="Times,serif" font-size="10.00" fill="#000000">EnforcePX4ArmCmd_Block</text>
<text text-anchor="middle" x="767.8717" y="-484.6274" font-family="Times,serif" font-size="10.00" fill="#000000">px4_enforce_arm_block</text>
<text text-anchor="middle" x="767.8717" y="-472.6274" font-family="Times,serif" font-size="10.00" fill="#000000">Syn:3, Asyn: 9</text>
<text text-anchor="middle" x="767.8717" y="-460.6274" font-family="Times,serif" font-size="10.00" fill="#000000">Down samp: 200</text>
</g>
<!-- 15&#45;&gt;16 -->
<g id="edge8" class="edge">
<title>15-&gt;16</title>
<path fill="none" stroke="#000000" d="M454.3243,-481.6274C519.9916,-481.6274 625.2382,-481.6274 695.4448,-481.6274"/>
<polygon fill="#000000" stroke="#000000" points="701.7038,-481.6274 695.7038,-484.3275 698.7038,-481.6275 695.7038,-481.6275 695.7038,-481.6275 695.7038,-481.6275 698.7038,-481.6275 695.7037,-478.9275 701.7038,-481.6274 701.7038,-481.6274"/>
<text text-anchor="middle" x="584.5566" y="-484.3274" font-family="Times,serif" font-size="9.00" fill="#000000">OUT_ARM-&gt;INP_CURRENT_PX4_ARM_STATUS[bool]</text>
</g>
<!-- 14 -->
<g id="node9" class="node">
<title>14</title>
<polygon fill="none" stroke="#000000" points="89.632,-421.6274 1.676,-421.6274 1.676,-389.6274 89.632,-389.6274 89.632,-383.6274 107.632,-405.6274 89.632,-427.6274 89.632,-421.6274"/>
<text text-anchor="middle" x="54.654" y="-414.6274" font-family="Times,serif" font-size="10.00" fill="#000000">MAVLink_Subscriber</text>
<text text-anchor="middle" x="54.654" y="-402.6274" font-family="Times,serif" font-size="10.00" fill="#000000">mavlink_sub_status</text>
<text text-anchor="middle" x="54.654" y="-390.6274" font-family="Times,serif" font-size="10.00" fill="#000000">Syn:0, Asyn: 2</text>
</g>
<!-- 14&#45;&gt;15 -->
<g id="edge7" class="edge">
<title>14-&gt;15</title>
<path fill="none" stroke="#000000" d="M107.752,-416.7443C160.1052,-427.8041 242.351,-445.4436 313.3244,-461.8274 318.1897,-462.9505 323.2144,-464.1305 328.2671,-465.3317"/>
<polygon fill="#000000" stroke="#000000" points="334.2036,-466.7494 327.7405,-467.9818 331.2856,-466.0525 328.3677,-465.3557 328.3677,-465.3557 328.3677,-465.3557 331.2856,-466.0525 328.9948,-462.7295 334.2036,-466.7494 334.2036,-466.7494"/>
<text text-anchor="middle" x="215.3162" y="-464.3274" font-family="Times,serif" font-size="9.00" fill="#000000">OUTPUT-&gt;INP_STATUS[mavlink_vehicle_status_t]</text>
</g>
<!-- 18 -->
<g id="node12" class="node">
<title>18</title>
<ellipse fill="#ff0000" stroke="#000000" cx="54.654" cy="-22.6274" rx="32.2553" ry="22.7556"/>
<text text-anchor="middle" x="54.654" y="-25.6274" font-family="Times,serif" font-size="10.00" fill="#000000">float</text>
<text text-anchor="middle" x="54.654" y="-13.6274" font-family="Times,serif" font-size="10.00" fill="#000000">INPUT</text>
</g>
<!-- 18&#45;&gt;0 -->
<g id="edge10" class="edge">
<title>18-&gt;0</title>
<path fill="none" stroke="#000000" d="M86.9137,-22.6274C146.6283,-22.6274 274.7154,-22.6274 345.2384,-22.6274"/>
<polygon fill="#000000" stroke="#000000" points="351.463,-22.6274 345.4631,-25.3275 348.463,-22.6275 345.463,-22.6275 345.463,-22.6275 345.463,-22.6275 348.463,-22.6275 345.463,-19.9275 351.463,-22.6274 351.463,-22.6274"/>
<text text-anchor="middle" x="215.3162" y="-25.3274" font-family="Times,serif" font-size="9.00" fill="#000000">INPUT-&gt;[float]</text>
</g>
<!-- 19 -->
<g id="node13" class="node">
<title>19</title>
<ellipse fill="#ff0000" stroke="#000000" cx="394.3042" cy="-328.6274" rx="72.9596" ry="22.7556"/>
<text text-anchor="middle" x="394.3042" y="-331.6274" font-family="Times,serif" font-size="10.00" fill="#000000">Vector3D&lt;float&gt;</text>
<text text-anchor="middle" x="394.3042" y="-319.6274" font-family="Times,serif" font-size="10.00" fill="#000000">BODY_RATE_CMD</text>
</g>
<!-- 19&#45;&gt;1 -->
<g id="edge11" class="edge">
<title>19-&gt;1</title>
<path fill="none" stroke="#000000" d="M443.2049,-311.6827C503.0519,-290.5281 607.1261,-252.3858 693.8292,-213.6274 702.7865,-209.6233 712.2016,-205.0696 721.2013,-200.5398"/>
<polygon fill="#000000" stroke="#000000" points="726.7435,-197.7275 722.6147,-202.8504 724.0682,-199.085 721.3929,-200.4426 721.3929,-200.4426 721.3929,-200.4426 724.0682,-199.085 720.1711,-198.0348 726.7435,-197.7275 726.7435,-197.7275"/>
<text text-anchor="middle" x="584.5566" y="-301.3274" font-family="Times,serif" font-size="9.00" fill="#000000">BODY_RATE_CMD-&gt;[Vector3D&lt;float&gt;]</text>
</g>
<!-- 20 -->
<g id="node14" class="node">
<title>20</title>
<ellipse fill="#ff0000" stroke="#000000" cx="394.3042" cy="-175.6274" rx="66.1114" ry="22.7556"/>
<text text-anchor="middle" x="394.3042" y="-178.6274" font-family="Times,serif" font-size="10.00" fill="#000000">float</text>
<text text-anchor="middle" x="394.3042" y="-166.6274" font-family="Times,serif" font-size="10.00" fill="#000000">FORWARD_CMD</text>
</g>
<!-- 20&#45;&gt;1 -->
<g id="edge12" class="edge">
<title>20-&gt;1</title>
<path fill="none" stroke="#000000" d="M460.6601,-175.6274C528.7383,-175.6274 634.0245,-175.6274 701.9456,-175.6274"/>
<polygon fill="#000000" stroke="#000000" points="707.9912,-175.6274 701.9913,-178.3275 704.9912,-175.6275 701.9912,-175.6275 701.9912,-175.6275 701.9912,-175.6275 704.9912,-175.6275 701.9912,-172.9275 707.9912,-175.6274 707.9912,-175.6274"/>
<text text-anchor="middle" x="584.5566" y="-178.3274" font-family="Times,serif" font-size="9.00" fill="#000000">FORWARD_CMD-&gt;[float]</text>
</g>
</g>
</svg>