<?xml version="1.0" encoding="UTF-8" standalone="no"?>
<!DOCTYPE svg PUBLIC "-//W3C//DTD SVG 1.1//EN" "http://www.w3.org/Graphics/SVG/1.1/DTD/svg11.dtd">
<!-- Generated by graphviz version 2.40.1 (20161225.0304)
 -->
<!-- Title: G Pages: 1 -->
<svg width="835pt" height="434pt" viewBox="14.40 14.40 820.62 419.65" xmlns="http://www.w3.org/2000/svg" xmlns:xlink="http://www.w3.org/1999/xlink">
<g id="graph0" class="graph" transform="scale(1 1) rotate(0) translate(18.4 415.6548)">
<title>G</title>
<polygon fill="#ffffff" stroke="transparent" points="-4,4 -4,-401.2548 802.2176,-401.2548 802.2176,4 -4,4"/>
<text text-anchor="middle" x="399.1088" y="-357.2548" font-family="Times,serif" font-size="40.00" fill="#000000">pitch</text>
<!-- 0 -->
<g id="node1" class="node">
<title>0</title>
<polygon fill="none" stroke="#000000" points="253.8979,-92.6274 173.447,-92.6274 173.447,-48.6274 253.8979,-48.6274 253.8979,-92.6274"/>
<text text-anchor="middle" x="213.6724" y="-79.6274" font-family="Times,serif" font-size="10.00" fill="#000000">PID_Block</text>
<text text-anchor="middle" x="213.6724" y="-67.6274" font-family="Times,serif" font-size="10.00" fill="#000000">Pid</text>
<text text-anchor="middle" x="213.6724" y="-55.6274" font-family="Times,serif" font-size="10.00" fill="#000000">Syn:8, Asyn: 10</text>
</g>
<!-- 2 -->
<g id="node2" class="node">
<title>2</title>
<polygon fill="none" stroke="#000000" points="451.8854,-140.6274 374.7053,-140.6274 374.7053,-96.6274 451.8854,-96.6274 451.8854,-140.6274"/>
<text text-anchor="middle" x="413.2953" y="-127.6274" font-family="Times,serif" font-size="10.00" fill="#000000">InvertedSwitch</text>
<text text-anchor="middle" x="413.2953" y="-115.6274" font-family="Times,serif" font-size="10.00" fill="#000000">Mrft_Sw</text>
<text text-anchor="middle" x="413.2953" y="-103.6274" font-family="Times,serif" font-size="10.00" fill="#000000">Syn:9, Asyn: 8</text>
</g>
<!-- 0&#45;&gt;2 -->
<g id="edge1" class="edge">
<title>0-&gt;2</title>
<path fill="none" stroke="#000000" d="M253.9505,-63.1243C282.9599,-59.4386 322.5558,-57.9941 355.0886,-69.8274 367.8686,-74.4759 379.7976,-83.2982 389.4874,-92.1774"/>
<polygon fill="#000000" stroke="#000000" points="394.0582,-96.5227 387.8493,-94.3455 391.8839,-94.4557 389.7096,-92.3887 389.7096,-92.3887 389.7096,-92.3887 391.8839,-94.4557 391.57,-90.4318 394.0582,-96.5227 394.0582,-96.5227"/>
<text text-anchor="middle" x="308.5618" y="-73.3274" font-family="Times,serif" font-size="9.00" fill="#000000">COMMAND-&gt;NC[float]</text>
</g>
<!-- 3 -->
<g id="node4" class="node">
<title>3</title>
<polygon fill="none" stroke="#000000" points="637.6376,-140.6274 557.1867,-140.6274 557.1867,-96.6274 637.6376,-96.6274 637.6376,-140.6274"/>
<text text-anchor="middle" x="597.4121" y="-127.6274" font-family="Times,serif" font-size="10.00" fill="#000000">Calibration</text>
<text text-anchor="middle" x="597.4121" y="-115.6274" font-family="Times,serif" font-size="10.00" fill="#000000">Evaluate_Bias</text>
<text text-anchor="middle" x="597.4121" y="-103.6274" font-family="Times,serif" font-size="10.00" fill="#000000">Syn:10, Asyn: 7</text>
</g>
<!-- 2&#45;&gt;3 -->
<g id="edge3" class="edge">
<title>2-&gt;3</title>
<path fill="none" stroke="#000000" d="M451.8923,-118.6274C480.6381,-118.6274 520.0269,-118.6274 550.5759,-118.6274"/>
<polygon fill="#000000" stroke="#000000" points="556.9536,-118.6274 550.9536,-121.3275 553.9536,-118.6275 550.9536,-118.6275 550.9536,-118.6275 550.9536,-118.6275 553.9536,-118.6275 550.9535,-115.9275 556.9536,-118.6274 556.9536,-118.6274"/>
<text text-anchor="middle" x="510.2758" y="-121.3274" font-family="Times,serif" font-size="9.00" fill="#000000">COM-&gt;INPUT[float]</text>
</g>
<!-- 1 -->
<g id="node3" class="node">
<title>1</title>
<polygon fill="none" stroke="#000000" points="251.3979,-292.6274 175.9469,-292.6274 175.9469,-248.6274 251.3979,-248.6274 251.3979,-292.6274"/>
<text text-anchor="middle" x="213.6724" y="-279.6274" font-family="Times,serif" font-size="10.00" fill="#000000">MRFT_Block</text>
<text text-anchor="middle" x="213.6724" y="-267.6274" font-family="Times,serif" font-size="10.00" fill="#000000">Mrft</text>
<text text-anchor="middle" x="213.6724" y="-255.6274" font-family="Times,serif" font-size="10.00" fill="#000000">Syn:7, Asyn: 9</text>
</g>
<!-- 1&#45;&gt;2 -->
<g id="edge2" class="edge">
<title>1-&gt;2</title>
<path fill="none" stroke="#000000" d="M242.6993,-248.5253C278.9202,-220.9454 340.7641,-173.8553 379.2021,-144.5873"/>
<polygon fill="#000000" stroke="#000000" points="384.2334,-140.7562 381.0954,-146.5392 381.8466,-142.5736 379.4597,-144.3911 379.4597,-144.3911 379.4597,-144.3911 381.8466,-142.5736 377.824,-142.2429 384.2334,-140.7562 384.2334,-140.7562"/>
<text text-anchor="middle" x="308.5618" y="-232.3274" font-family="Times,serif" font-size="9.00" fill="#000000">MRFT_CMD-&gt;NO[float]</text>
</g>
<!-- 14 -->
<g id="node8" class="node">
<title>14</title>
<ellipse fill="#00ff00" stroke="#000000" cx="413.2953" cy="-318.6274" rx="50.4143" ry="22.7556"/>
<text text-anchor="middle" x="413.2953" y="-321.6274" font-family="Times,serif" font-size="10.00" fill="#000000">float</text>
<text text-anchor="middle" x="413.2953" y="-309.6274" font-family="Times,serif" font-size="10.00" fill="#000000">MRFT_CMD</text>
</g>
<!-- 1&#45;&gt;14 -->
<g id="edge8" class="edge">
<title>1-&gt;14</title>
<path fill="none" stroke="#000000" d="M251.6899,-279.7688C283.236,-287.3542 328.3596,-298.2043 362.912,-306.5126"/>
<polygon fill="#000000" stroke="#000000" points="368.7979,-307.9278 362.3329,-309.1502 365.881,-307.2264 362.9641,-306.525 362.9641,-306.525 362.9641,-306.525 365.881,-307.2264 363.5954,-303.8999 368.7979,-307.9278 368.7979,-307.9278"/>
<text text-anchor="middle" x="308.5618" y="-306.3274" font-family="Times,serif" font-size="9.00" fill="#000000">-&gt;MRFT_CMD[float]</text>
</g>
<!-- 13 -->
<g id="node7" class="node">
<title>13</title>
<ellipse fill="#00ff00" stroke="#000000" cx="759.0198" cy="-118.6274" rx="39.3965" ry="22.7556"/>
<text text-anchor="middle" x="759.0198" y="-121.6274" font-family="Times,serif" font-size="10.00" fill="#000000">float</text>
<text text-anchor="middle" x="759.0198" y="-109.6274" font-family="Times,serif" font-size="10.00" fill="#000000">OUTPUT</text>
</g>
<!-- 3&#45;&gt;13 -->
<g id="edge7" class="edge">
<title>3-&gt;13</title>
<path fill="none" stroke="#000000" d="M637.7757,-118.6274C660.7758,-118.6274 689.6656,-118.6274 713.4749,-118.6274"/>
<polygon fill="#000000" stroke="#000000" points="719.7283,-118.6274 713.7283,-121.3275 716.7283,-118.6275 713.7283,-118.6275 713.7283,-118.6275 713.7283,-118.6275 716.7283,-118.6275 713.7282,-115.9275 719.7283,-118.6274 719.7283,-118.6274"/>
<text text-anchor="middle" x="678.7983" y="-121.3274" font-family="Times,serif" font-size="9.00" fill="#000000">-&gt;OUTPUT[float]</text>
</g>
<!-- 11 -->
<g id="node5" class="node">
<title>11</title>
<ellipse fill="#ff0000" stroke="#000000" cx="43.1293" cy="-22.6274" rx="43.2589" ry="22.7556"/>
<text text-anchor="middle" x="43.1293" y="-25.6274" font-family="Times,serif" font-size="10.00" fill="#000000">float</text>
<text text-anchor="middle" x="43.1293" y="-13.6274" font-family="Times,serif" font-size="10.00" fill="#000000">ERR_DOT</text>
</g>
<!-- 11&#45;&gt;0 -->
<g id="edge4" class="edge">
<title>11-&gt;0</title>
<path fill="none" stroke="#000000" d="M83.7267,-14.5941C108.2684,-11.5956 139.661,-11.1356 165.3099,-21.8274 176.4572,-26.4742 186.352,-35.0789 194.2413,-43.7839"/>
<polygon fill="#000000" stroke="#000000" points="198.4132,-48.6058 192.4455,-45.8349 196.4503,-46.3371 194.4874,-44.0683 194.4874,-44.0683 194.4874,-44.0683 196.4503,-46.3371 196.5293,-42.3017 198.4132,-48.6058 198.4132,-48.6058"/>
<text text-anchor="middle" x="129.7842" y="-25.3274" font-family="Times,serif" font-size="9.00" fill="#000000">ERR_DOT-&gt;[float]</text>
</g>
<!-- 12 -->
<g id="node6" class="node">
<title>12</title>
<ellipse fill="#ff0000" stroke="#000000" cx="43.1293" cy="-222.6274" rx="34.7706" ry="22.7556"/>
<text text-anchor="middle" x="43.1293" y="-225.6274" font-family="Times,serif" font-size="10.00" fill="#000000">float</text>
<text text-anchor="middle" x="43.1293" y="-213.6274" font-family="Times,serif" font-size="10.00" fill="#000000">ERROR</text>
</g>
<!-- 12&#45;&gt;0 -->
<g id="edge5" class="edge">
<title>12-&gt;0</title>
<path fill="none" stroke="#000000" d="M63.7008,-204.2927C93.7997,-177.4664 149.9889,-127.3866 184.39,-96.726"/>
<polygon fill="#000000" stroke="#000000" points="188.8875,-92.7175 186.2048,-98.7253 186.6479,-94.7135 184.4084,-96.7096 184.4084,-96.7096 184.4084,-96.7096 186.6479,-94.7135 182.6119,-94.694 188.8875,-92.7175 188.8875,-92.7175"/>
<text text-anchor="middle" x="129.7842" y="-176.3274" font-family="Times,serif" font-size="9.00" fill="#000000">ERROR-&gt;[float]</text>
</g>
<!-- 12&#45;&gt;1 -->
<g id="edge6" class="edge">
<title>12-&gt;1</title>
<path fill="none" stroke="#000000" d="M75.2071,-231.6558C101.9827,-239.1919 140.409,-250.0071 169.9912,-258.3332"/>
<polygon fill="#000000" stroke="#000000" points="175.7837,-259.9635 169.2765,-260.9369 172.8959,-259.1507 170.0081,-258.3379 170.0081,-258.3379 170.0081,-258.3379 172.8959,-259.1507 170.7396,-255.7388 175.7837,-259.9635 175.7837,-259.9635"/>
<text text-anchor="middle" x="129.7842" y="-258.3274" font-family="Times,serif" font-size="9.00" fill="#000000">INPUT-&gt;[float]</text>
</g>
</g>
</svg>