<?xml version="1.0" encoding="UTF-8" standalone="no"?>
<!DOCTYPE svg PUBLIC "-//W3C//DTD SVG 1.1//EN" "http://www.w3.org/Graphics/SVG/1.1/DTD/svg11.dtd">
<!-- Generated by graphviz version 2.40.1 (20161225.0304)
 -->
<!-- Title: G Pages: 1 -->
<svg width="1956pt" height="1845pt" viewBox="14.40 14.40 1941.61 1830.40" xmlns="http://www.w3.org/2000/svg" xmlns:xlink="http://www.w3.org/1999/xlink">
<g id="graph0" class="graph" transform="scale(1 1) rotate(0) translate(18.4 1826.4)">
<title>G</title>
<polygon fill="#ffffff" stroke="transparent" points="-4,4 -4,-1812 1923.2069,-1812 1923.2069,4 -4,4"/>
<text text-anchor="middle" x="959.6035" y="-1768" font-family="Times,serif" font-size="40.00" fill="#000000">PX4RCtoOrientationThrust</text>
<!-- 0 -->
<g id="node1" class="node">
<title>0</title>
<polygon fill="none" stroke="#000000" points="88.311,-788 .229,-788 .229,-756 88.311,-756 88.311,-750 106.311,-772 88.311,-794 88.311,-788"/>
<text text-anchor="middle" x="53.27" y="-781" font-family="Times,serif" font-size="10.00" fill="#000000">MAVLink_Subscriber</text>
<text text-anchor="middle" x="53.27" y="-769" font-family="Times,serif" font-size="10.00" fill="#000000">mavlink_sub_rc_cmds</text>
<text text-anchor="middle" x="53.27" y="-757" font-family="Times,serif" font-size="10.00" fill="#000000">Syn:0, Asyn: 19</text>
</g>
<!-- 1 -->
<g id="node2" class="node">
<title>1</title>
<polygon fill="none" stroke="#000000" points="489.8308,-794 343.7992,-794 343.7992,-750 489.8308,-750 489.8308,-794"/>
<text text-anchor="middle" x="416.815" y="-781" font-family="Times,serif" font-size="10.00" fill="#000000">DeStructurePX4RCinputMsg</text>
<text text-anchor="middle" x="416.815" y="-769" font-family="Times,serif" font-size="10.00" fill="#000000">px4_destructure_rc_cmds_block</text>
<text text-anchor="middle" x="416.815" y="-757" font-family="Times,serif" font-size="10.00" fill="#000000">Syn:1, Asyn: 18</text>
</g>
<!-- 0&#45;&gt;1 -->
<g id="edge1" class="edge">
<title>0-&gt;1</title>
<path fill="none" stroke="#000000" d="M106.5219,-772C167.3057,-772 267.3445,-772 337.3548,-772"/>
<polygon fill="#000000" stroke="#000000" points="343.6097,-772 337.6098,-774.7001 340.6097,-772 337.6097,-772.0001 337.6097,-772.0001 337.6097,-772.0001 340.6097,-772 337.6097,-769.3001 343.6097,-772 343.6097,-772"/>
<text text-anchor="middle" x="225.0487" y="-774.7" font-family="Times,serif" font-size="9.00" fill="#000000">OUTPUT-&gt;MAVLINK_RC_CMDs[mavlink_rc_channels_t]</text>
</g>
<!-- 2 -->
<g id="node3" class="node">
<title>2</title>
<polygon fill="none" stroke="#000000" points="826.8784,-794 711.0388,-794 711.0388,-750 826.8784,-750 826.8784,-794"/>
<text text-anchor="middle" x="768.9586" y="-781" font-family="Times,serif" font-size="10.00" fill="#000000">MapRCvectorToLoops</text>
<text text-anchor="middle" x="768.9586" y="-769" font-family="Times,serif" font-size="10.00" fill="#000000">map_rc_vector_to_loops</text>
<text text-anchor="middle" x="768.9586" y="-757" font-family="Times,serif" font-size="10.00" fill="#000000">Syn:2, Asyn: 17</text>
</g>
<!-- 1&#45;&gt;2 -->
<g id="edge2" class="edge">
<title>1-&gt;2</title>
<path fill="none" stroke="#000000" d="M490.2072,-772C553.6393,-772 644.4016,-772 704.9349,-772"/>
<polygon fill="#000000" stroke="#000000" points="711.0624,-772 705.0624,-774.7001 708.0624,-772 705.0624,-772.0001 705.0624,-772.0001 705.0624,-772.0001 708.0624,-772 705.0623,-769.3001 711.0624,-772 711.0624,-772"/>
<text text-anchor="middle" x="600.6608" y="-774.7" font-family="Times,serif" font-size="9.00" fill="#000000">CH_OUT_VEC-&gt;INPUT_RC_RAW[std::vector&lt;float&gt;]</text>
</g>
<!-- 3 -->
<g id="node4" class="node">
<title>3</title>
<polygon fill="none" stroke="#000000" points="1124.8358,-1710 1008.9822,-1710 1008.9822,-1666 1124.8358,-1666 1124.8358,-1710"/>
<text text-anchor="middle" x="1066.909" y="-1697" font-family="Times,serif" font-size="10.00" fill="#000000">LinearMapWithClipping</text>
<text text-anchor="middle" x="1066.909" y="-1685" font-family="Times,serif" font-size="10.00" fill="#000000">map_rc_roll</text>
<text text-anchor="middle" x="1066.909" y="-1673" font-family="Times,serif" font-size="10.00" fill="#000000">Syn:16, Asyn: 16</text>
</g>
<!-- 2&#45;&gt;3 -->
<g id="edge3" class="edge">
<title>2-&gt;3</title>
<path fill="none" stroke="#000000" d="M770.0204,-794.2345C775.5885,-908.0967 802.3929,-1422.9854 834.6681,-1486 876.3206,-1567.3229 965.9359,-1630.1258 1020.8633,-1662.8697"/>
<polygon fill="#000000" stroke="#000000" points="1026.0678,-1665.9443 1019.5286,-1665.2171 1023.4848,-1664.4184 1020.9019,-1662.8925 1020.9019,-1662.8925 1020.9019,-1662.8925 1023.4848,-1664.4184 1022.2752,-1660.5678 1026.0678,-1665.9443 1026.0678,-1665.9443"/>
<text text-anchor="middle" x="917.932" y="-1650.7" font-family="Times,serif" font-size="9.00" fill="#000000">OUTPUT_ROLL_SP-&gt;INPUT[float]</text>
</g>
<!-- 5 -->
<g id="node5" class="node">
<title>5</title>
<polygon fill="none" stroke="#000000" points="1248.2618,-1485 1132.4082,-1485 1132.4082,-1441 1248.2618,-1441 1248.2618,-1485"/>
<text text-anchor="middle" x="1190.335" y="-1472" font-family="Times,serif" font-size="10.00" fill="#000000">LinearMapWithClipping</text>
<text text-anchor="middle" x="1190.335" y="-1460" font-family="Times,serif" font-size="10.00" fill="#000000">map_rc_pitch</text>
<text text-anchor="middle" x="1190.335" y="-1448" font-family="Times,serif" font-size="10.00" fill="#000000">Syn:15, Asyn: 14</text>
</g>
<!-- 2&#45;&gt;5 -->
<g id="edge4" class="edge">
<title>2-&gt;5</title>
<path fill="none" stroke="#000000" d="M770.2272,-794.1197C774.9613,-870.9208 793.4798,-1125.1102 834.6681,-1194 906.5407,-1314.2111 1054.4477,-1398.8573 1135.034,-1438.1723"/>
<polygon fill="#000000" stroke="#000000" points="1140.7179,-1440.9245 1134.1409,-1440.7397 1138.0178,-1439.6171 1135.3176,-1438.3096 1135.3176,-1438.3096 1135.3176,-1438.3096 1138.0178,-1439.6171 1136.4944,-1435.8795 1140.7179,-1440.9245 1140.7179,-1440.9245"/>
<text text-anchor="middle" x="917.932" y="-1359.7" font-family="Times,serif" font-size="9.00" fill="#000000">OUTPUT_PITCH_SP-&gt;INPUT[float]</text>
</g>
<!-- 6 -->
<g id="node6" class="node">
<title>6</title>
<polygon fill="none" stroke="#000000" points="1248.2618,-1355 1132.4082,-1355 1132.4082,-1311 1248.2618,-1311 1248.2618,-1355"/>
<text text-anchor="middle" x="1190.335" y="-1342" font-family="Times,serif" font-size="10.00" fill="#000000">LinearMapWithClipping</text>
<text text-anchor="middle" x="1190.335" y="-1330" font-family="Times,serif" font-size="10.00" fill="#000000">map_rc_yaw</text>
<text text-anchor="middle" x="1190.335" y="-1318" font-family="Times,serif" font-size="10.00" fill="#000000">Syn:14, Asyn: 13</text>
</g>
<!-- 2&#45;&gt;6 -->
<g id="edge5" class="edge">
<title>2-&gt;6</title>
<path fill="none" stroke="#000000" d="M774.0975,-794.0656C782.8722,-828.9971 802.9342,-898.3594 834.6681,-950 928.8507,-1103.2633 1090.4491,-1248.831 1158.5735,-1306.7144"/>
<polygon fill="#000000" stroke="#000000" points="1163.3147,-1310.7294 1156.991,-1308.9124 1161.0253,-1308.7907 1158.7359,-1306.8519 1158.7359,-1306.8519 1158.7359,-1306.8519 1161.0253,-1308.7907 1160.4807,-1304.7915 1163.3147,-1310.7294 1163.3147,-1310.7294"/>
<text text-anchor="middle" x="917.932" y="-1158.7" font-family="Times,serif" font-size="9.00" fill="#000000">OUTPUT_YAW_SP-&gt;INPUT[float]</text>
</g>
<!-- 12 -->
<g id="node7" class="node">
<title>12</title>
<polygon fill="none" stroke="#000000" points="1124.8358,-979 1008.9822,-979 1008.9822,-935 1124.8358,-935 1124.8358,-979"/>
<text text-anchor="middle" x="1066.909" y="-966" font-family="Times,serif" font-size="10.00" fill="#000000">LinearMapWithClipping</text>
<text text-anchor="middle" x="1066.909" y="-954" font-family="Times,serif" font-size="10.00" fill="#000000">map_rc_thrust</text>
<text text-anchor="middle" x="1066.909" y="-942" font-family="Times,serif" font-size="10.00" fill="#000000">Syn:12, Asyn: 7</text>
</g>
<!-- 2&#45;&gt;12 -->
<g id="edge6" class="edge">
<title>2-&gt;12</title>
<path fill="none" stroke="#000000" d="M804.6024,-794.1316C860.2297,-828.671 967.3774,-895.1999 1026.0472,-931.6286"/>
<polygon fill="#000000" stroke="#000000" points="1031.2242,-934.843 1024.7026,-933.9718 1028.6755,-933.2605 1026.1268,-931.678 1026.1268,-931.678 1026.1268,-931.678 1028.6755,-933.2605 1027.5511,-929.3841 1031.2242,-934.843 1031.2242,-934.843"/>
<text text-anchor="middle" x="917.932" y="-914.7" font-family="Times,serif" font-size="9.00" fill="#000000">OUTPUT_THR_SP-&gt;INPUT[float]</text>
</g>
<!-- 13 -->
<g id="node8" class="node">
<title>13</title>
<polygon fill="none" stroke="#000000" points="1124.8358,-794 1008.9822,-794 1008.9822,-750 1124.8358,-750 1124.8358,-794"/>
<text text-anchor="middle" x="1066.909" y="-781" font-family="Times,serif" font-size="10.00" fill="#000000">LinearMapWithClipping</text>
<text text-anchor="middle" x="1066.909" y="-769" font-family="Times,serif" font-size="10.00" fill="#000000">map_rc_fwd</text>
<text text-anchor="middle" x="1066.909" y="-757" font-family="Times,serif" font-size="10.00" fill="#000000">Syn:10, Asyn: 6</text>
</g>
<!-- 2&#45;&gt;13 -->
<g id="edge7" class="edge">
<title>2-&gt;13</title>
<path fill="none" stroke="#000000" d="M826.7597,-772C877.253,-772 950.4515,-772 1002.7443,-772"/>
<polygon fill="#000000" stroke="#000000" points="1009.015,-772 1003.015,-774.7001 1006.015,-772 1003.015,-772.0001 1003.015,-772.0001 1003.015,-772.0001 1006.015,-772 1003.0149,-769.3001 1009.015,-772 1009.015,-772"/>
<text text-anchor="middle" x="917.932" y="-774.7" font-family="Times,serif" font-size="9.00" fill="#000000">OUTPUT_FWD_SP-&gt;INPUT[float]</text>
</g>
<!-- 14 -->
<g id="node9" class="node">
<title>14</title>
<polygon fill="none" stroke="#000000" points="1124.8358,-535 1008.9822,-535 1008.9822,-491 1124.8358,-491 1124.8358,-535"/>
<text text-anchor="middle" x="1066.909" y="-522" font-family="Times,serif" font-size="10.00" fill="#000000">LinearMapWithClipping</text>
<text text-anchor="middle" x="1066.909" y="-510" font-family="Times,serif" font-size="10.00" fill="#000000">map_rc_vtol_mode</text>
<text text-anchor="middle" x="1066.909" y="-498" font-family="Times,serif" font-size="10.00" fill="#000000">Syn:8, Asyn: 5</text>
</g>
<!-- 2&#45;&gt;14 -->
<g id="edge8" class="edge">
<title>2-&gt;14</title>
<path fill="none" stroke="#000000" d="M794.3617,-749.9178C849.1137,-702.3234 978.0317,-590.2585 1036.7847,-539.1862"/>
<polygon fill="#000000" stroke="#000000" points="1041.5702,-535.0263 1038.8133,-541.0004 1039.3061,-536.9945 1037.0419,-538.9627 1037.0419,-538.9627 1037.0419,-538.9627 1039.3061,-536.9945 1035.2705,-536.9249 1041.5702,-535.0263 1041.5702,-535.0263"/>
<text text-anchor="middle" x="917.932" y="-711.7" font-family="Times,serif" font-size="9.00" fill="#000000">OUTPUT_VTOL_MODE_SP-&gt;INPUT[float]</text>
</g>
<!-- 8 -->
<g id="node10" class="node">
<title>8</title>
<polygon fill="none" stroke="#000000" points="1124.8358,-378 1008.9822,-378 1008.9822,-334 1124.8358,-334 1124.8358,-378"/>
<text text-anchor="middle" x="1066.909" y="-365" font-family="Times,serif" font-size="10.00" fill="#000000">LinearMapWithClipping</text>
<text text-anchor="middle" x="1066.909" y="-353" font-family="Times,serif" font-size="10.00" fill="#000000">map_rc_roll_rate</text>
<text text-anchor="middle" x="1066.909" y="-341" font-family="Times,serif" font-size="10.00" fill="#000000">Syn:5, Asyn: 11</text>
</g>
<!-- 2&#45;&gt;8 -->
<g id="edge9" class="edge">
<title>2-&gt;8</title>
<path fill="none" stroke="#000000" d="M770.576,-749.6986C774.7111,-705.595 788.8241,-605.5877 834.6681,-537.2 882.0201,-466.5628 965.8465,-411.2378 1018.7827,-381.1368"/>
<polygon fill="#000000" stroke="#000000" points="1024.1247,-378.1252 1020.2241,-383.4238 1021.5114,-379.5985 1018.8981,-381.0718 1018.8981,-381.0718 1018.8981,-381.0718 1021.5114,-379.5985 1017.5721,-378.7198 1024.1247,-378.1252 1024.1247,-378.1252"/>
<text text-anchor="middle" x="917.932" y="-539.7" font-family="Times,serif" font-size="9.00" fill="#000000">OUTPUT_ROLL_SP-&gt;INPUT[float]</text>
</g>
<!-- 9 -->
<g id="node11" class="node">
<title>9</title>
<polygon fill="none" stroke="#000000" points="1124.8358,-216 1008.9822,-216 1008.9822,-172 1124.8358,-172 1124.8358,-216"/>
<text text-anchor="middle" x="1066.909" y="-203" font-family="Times,serif" font-size="10.00" fill="#000000">LinearMapWithClipping</text>
<text text-anchor="middle" x="1066.909" y="-191" font-family="Times,serif" font-size="10.00" fill="#000000">map_rc_pitch_rate</text>
<text text-anchor="middle" x="1066.909" y="-179" font-family="Times,serif" font-size="10.00" fill="#000000">Syn:4, Asyn: 10</text>
</g>
<!-- 2&#45;&gt;9 -->
<g id="edge10" class="edge">
<title>2-&gt;9</title>
<path fill="none" stroke="#000000" d="M770.1332,-749.9778C774.555,-673.5258 792.1631,-420.5838 834.6681,-353.2 875.1997,-288.9446 952.111,-244.033 1006.2934,-218.6598"/>
<polygon fill="#000000" stroke="#000000" points="1011.7931,-216.1147 1007.4818,-221.085 1009.0705,-217.3747 1006.3479,-218.6346 1006.3479,-218.6346 1006.3479,-218.6346 1009.0705,-217.3747 1005.2139,-216.1843 1011.7931,-216.1147 1011.7931,-216.1147"/>
<text text-anchor="middle" x="917.932" y="-355.7" font-family="Times,serif" font-size="9.00" fill="#000000">OUTPUT_PITCH_SP-&gt;INPUT[float]</text>
</g>
<!-- 10 -->
<g id="node12" class="node">
<title>10</title>
<polygon fill="none" stroke="#000000" points="1124.8358,-44 1008.9822,-44 1008.9822,0 1124.8358,0 1124.8358,-44"/>
<text text-anchor="middle" x="1066.909" y="-31" font-family="Times,serif" font-size="10.00" fill="#000000">LinearMapWithClipping</text>
<text text-anchor="middle" x="1066.909" y="-19" font-family="Times,serif" font-size="10.00" fill="#000000">map_rc_yaw_rate</text>
<text text-anchor="middle" x="1066.909" y="-7" font-family="Times,serif" font-size="10.00" fill="#000000">Syn:3, Asyn: 9</text>
</g>
<!-- 2&#45;&gt;10 -->
<g id="edge11" class="edge">
<title>2-&gt;10</title>
<path fill="none" stroke="#000000" d="M770.361,-749.7416C776.8884,-648.4378 805.2241,-233.7424 834.6681,-184.2 873.8991,-118.19 951.6673,-72.3633 1006.3703,-46.6551"/>
<polygon fill="#000000" stroke="#000000" points="1011.9223,-44.0776 1007.6171,-49.0531 1009.2012,-45.3409 1006.4801,-46.6042 1006.4801,-46.6042 1006.4801,-46.6042 1009.2012,-45.3409 1005.3432,-44.1552 1011.9223,-44.0776 1011.9223,-44.0776"/>
<text text-anchor="middle" x="917.932" y="-186.7" font-family="Times,serif" font-size="9.00" fill="#000000">OUTPUT_YAW_SP-&gt;INPUT[float]</text>
</g>
<!-- 4 -->
<g id="node13" class="node">
<title>4</title>
<polygon fill="none" stroke="#000000" points="1355.9344,-1752 1270.4836,-1752 1270.4836,-1708 1355.9344,-1708 1355.9344,-1752"/>
<text text-anchor="middle" x="1313.209" y="-1739" font-family="Times,serif" font-size="10.00" fill="#000000">Gain</text>
<text text-anchor="middle" x="1313.209" y="-1727" font-family="Times,serif" font-size="10.00" fill="#000000">negate_roll_sp</text>
<text text-anchor="middle" x="1313.209" y="-1715" font-family="Times,serif" font-size="10.00" fill="#000000">Syn:17, Asyn: 15</text>
</g>
<!-- 3&#45;&gt;4 -->
<g id="edge12" class="edge">
<title>3-&gt;4</title>
<path fill="none" stroke="#000000" d="M1124.6554,-1697.8471C1167.0344,-1705.0738 1223.9705,-1714.7827 1264.1536,-1721.6349"/>
<polygon fill="#000000" stroke="#000000" points="1270.4541,-1722.7093 1264.0856,-1724.3622 1267.4968,-1722.2049 1264.5395,-1721.7006 1264.5395,-1721.7006 1264.5395,-1721.7006 1267.4968,-1722.2049 1264.9934,-1719.039 1270.4541,-1722.7093 1270.4541,-1722.7093"/>
<text text-anchor="middle" x="1190.335" y="-1720.7" font-family="Times,serif" font-size="9.00" fill="#000000">OUTPUT-&gt;INPUT[float]</text>
</g>
<!-- 7 -->
<g id="node14" class="node">
<title>7</title>
<polygon fill="none" stroke="#000000" points="1627.39,-1597 1541.9391,-1597 1541.9391,-1553 1627.39,-1553 1627.39,-1597"/>
<text text-anchor="middle" x="1584.6646" y="-1584" font-family="Times,serif" font-size="10.00" fill="#000000">Mux3</text>
<text text-anchor="middle" x="1584.6646" y="-1572" font-family="Times,serif" font-size="10.00" fill="#000000">mux_ori_des</text>
<text text-anchor="middle" x="1584.6646" y="-1560" font-family="Times,serif" font-size="10.00" fill="#000000">Syn:18, Asyn: 12</text>
</g>
<!-- 5&#45;&gt;7 -->
<g id="edge14" class="edge">
<title>5-&gt;7</title>
<path fill="none" stroke="#000000" d="M1248.0962,-1479.4057C1325.9159,-1501.5086 1463.0554,-1540.4598 1535.9382,-1561.1604"/>
<polygon fill="#000000" stroke="#000000" points="1541.9298,-1562.8622 1535.4204,-1563.8201 1539.044,-1562.0425 1536.1581,-1561.2228 1536.1581,-1561.2228 1536.1581,-1561.2228 1539.044,-1562.0425 1536.8958,-1558.6255 1541.9298,-1562.8622 1541.9298,-1562.8622"/>
<text text-anchor="middle" x="1313.209" y="-1513.7" font-family="Times,serif" font-size="9.00" fill="#000000">OUTPUT-&gt;Y[float]</text>
</g>
<!-- 6&#45;&gt;7 -->
<g id="edge15" class="edge">
<title>6-&gt;7</title>
<path fill="none" stroke="#000000" d="M1248.1036,-1351.5583C1316.987,-1375.6248 1433.2455,-1422.537 1516.5407,-1489 1537.2265,-1505.5056 1555.5248,-1529.4265 1567.9341,-1547.8521"/>
<polygon fill="#000000" stroke="#000000" points="1571.2751,-1552.8926 1565.7096,-1549.3831 1569.6176,-1550.392 1567.9601,-1547.8914 1567.9601,-1547.8914 1567.9601,-1547.8914 1569.6176,-1550.392 1570.2107,-1546.3997 1571.2751,-1552.8926 1571.2751,-1552.8926"/>
<text text-anchor="middle" x="1313.209" y="-1401.7" font-family="Times,serif" font-size="9.00" fill="#000000">OUTPUT-&gt;Z[float]</text>
</g>
<!-- 17 -->
<g id="node18" class="node">
<title>17</title>
<polygon fill="none" stroke="#000000" points="1361.207,-1126 1283.211,-1126 1283.211,-1132 1265.211,-1110 1283.211,-1088 1283.211,-1094 1361.207,-1094 1361.207,-1126"/>
<text text-anchor="middle" x="1313.209" y="-1119" font-family="Times,serif" font-size="10.00" fill="#000000">ROSUnit_Publisher</text>
<text text-anchor="middle" x="1313.209" y="-1107" font-family="Times,serif" font-size="10.00" fill="#000000">ros_pub_thrust</text>
<text text-anchor="middle" x="1313.209" y="-1095" font-family="Times,serif" font-size="10.00" fill="#000000">Syn:13, Asyn: 2</text>
</g>
<!-- 12&#45;&gt;17 -->
<g id="edge21" class="edge">
<title>12-&gt;17</title>
<path fill="none" stroke="#000000" d="M1102.4601,-979.0841C1147.4847,-1007.0531 1224.8991,-1055.1424 1272.3228,-1084.6018"/>
<polygon fill="#000000" stroke="#000000" points="1277.6687,-1087.9226 1271.1472,-1087.05 1275.1203,-1086.3395 1272.572,-1084.7565 1272.572,-1084.7565 1272.572,-1084.7565 1275.1203,-1086.3395 1273.9967,-1082.463 1277.6687,-1087.9226 1277.6687,-1087.9226"/>
<text text-anchor="middle" x="1190.335" y="-1070.7" font-family="Times,serif" font-size="9.00" fill="#000000">OUTPUT-&gt;INPUT[float]</text>
</g>
<!-- 22 -->
<g id="node23" class="node">
<title>22</title>
<ellipse fill="#00ff00" stroke="#000000" cx="1313.209" cy="-957" rx="39.3965" ry="22.7556"/>
<text text-anchor="middle" x="1313.209" y="-960" font-family="Times,serif" font-size="10.00" fill="#000000">float</text>
<text text-anchor="middle" x="1313.209" y="-948" font-family="Times,serif" font-size="10.00" fill="#000000">OUTPUT</text>
</g>
<!-- 12&#45;&gt;22 -->
<g id="edge26" class="edge">
<title>12-&gt;22</title>
<path fill="none" stroke="#000000" d="M1124.6554,-957C1168.2491,-957 1227.2463,-957 1267.5668,-957"/>
<polygon fill="#000000" stroke="#000000" points="1273.8724,-957 1267.8724,-959.7001 1270.8724,-957 1267.8724,-957.0001 1267.8724,-957.0001 1267.8724,-957.0001 1270.8724,-957 1267.8724,-954.3001 1273.8724,-957 1273.8724,-957"/>
<text text-anchor="middle" x="1190.335" y="-959.7" font-family="Times,serif" font-size="9.00" fill="#000000">-&gt;OUTPUT[float]</text>
</g>
<!-- 18 -->
<g id="node19" class="node">
<title>18</title>
<polygon fill="none" stroke="#000000" points="1361.207,-820 1283.211,-820 1283.211,-826 1265.211,-804 1283.211,-782 1283.211,-788 1361.207,-788 1361.207,-820"/>
<text text-anchor="middle" x="1313.209" y="-813" font-family="Times,serif" font-size="10.00" fill="#000000">ROSUnit_Publisher</text>
<text text-anchor="middle" x="1313.209" y="-801" font-family="Times,serif" font-size="10.00" fill="#000000">ros_pub_fwd_cmd</text>
<text text-anchor="middle" x="1313.209" y="-789" font-family="Times,serif" font-size="10.00" fill="#000000">Syn:11, Asyn: 1</text>
</g>
<!-- 13&#45;&gt;18 -->
<g id="edge22" class="edge">
<title>13-&gt;18</title>
<path fill="none" stroke="#000000" d="M1124.6554,-779.5026C1165.1449,-784.7631 1218.9223,-791.75 1258.6816,-796.9156"/>
<polygon fill="#000000" stroke="#000000" points="1264.9382,-797.7285 1258.6403,-799.6329 1261.9632,-797.342 1258.9882,-796.9554 1258.9882,-796.9554 1258.9882,-796.9554 1261.9632,-797.342 1259.3361,-794.2779 1264.9382,-797.7285 1264.9382,-797.7285"/>
<text text-anchor="middle" x="1190.335" y="-797.7" font-family="Times,serif" font-size="9.00" fill="#000000">OUTPUT-&gt;INPUT[float]</text>
</g>
<!-- 23 -->
<g id="node24" class="node">
<title>23</title>
<ellipse fill="#00ff00" stroke="#000000" cx="1313.209" cy="-651" rx="39.3965" ry="22.7556"/>
<text text-anchor="middle" x="1313.209" y="-654" font-family="Times,serif" font-size="10.00" fill="#000000">float</text>
<text text-anchor="middle" x="1313.209" y="-642" font-family="Times,serif" font-size="10.00" fill="#000000">OUTPUT</text>
</g>
<!-- 13&#45;&gt;23 -->
<g id="edge27" class="edge">
<title>13-&gt;23</title>
<path fill="none" stroke="#000000" d="M1111.7978,-749.9474C1159.567,-726.4799 1234.1608,-689.8341 1277.9065,-668.3431"/>
<polygon fill="#000000" stroke="#000000" points="1283.3457,-665.671 1279.151,-670.74 1280.6531,-666.9938 1277.9604,-668.3166 1277.9604,-668.3166 1277.9604,-668.3166 1280.6531,-666.9938 1276.7699,-665.8933 1283.3457,-665.671 1283.3457,-665.671"/>
<text text-anchor="middle" x="1190.335" y="-741.7" font-family="Times,serif" font-size="9.00" fill="#000000">-&gt;OUTPUT[float]</text>
</g>
<!-- 19 -->
<g id="node20" class="node">
<title>19</title>
<polygon fill="none" stroke="#000000" points="1370.5315,-514 1273.8865,-514 1273.8865,-520 1255.8865,-498 1273.8865,-476 1273.8865,-482 1370.5315,-482 1370.5315,-514"/>
<text text-anchor="middle" x="1313.209" y="-507" font-family="Times,serif" font-size="10.00" fill="#000000">ROSUnit_Publisher</text>
<text text-anchor="middle" x="1313.209" y="-495" font-family="Times,serif" font-size="10.00" fill="#000000">ros_pub_vtol_mode_des</text>
<text text-anchor="middle" x="1313.209" y="-483" font-family="Times,serif" font-size="10.00" fill="#000000">Syn:9, Asyn: 0</text>
</g>
<!-- 14&#45;&gt;19 -->
<g id="edge23" class="edge">
<title>14-&gt;19</title>
<path fill="none" stroke="#000000" d="M1124.6554,-509.4832C1162.1757,-507.1981 1211.1064,-504.2182 1249.7192,-501.8666"/>
<polygon fill="#000000" stroke="#000000" points="1255.8244,-501.4948 1249.9997,-504.5546 1252.8299,-501.6772 1249.8355,-501.8596 1249.8355,-501.8596 1249.8355,-501.8596 1252.8299,-501.6772 1249.6713,-499.1646 1255.8244,-501.4948 1255.8244,-501.4948"/>
<text text-anchor="middle" x="1190.335" y="-510.7" font-family="Times,serif" font-size="9.00" fill="#000000">OUTPUT-&gt;INPUT[float]</text>
</g>
<!-- 24 -->
<g id="node25" class="node">
<title>24</title>
<ellipse fill="#00ff00" stroke="#000000" cx="1313.209" cy="-345" rx="39.3965" ry="22.7556"/>
<text text-anchor="middle" x="1313.209" y="-348" font-family="Times,serif" font-size="10.00" fill="#000000">float</text>
<text text-anchor="middle" x="1313.209" y="-336" font-family="Times,serif" font-size="10.00" fill="#000000">OUTPUT</text>
</g>
<!-- 14&#45;&gt;24 -->
<g id="edge28" class="edge">
<title>14-&gt;24</title>
<path fill="none" stroke="#000000" d="M1096.0966,-490.786C1107.4032,-482.3233 1120.5179,-472.6795 1132.622,-464.2 1183.941,-428.2487 1245.0486,-388.543 1281.4034,-365.2373"/>
<polygon fill="#000000" stroke="#000000" points="1286.5835,-361.9201 1282.9867,-367.4296 1284.0571,-363.538 1281.5307,-365.1558 1281.5307,-365.1558 1281.5307,-365.1558 1284.0571,-363.538 1280.0746,-362.882 1286.5835,-361.9201 1286.5835,-361.9201"/>
<text text-anchor="middle" x="1190.335" y="-466.7" font-family="Times,serif" font-size="9.00" fill="#000000">-&gt;OUTPUT[float]</text>
</g>
<!-- 11 -->
<g id="node15" class="node">
<title>11</title>
<polygon fill="none" stroke="#000000" points="1357.4102,-163 1269.0078,-163 1269.0078,-119 1357.4102,-119 1357.4102,-163"/>
<text text-anchor="middle" x="1313.209" y="-150" font-family="Times,serif" font-size="10.00" fill="#000000">Mux3</text>
<text text-anchor="middle" x="1313.209" y="-138" font-family="Times,serif" font-size="10.00" fill="#000000">mux_ori_rate_des</text>
<text text-anchor="middle" x="1313.209" y="-126" font-family="Times,serif" font-size="10.00" fill="#000000">Syn:6, Asyn: 8</text>
</g>
<!-- 8&#45;&gt;11 -->
<g id="edge16" class="edge">
<title>8-&gt;11</title>
<path fill="none" stroke="#000000" d="M1092.3397,-333.801C1138.1808,-293.7854 1234.439,-209.7598 1283.3358,-167.0769"/>
<polygon fill="#000000" stroke="#000000" points="1287.9166,-163.0782 1285.172,-169.058 1285.6565,-165.0511 1283.3965,-167.024 1283.3965,-167.024 1283.3965,-167.024 1285.6565,-165.0511 1281.6209,-164.9899 1287.9166,-163.0782 1287.9166,-163.0782"/>
<text text-anchor="middle" x="1190.335" y="-300.7" font-family="Times,serif" font-size="9.00" fill="#000000">OUTPUT-&gt;X[float]</text>
</g>
<!-- 9&#45;&gt;11 -->
<g id="edge17" class="edge">
<title>9-&gt;11</title>
<path fill="none" stroke="#000000" d="M1086.4356,-171.8607C1098.4205,-159.9976 1114.8488,-146.5476 1132.622,-140.2 1174.4885,-125.2477 1225.3797,-127.1048 1262.4534,-131.7374"/>
<polygon fill="#000000" stroke="#000000" points="1268.7446,-132.5666 1262.4432,-134.4593 1265.7703,-132.1745 1262.796,-131.7825 1262.796,-131.7825 1262.796,-131.7825 1265.7703,-132.1745 1263.1489,-129.1056 1268.7446,-132.5666 1268.7446,-132.5666"/>
<text text-anchor="middle" x="1190.335" y="-143.7" font-family="Times,serif" font-size="9.00" fill="#000000">OUTPUT-&gt;Y[float]</text>
</g>
<!-- 10&#45;&gt;11 -->
<g id="edge18" class="edge">
<title>10-&gt;11</title>
<path fill="none" stroke="#000000" d="M1124.6822,-39.3342C1161.224,-51.4316 1208.7975,-69.3097 1248.048,-91.2 1260.1256,-97.9357 1272.4181,-106.7287 1283.024,-115.0483"/>
<polygon fill="#000000" stroke="#000000" points="1287.7715,-118.8285 1281.3958,-117.2033 1285.4246,-116.9598 1283.0777,-115.091 1283.0777,-115.091 1283.0777,-115.091 1285.4246,-116.9598 1284.7595,-112.9788 1287.7715,-118.8285 1287.7715,-118.8285"/>
<text text-anchor="middle" x="1190.335" y="-94.7" font-family="Times,serif" font-size="9.00" fill="#000000">OUTPUT-&gt;Z[float]</text>
</g>
<!-- 4&#45;&gt;7 -->
<g id="edge13" class="edge">
<title>4-&gt;7</title>
<path fill="none" stroke="#000000" d="M1356.0348,-1712.6534C1398.2896,-1694.7417 1464.0021,-1664.7177 1516.5407,-1631 1530.1907,-1622.2398 1544.2094,-1611.1402 1555.9541,-1601.1374"/>
<polygon fill="#000000" stroke="#000000" points="1560.5048,-1597.22 1557.719,-1603.1807 1558.2312,-1599.1772 1555.9575,-1601.1344 1555.9575,-1601.1344 1555.9575,-1601.1344 1558.2312,-1599.1772 1554.196,-1599.0881 1560.5048,-1597.22 1560.5048,-1597.22"/>
<text text-anchor="middle" x="1447.4553" y="-1704.7" font-family="Times,serif" font-size="9.00" fill="#000000">OUTPUT-&gt;X[float]</text>
</g>
<!-- 15 -->
<g id="node16" class="node">
<title>15</title>
<polygon fill="none" stroke="#000000" points="1907.081,-1667 1829.085,-1667 1829.085,-1673 1811.085,-1651 1829.085,-1629 1829.085,-1635 1907.081,-1635 1907.081,-1667"/>
<text text-anchor="middle" x="1859.083" y="-1660" font-family="Times,serif" font-size="10.00" fill="#000000">ROSUnit_Publisher</text>
<text text-anchor="middle" x="1859.083" y="-1648" font-family="Times,serif" font-size="10.00" fill="#000000">ros_pub_ori_des</text>
<text text-anchor="middle" x="1859.083" y="-1636" font-family="Times,serif" font-size="10.00" fill="#000000">Syn:19, Asyn: 4</text>
</g>
<!-- 7&#45;&gt;15 -->
<g id="edge19" class="edge">
<title>7-&gt;15</title>
<path fill="none" stroke="#000000" d="M1627.5425,-1586.875C1675.4415,-1600.1406 1753.0673,-1621.639 1805.0734,-1636.0421"/>
<polygon fill="#000000" stroke="#000000" points="1810.969,-1637.6748 1804.4659,-1638.6754 1808.0778,-1636.8741 1805.1866,-1636.0734 1805.1866,-1636.0734 1805.1866,-1636.0734 1808.0778,-1636.8741 1805.9073,-1633.4713 1810.969,-1637.6748 1810.969,-1637.6748"/>
<text text-anchor="middle" x="1721.8738" y="-1632.7" font-family="Times,serif" font-size="9.00" fill="#000000">OUTPUT-&gt;INPUT[Vector3D&lt;float&gt;]</text>
</g>
<!-- 20 -->
<g id="node21" class="node">
<title>20</title>
<ellipse fill="#00ff00" stroke="#000000" cx="1859.083" cy="-1498" rx="60.248" ry="22.7556"/>
<text text-anchor="middle" x="1859.083" y="-1501" font-family="Times,serif" font-size="10.00" fill="#000000">Vector3D&lt;float&gt;</text>
<text text-anchor="middle" x="1859.083" y="-1489" font-family="Times,serif" font-size="10.00" fill="#000000">OUTPUT</text>
</g>
<!-- 7&#45;&gt;20 -->
<g id="edge24" class="edge">
<title>7-&gt;20</title>
<path fill="none" stroke="#000000" d="M1627.5425,-1562.9688C1675.2963,-1549.5693 1752.5971,-1527.8792 1804.5999,-1513.2876"/>
<polygon fill="#000000" stroke="#000000" points="1810.4966,-1511.633 1805.4491,-1515.8537 1807.6081,-1512.4436 1804.7197,-1513.2541 1804.7197,-1513.2541 1804.7197,-1513.2541 1807.6081,-1512.4436 1803.9902,-1510.6545 1810.4966,-1511.633 1810.4966,-1511.633"/>
<text text-anchor="middle" x="1721.8738" y="-1556.7" font-family="Times,serif" font-size="9.00" fill="#000000">-&gt;OUTPUT[Vector3D&lt;float&gt;]</text>
</g>
<!-- 16 -->
<g id="node17" class="node">
<title>16</title>
<polygon fill="none" stroke="#000000" points="1635.8052,-234 1551.5239,-234 1551.5239,-240 1533.5239,-218 1551.5239,-196 1551.5239,-202 1635.8052,-202 1635.8052,-234"/>
<text text-anchor="middle" x="1584.6646" y="-227" font-family="Times,serif" font-size="10.00" fill="#000000">ROSUnit_Publisher</text>
<text text-anchor="middle" x="1584.6646" y="-215" font-family="Times,serif" font-size="10.00" fill="#000000">ros_pub_ori_rate_des</text>
<text text-anchor="middle" x="1584.6646" y="-203" font-family="Times,serif" font-size="10.00" fill="#000000">Syn:7, Asyn: 3</text>
</g>
<!-- 11&#45;&gt;16 -->
<g id="edge20" class="edge">
<title>11-&gt;16</title>
<path fill="none" stroke="#000000" d="M1357.4272,-153.5428C1403.7687,-166.6878 1476.7505,-187.3895 1527.4529,-201.7716"/>
<polygon fill="#000000" stroke="#000000" points="1533.5224,-203.4932 1527.0133,-204.4533 1530.6363,-202.6745 1527.7501,-201.8558 1527.7501,-201.8558 1527.7501,-201.8558 1530.6363,-202.6745 1528.487,-199.2583 1533.5224,-203.4932 1533.5224,-203.4932"/>
<text text-anchor="middle" x="1447.4553" y="-199.7" font-family="Times,serif" font-size="9.00" fill="#000000">OUTPUT-&gt;INPUT[Vector3D&lt;float&gt;]</text>
</g>
<!-- 21 -->
<g id="node22" class="node">
<title>21</title>
<ellipse fill="#00ff00" stroke="#000000" cx="1584.6646" cy="-65" rx="60.248" ry="22.7556"/>
<text text-anchor="middle" x="1584.6646" y="-68" font-family="Times,serif" font-size="10.00" fill="#000000">Vector3D&lt;float&gt;</text>
<text text-anchor="middle" x="1584.6646" y="-56" font-family="Times,serif" font-size="10.00" fill="#000000">OUTPUT</text>
</g>
<!-- 11&#45;&gt;21 -->
<g id="edge25" class="edge">
<title>11-&gt;21</title>
<path fill="none" stroke="#000000" d="M1327.0727,-118.9446C1338.6084,-102.7774 1356.6251,-82.0079 1378.37,-72.2 1423.829,-51.696 1480.8224,-51.3556 1523.3784,-55.3163"/>
<polygon fill="#000000" stroke="#000000" points="1529.5493,-55.93 1523.3115,-58.0229 1526.564,-55.6331 1523.5788,-55.3362 1523.5788,-55.3362 1523.5788,-55.3362 1526.564,-55.6331 1523.846,-52.6494 1529.5493,-55.93 1529.5493,-55.93"/>
<text text-anchor="middle" x="1447.4553" y="-75.7" font-family="Times,serif" font-size="9.00" fill="#000000">-&gt;OUTPUT[Vector3D&lt;float&gt;]</text>
</g>
</g>
</svg>