<?xml version="1.0" encoding="UTF-8" standalone="no"?>
<!DOCTYPE svg PUBLIC "-//W3C//DTD SVG 1.1//EN" "http://www.w3.org/Graphics/SVG/1.1/DTD/svg11.dtd">
<!-- Generated by graphviz version 2.40.1 (20161225.0304)
 -->
<!-- Title: G Pages: 1 -->
<svg width="2002pt" height="1281pt" viewBox="14.40 14.40 1987.26 1267.03" xmlns="http://www.w3.org/2000/svg" xmlns:xlink="http://www.w3.org/1999/xlink">
<g id="graph0" class="graph" transform="scale(1 1) rotate(0) translate(18.4 1263.0274)">
<title>G</title>
<polygon fill="#ffffff" stroke="transparent" points="-4,4 -4,-1248.6274 1968.8573,-1248.6274 1968.8573,4 -4,4"/>
<text text-anchor="middle" x="982.4286" y="-1204.6274" font-family="Times,serif" font-size="40.00" fill="#000000">PX4StateEst_sys</text>
<!-- 1 -->
<g id="node1" class="node">
<title>1</title>
<polygon fill="none" stroke="#000000" points="149.295,-573.6274 1.454,-573.6274 1.454,-541.6274 149.295,-541.6274 149.295,-535.6274 167.295,-557.6274 149.295,-579.6274 149.295,-573.6274"/>
<text text-anchor="middle" x="84.3745" y="-566.6274" font-family="Times,serif" font-size="10.00" fill="#000000">MAVLink_Subscriber</text>
<text text-anchor="middle" x="84.3745" y="-554.6274" font-family="Times,serif" font-size="10.00" fill="#000000">MAVLINK_PX4_Sub_estimator/pos</text>
<text text-anchor="middle" x="84.3745" y="-542.6274" font-family="Times,serif" font-size="10.00" fill="#000000">Syn:4, Asyn: 12</text>
</g>
<!-- 2 -->
<g id="node2" class="node">
<title>2</title>
<polygon fill="none" stroke="#000000" points="589.7844,-579.6274 433.9472,-579.6274 433.9472,-535.6274 589.7844,-535.6274 589.7844,-579.6274"/>
<text text-anchor="middle" x="511.8658" y="-566.6274" font-family="Times,serif" font-size="10.00" fill="#000000">DeStructurePX4LocalPositionMsg</text>
<text text-anchor="middle" x="511.8658" y="-554.6274" font-family="Times,serif" font-size="10.00" fill="#000000">px4_position_block</text>
<text text-anchor="middle" x="511.8658" y="-542.6274" font-family="Times,serif" font-size="10.00" fill="#000000">Syn:5, Asyn: 11</text>
</g>
<!-- 1&#45;&gt;2 -->
<g id="edge1" class="edge">
<title>1-&gt;2</title>
<path fill="none" stroke="#000000" d="M167.306,-557.6274C242.2891,-557.6274 352.1703,-557.6274 427.5723,-557.6274"/>
<polygon fill="#000000" stroke="#000000" points="433.8482,-557.6274 427.8482,-560.3275 430.8482,-557.6275 427.8482,-557.6275 427.8482,-557.6275 427.8482,-557.6275 430.8482,-557.6275 427.8481,-554.9275 433.8482,-557.6274 433.8482,-557.6274"/>
<text text-anchor="middle" x="294.5104" y="-560.3274" font-family="Times,serif" font-size="9.00" fill="#000000">OUTPUT-&gt;MAVLINK_POS[mavlink_vehicle_local_position_t]</text>
</g>
<!-- 0 -->
<g id="node3" class="node">
<title>0</title>
<polygon fill="none" stroke="#000000" points="1027.7039,-579.6274 947.2529,-579.6274 947.2529,-535.6274 1027.7039,-535.6274 1027.7039,-579.6274"/>
<text text-anchor="middle" x="987.4784" y="-566.6274" font-family="Times,serif" font-size="10.00" fill="#000000">PX4toHEAR</text>
<text text-anchor="middle" x="987.4784" y="-554.6274" font-family="Times,serif" font-size="10.00" fill="#000000">px4_2_hear</text>
<text text-anchor="middle" x="987.4784" y="-542.6274" font-family="Times,serif" font-size="10.00" fill="#000000">Syn:6, Asyn: 13</text>
</g>
<!-- 2&#45;&gt;0 -->
<g id="edge2" class="edge">
<title>2-&gt;0</title>
<path fill="none" stroke="#000000" d="M589.803,-567.923C597.1135,-568.6155 604.4191,-569.2048 611.4598,-569.6274 742.1062,-577.4698 775.411,-579.1816 905.9434,-569.6274 917.2611,-568.799 929.3921,-567.3321 940.7462,-565.7018"/>
<polygon fill="#000000" stroke="#000000" points="946.964,-564.7823 941.4236,-568.3311 943.9963,-565.2213 941.0286,-565.6602 941.0286,-565.6602 941.0286,-565.6602 943.9963,-565.2213 940.6335,-562.9892 946.964,-564.7823 946.964,-564.7823"/>
<text text-anchor="middle" x="758.7016" y="-579.3274" font-family="Times,serif" font-size="9.00" fill="#000000">POS-&gt;INPUT_POS[Vector3D&lt;float&gt;]</text>
</g>
<!-- 2&#45;&gt;0 -->
<g id="edge3" class="edge">
<title>2-&gt;0</title>
<path fill="none" stroke="#000000" d="M589.6132,-556.9427C596.9974,-556.8958 604.3705,-556.8559 611.4598,-556.8274 742.3403,-556.3018 775.0634,-556.1854 905.9434,-556.8274 917.2902,-556.8831 929.525,-556.9823 940.9792,-557.0924"/>
<polygon fill="#000000" stroke="#000000" points="947.2517,-557.1544 941.2253,-559.7949 944.2519,-557.1247 941.252,-557.095 941.252,-557.095 941.252,-557.095 944.2519,-557.1247 941.2788,-554.3951 947.2517,-557.1544 947.2517,-557.1544"/>
<text text-anchor="middle" x="758.7016" y="-560.3274" font-family="Times,serif" font-size="9.00" fill="#000000">VEL-&gt;INPUT_VEL[Vector3D&lt;float&gt;]</text>
</g>
<!-- 2&#45;&gt;0 -->
<g id="edge4" class="edge">
<title>2-&gt;0</title>
<path fill="none" stroke="#000000" d="M557.9244,-535.5754C574.42,-528.7914 593.4049,-522.2202 611.4598,-518.8274 740.0901,-494.6562 778.276,-489.9997 905.9434,-518.8274 919.0713,-521.7917 932.564,-527.1315 944.7003,-532.92"/>
<polygon fill="#000000" stroke="#000000" points="950.1748,-535.6043 943.5988,-535.387 947.4812,-534.2835 944.7875,-532.9628 944.7875,-532.9628 944.7875,-532.9628 947.4812,-534.2835 945.9762,-530.5385 950.1748,-535.6043 950.1748,-535.6043"/>
<text text-anchor="middle" x="758.7016" y="-522.3274" font-family="Times,serif" font-size="9.00" fill="#000000">ACC-&gt;INPUT_ACC[Vector3D&lt;float&gt;]</text>
</g>
<!-- 7 -->
<g id="node8" class="node">
<title>7</title>
<polygon fill="none" stroke="#000000" points="1384.5778,-1111.6274 1304.1269,-1111.6274 1304.1269,-1067.6274 1384.5778,-1067.6274 1384.5778,-1111.6274"/>
<text text-anchor="middle" x="1344.3524" y="-1098.6274" font-family="Times,serif" font-size="10.00" fill="#000000">Quat2Rot</text>
<text text-anchor="middle" x="1344.3524" y="-1086.6274" font-family="Times,serif" font-size="10.00" fill="#000000">quat_2_rot</text>
<text text-anchor="middle" x="1344.3524" y="-1074.6274" font-family="Times,serif" font-size="10.00" fill="#000000">Syn:11, Asyn: 6</text>
</g>
<!-- 0&#45;&gt;7 -->
<g id="edge9" class="edge">
<title>0-&gt;7</title>
<path fill="none" stroke="#000000" d="M989.5507,-579.8063C996.8462,-653.8348 1023.3931,-891.1036 1069.0134,-950.6274 1126.6026,-1025.7678 1235.9699,-1063.4178 1298.1312,-1079.5223"/>
<polygon fill="#000000" stroke="#000000" points="1303.9961,-1081.014 1297.5157,-1082.1516 1301.0887,-1080.2745 1298.1813,-1079.5349 1298.1813,-1079.5349 1298.1813,-1079.5349 1301.0887,-1080.2745 1298.8469,-1076.9183 1303.9961,-1081.014 1303.9961,-1081.014"/>
<text text-anchor="middle" x="1165.0195" y="-1070.3274" font-family="Times,serif" font-size="9.00" fill="#000000">OUTPUT_ATT-&gt;QUAT_ANGLES[tf2::Quaternion]</text>
</g>
<!-- 9 -->
<g id="node10" class="node">
<title>9</title>
<polygon fill="none" stroke="#000000" points="1392.3504,-953.6274 1314.3544,-953.6274 1314.3544,-959.6274 1296.3544,-937.6274 1314.3544,-915.6274 1314.3544,-921.6274 1392.3504,-921.6274 1392.3504,-953.6274"/>
<text text-anchor="middle" x="1344.3524" y="-946.6274" font-family="Times,serif" font-size="10.00" fill="#000000">ROSUnit_Publisher</text>
<text text-anchor="middle" x="1344.3524" y="-934.6274" font-family="Times,serif" font-size="10.00" fill="#000000">Pub_estimator/pos</text>
<text text-anchor="middle" x="1344.3524" y="-922.6274" font-family="Times,serif" font-size="10.00" fill="#000000">Syn:10, Asyn: 4</text>
</g>
<!-- 0&#45;&gt;9 -->
<g id="edge11" class="edge">
<title>0-&gt;9</title>
<path fill="none" stroke="#000000" d="M989.6376,-579.9372C995.1132,-625.4259 1013.3208,-730.0376 1069.0134,-794.6274 1128.2191,-863.2916 1228.6004,-903.4822 1290.4161,-922.958"/>
<polygon fill="#000000" stroke="#000000" points="1296.2752,-924.7784 1289.7443,-925.5766 1293.4103,-923.8883 1290.5454,-922.9981 1290.5454,-922.9981 1290.5454,-922.9981 1293.4103,-923.8883 1291.3465,-920.4197 1296.2752,-924.7784 1296.2752,-924.7784"/>
<text text-anchor="middle" x="1165.0195" y="-915.3274" font-family="Times,serif" font-size="9.00" fill="#000000">OUTPUT_POS-&gt;INPUT[Vector3D&lt;float&gt;]</text>
</g>
<!-- 10 -->
<g id="node11" class="node">
<title>10</title>
<polygon fill="none" stroke="#000000" points="1392.3504,-801.6274 1314.3544,-801.6274 1314.3544,-807.6274 1296.3544,-785.6274 1314.3544,-763.6274 1314.3544,-769.6274 1392.3504,-769.6274 1392.3504,-801.6274"/>
<text text-anchor="middle" x="1344.3524" y="-794.6274" font-family="Times,serif" font-size="10.00" fill="#000000">ROSUnit_Publisher</text>
<text text-anchor="middle" x="1344.3524" y="-782.6274" font-family="Times,serif" font-size="10.00" fill="#000000">Pub_estimator/vel</text>
<text text-anchor="middle" x="1344.3524" y="-770.6274" font-family="Times,serif" font-size="10.00" fill="#000000">Syn:9, Asyn: 3</text>
</g>
<!-- 0&#45;&gt;10 -->
<g id="edge12" class="edge">
<title>0-&gt;10</title>
<path fill="none" stroke="#000000" d="M1002.1476,-579.7863C1017.0076,-600.9065 1041.6534,-632.5302 1069.0134,-653.6274 1138.01,-706.8305 1231.9027,-746.1274 1290.2851,-767.4446"/>
<polygon fill="#000000" stroke="#000000" points="1296.1722,-769.5771 1289.6113,-770.0722 1293.3515,-768.5554 1290.5309,-767.5336 1290.5309,-767.5336 1290.5309,-767.5336 1293.3515,-768.5554 1291.4505,-764.995 1296.1722,-769.5771 1296.1722,-769.5771"/>
<text text-anchor="middle" x="1165.0195" y="-759.3274" font-family="Times,serif" font-size="9.00" fill="#000000">OUTPUT_VEL-&gt;INPUT[Vector3D&lt;float&gt;]</text>
</g>
<!-- 11 -->
<g id="node12" class="node">
<title>11</title>
<polygon fill="none" stroke="#000000" points="1392.3504,-649.6274 1314.3544,-649.6274 1314.3544,-655.6274 1296.3544,-633.6274 1314.3544,-611.6274 1314.3544,-617.6274 1392.3504,-617.6274 1392.3504,-649.6274"/>
<text text-anchor="middle" x="1344.3524" y="-642.6274" font-family="Times,serif" font-size="10.00" fill="#000000">ROSUnit_Publisher</text>
<text text-anchor="middle" x="1344.3524" y="-630.6274" font-family="Times,serif" font-size="10.00" fill="#000000">Pub_estimator/acc</text>
<text text-anchor="middle" x="1344.3524" y="-618.6274" font-family="Times,serif" font-size="10.00" fill="#000000">Syn:8, Asyn: 2</text>
</g>
<!-- 0&#45;&gt;11 -->
<g id="edge13" class="edge">
<title>0-&gt;11</title>
<path fill="none" stroke="#000000" d="M1027.7227,-566.1978C1092.084,-579.9043 1218.2502,-606.7727 1290.3736,-622.1321"/>
<polygon fill="#000000" stroke="#000000" points="1296.3256,-623.3996 1289.8947,-624.7906 1293.3914,-622.7747 1290.4572,-622.1498 1290.4572,-622.1498 1290.4572,-622.1498 1293.3914,-622.7747 1291.0196,-619.509 1296.3256,-623.3996 1296.3256,-623.3996"/>
<text text-anchor="middle" x="1165.0195" y="-618.3274" font-family="Times,serif" font-size="9.00" fill="#000000">OUTPUT_ACC-&gt;INPUT[Vector3D&lt;float&gt;]</text>
</g>
<!-- 13 -->
<g id="node14" class="node">
<title>13</title>
<polygon fill="none" stroke="#000000" points="1397.997,-497.6274 1308.7078,-497.6274 1308.7078,-503.6274 1290.7078,-481.6274 1308.7078,-459.6274 1308.7078,-465.6274 1397.997,-465.6274 1397.997,-497.6274"/>
<text text-anchor="middle" x="1344.3524" y="-490.6274" font-family="Times,serif" font-size="10.00" fill="#000000">ROSUnit_Publisher</text>
<text text-anchor="middle" x="1344.3524" y="-478.6274" font-family="Times,serif" font-size="10.00" fill="#000000">Pub_estimator/ori_rate</text>
<text text-anchor="middle" x="1344.3524" y="-466.6274" font-family="Times,serif" font-size="10.00" fill="#000000">Syn:7, Asyn: 0</text>
</g>
<!-- 0&#45;&gt;13 -->
<g id="edge15" class="edge">
<title>0-&gt;13</title>
<path fill="none" stroke="#000000" d="M1028.0827,-548.0817C1041.1385,-545.0615 1055.6747,-541.7504 1069.0134,-538.8274 1143.0964,-522.5934 1228.6531,-504.9997 1284.4816,-493.6739"/>
<polygon fill="#000000" stroke="#000000" points="1290.4639,-492.4612 1285.12,-496.2995 1287.5237,-493.0572 1284.5835,-493.6533 1284.5835,-493.6533 1284.5835,-493.6533 1287.5237,-493.0572 1284.0471,-491.0071 1290.4639,-492.4612 1290.4639,-492.4612"/>
<text text-anchor="middle" x="1165.0195" y="-542.3274" font-family="Times,serif" font-size="9.00" fill="#000000">OUTPUT_ANG_VEL-&gt;INPUT[Vector3D&lt;float&gt;]</text>
</g>
<!-- 14 -->
<g id="node15" class="node">
<title>14</title>
<ellipse fill="#00ff00" stroke="#000000" cx="1344.3524" cy="-328.6274" rx="60.248" ry="22.7556"/>
<text text-anchor="middle" x="1344.3524" y="-331.6274" font-family="Times,serif" font-size="10.00" fill="#000000">Vector3D&lt;float&gt;</text>
<text text-anchor="middle" x="1344.3524" y="-319.6274" font-family="Times,serif" font-size="10.00" fill="#000000">OUTPUT_POS</text>
</g>
<!-- 0&#45;&gt;14 -->
<g id="edge16" class="edge">
<title>0-&gt;14</title>
<path fill="none" stroke="#000000" d="M1002.1738,-535.5379C1017.0532,-514.4788 1041.713,-482.9334 1069.0134,-461.8274 1139.2792,-407.5049 1235.2601,-367.3075 1293.3611,-345.9661"/>
<polygon fill="#000000" stroke="#000000" points="1299.2106,-343.8342 1294.4979,-348.4255 1296.392,-344.8615 1293.5733,-345.8888 1293.5733,-345.8888 1293.5733,-345.8888 1296.392,-344.8615 1292.6488,-343.352 1299.2106,-343.8342 1299.2106,-343.8342"/>
<text text-anchor="middle" x="1165.0195" y="-465.3274" font-family="Times,serif" font-size="9.00" fill="#000000">-&gt;OUTPUT_POS[Vector3D&lt;float&gt;]</text>
</g>
<!-- 15 -->
<g id="node16" class="node">
<title>15</title>
<ellipse fill="#00ff00" stroke="#000000" cx="1344.3524" cy="-175.6274" rx="60.248" ry="22.7556"/>
<text text-anchor="middle" x="1344.3524" y="-178.6274" font-family="Times,serif" font-size="10.00" fill="#000000">Vector3D&lt;float&gt;</text>
<text text-anchor="middle" x="1344.3524" y="-166.6274" font-family="Times,serif" font-size="10.00" fill="#000000">OUTPUT_VEL</text>
</g>
<!-- 0&#45;&gt;15 -->
<g id="edge17" class="edge">
<title>0-&gt;15</title>
<path fill="none" stroke="#000000" d="M989.7192,-535.4707C995.3452,-490.2863 1013.8158,-386.3336 1069.0134,-321.8274 1128.1571,-252.7096 1228.3275,-211.3295 1290.1573,-191.0586"/>
<polygon fill="#000000" stroke="#000000" points="1296.0184,-189.1626 1291.1408,-193.5783 1293.1641,-190.086 1290.3097,-191.0094 1290.3097,-191.0094 1290.3097,-191.0094 1293.1641,-190.086 1289.4787,-188.4404 1296.0184,-189.1626 1296.0184,-189.1626"/>
<text text-anchor="middle" x="1165.0195" y="-325.3274" font-family="Times,serif" font-size="9.00" fill="#000000">-&gt;OUTPUT_VEL[Vector3D&lt;float&gt;]</text>
</g>
<!-- 17 -->
<g id="node18" class="node">
<title>17</title>
<ellipse fill="#00ff00" stroke="#000000" cx="1344.3524" cy="-22.6274" rx="75.1537" ry="22.7556"/>
<text text-anchor="middle" x="1344.3524" y="-25.6274" font-family="Times,serif" font-size="10.00" fill="#000000">Vector3D&lt;float&gt;</text>
<text text-anchor="middle" x="1344.3524" y="-13.6274" font-family="Times,serif" font-size="10.00" fill="#000000">OUTPUT_ANG_VEL</text>
</g>
<!-- 0&#45;&gt;17 -->
<g id="edge19" class="edge">
<title>0-&gt;17</title>
<path fill="none" stroke="#000000" d="M994.2553,-535.604C1008.9846,-486.7944 1043.9595,-365.6106 1061.0134,-261.6274 1064.5426,-240.109 1056.8945,-181.9556 1069.0134,-163.8274 1116.688,-92.5132 1212.0136,-55.2276 1276.9968,-37.2657"/>
<polygon fill="#000000" stroke="#000000" points="1282.7956,-35.6917 1277.7124,-39.8692 1279.9003,-36.4776 1277.0051,-37.2635 1277.0051,-37.2635 1277.0051,-37.2635 1279.9003,-36.4776 1276.2978,-34.6578 1282.7956,-35.6917 1282.7956,-35.6917"/>
<text text-anchor="middle" x="1165.0195" y="-167.3274" font-family="Times,serif" font-size="9.00" fill="#000000">-&gt;OUTPUT_ANG_VEL[Vector3D&lt;float&gt;]</text>
</g>
<!-- 3 -->
<g id="node4" class="node">
<title>3</title>
<polygon fill="none" stroke="#000000" points="585.5539,-263.6274 420.1777,-263.6274 420.1777,-231.6274 585.5539,-231.6274 585.5539,-225.6274 603.5539,-247.6274 585.5539,-269.6274 585.5539,-263.6274"/>
<text text-anchor="middle" x="511.8658" y="-256.6274" font-family="Times,serif" font-size="10.00" fill="#000000">MAVLink_Subscriber</text>
<text text-anchor="middle" x="511.8658" y="-244.6274" font-family="Times,serif" font-size="10.00" fill="#000000">MAVLINK_PX4_Sub_estimator/ang_vel</text>
<text text-anchor="middle" x="511.8658" y="-232.6274" font-family="Times,serif" font-size="10.00" fill="#000000">Syn:2, Asyn: 10</text>
</g>
<!-- 3&#45;&gt;0 -->
<g id="edge6" class="edge">
<title>3-&gt;0</title>
<path fill="none" stroke="#000000" d="M566.6637,-269.6994C646.4981,-303.4855 797.1108,-373.4994 905.9434,-461.8274 930.4875,-481.7473 953.3407,-509.7647 968.5696,-530.3562"/>
<polygon fill="#000000" stroke="#000000" points="972.2734,-535.4219 966.5525,-532.1721 970.5027,-533.0002 968.732,-530.5785 968.732,-530.5785 968.732,-530.5785 970.5027,-533.0002 970.9116,-528.9848 972.2734,-535.4219 972.2734,-535.4219"/>
<text text-anchor="middle" x="758.7016" y="-465.3274" font-family="Times,serif" font-size="9.00" fill="#000000">OUTPUT-&gt;INPUT_ANG_VEL[Vector3D&lt;float&gt;]</text>
</g>
<!-- 4 -->
<g id="node5" class="node">
<title>4</title>
<polygon fill="none" stroke="#000000" points="1061.0484,-207.6274 913.9084,-207.6274 913.9084,-163.6274 1061.0484,-163.6274 1061.0484,-207.6274"/>
<text text-anchor="middle" x="987.4784" y="-194.6274" font-family="Times,serif" font-size="10.00" fill="#000000">DeStructurePX4AngularVelMsg</text>
<text text-anchor="middle" x="987.4784" y="-182.6274" font-family="Times,serif" font-size="10.00" fill="#000000">px4_ang_vel_block</text>
<text text-anchor="middle" x="987.4784" y="-170.6274" font-family="Times,serif" font-size="10.00" fill="#000000">Syn:3, Asyn: 9</text>
</g>
<!-- 3&#45;&gt;4 -->
<g id="edge5" class="edge">
<title>3-&gt;4</title>
<path fill="none" stroke="#000000" d="M537.746,-225.5235C556.7587,-210.8086 583.9671,-192.7716 611.4598,-184.8274 710.4791,-156.2152 830.3869,-163.2002 907.7531,-172.7569"/>
<polygon fill="#000000" stroke="#000000" points="913.712,-173.5085 907.4213,-175.4364 910.7356,-173.133 907.7592,-172.7576 907.7592,-172.7576 907.7592,-172.7576 910.7356,-173.133 908.0971,-170.0788 913.712,-173.5085 913.712,-173.5085"/>
<text text-anchor="middle" x="758.7016" y="-188.3274" font-family="Times,serif" font-size="9.00" fill="#000000">OUTPUT-&gt;MAVLINK_ANGULAR_VEL[mavlink_vehicle_angular_velocity_t]</text>
</g>
<!-- 5 -->
<g id="node6" class="node">
<title>5</title>
<polygon fill="none" stroke="#000000" points="150.6237,-821.6274 .1253,-821.6274 .1253,-789.6274 150.6237,-789.6274 150.6237,-783.6274 168.6237,-805.6274 150.6237,-827.6274 150.6237,-821.6274"/>
<text text-anchor="middle" x="84.3745" y="-814.6274" font-family="Times,serif" font-size="10.00" fill="#000000">MAVLink_Subscriber</text>
<text text-anchor="middle" x="84.3745" y="-802.6274" font-family="Times,serif" font-size="10.00" fill="#000000">MAVLINK_PX4_Sub_estimator/quat</text>
<text text-anchor="middle" x="84.3745" y="-790.6274" font-family="Times,serif" font-size="10.00" fill="#000000">Syn:0, Asyn: 8</text>
</g>
<!-- 6 -->
<g id="node7" class="node">
<title>6</title>
<polygon fill="none" stroke="#000000" points="578.0073,-827.6274 445.7243,-827.6274 445.7243,-783.6274 578.0073,-783.6274 578.0073,-827.6274"/>
<text text-anchor="middle" x="511.8658" y="-814.6274" font-family="Times,serif" font-size="10.00" fill="#000000">DeStructurePX4AttitudeMsg</text>
<text text-anchor="middle" x="511.8658" y="-802.6274" font-family="Times,serif" font-size="10.00" fill="#000000">px4_att_block</text>
<text text-anchor="middle" x="511.8658" y="-790.6274" font-family="Times,serif" font-size="10.00" fill="#000000">Syn:1, Asyn: 7</text>
</g>
<!-- 5&#45;&gt;6 -->
<g id="edge7" class="edge">
<title>5-&gt;6</title>
<path fill="none" stroke="#000000" d="M168.833,-805.6274C247.764,-805.6274 364.3717,-805.6274 439.2331,-805.6274"/>
<polygon fill="#000000" stroke="#000000" points="445.446,-805.6274 439.446,-808.3275 442.446,-805.6275 439.446,-805.6275 439.446,-805.6275 439.446,-805.6275 442.446,-805.6275 439.4459,-802.9275 445.446,-805.6274 445.446,-805.6274"/>
<text text-anchor="middle" x="294.5104" y="-808.3274" font-family="Times,serif" font-size="9.00" fill="#000000">OUTPUT-&gt;MAVLINK_ATT[mavlink_vehicle_attitude_t]</text>
</g>
<!-- 6&#45;&gt;0 -->
<g id="edge8" class="edge">
<title>6-&gt;0</title>
<path fill="none" stroke="#000000" d="M563.913,-783.5741C640.6308,-750.3664 787.7524,-683.9908 905.9434,-614.6274 921.9958,-605.2066 938.982,-593.6166 953.2711,-583.3531"/>
<polygon fill="#000000" stroke="#000000" points="958.4068,-579.6383 955.1277,-585.3425 955.976,-581.3965 953.5453,-583.1548 953.5453,-583.1548 953.5453,-583.1548 955.976,-581.3965 951.9628,-580.9671 958.4068,-579.6383 958.4068,-579.6383"/>
<text text-anchor="middle" x="758.7016" y="-762.3274" font-family="Times,serif" font-size="9.00" fill="#000000">ATT-&gt;INPUT_ATT[tf2::Quaternion]</text>
</g>
<!-- 8 -->
<g id="node9" class="node">
<title>8</title>
<polygon fill="none" stroke="#000000" points="1683.2998,-1111.6274 1602.8489,-1111.6274 1602.8489,-1067.6274 1683.2998,-1067.6274 1683.2998,-1111.6274"/>
<text text-anchor="middle" x="1643.0743" y="-1098.6274" font-family="Times,serif" font-size="10.00" fill="#000000">Rot2Eul</text>
<text text-anchor="middle" x="1643.0743" y="-1086.6274" font-family="Times,serif" font-size="10.00" fill="#000000">rot_2_eul</text>
<text text-anchor="middle" x="1643.0743" y="-1074.6274" font-family="Times,serif" font-size="10.00" fill="#000000">Syn:12, Asyn: 5</text>
</g>
<!-- 7&#45;&gt;8 -->
<g id="edge10" class="edge">
<title>7-&gt;8</title>
<path fill="none" stroke="#000000" d="M1384.6393,-1089.6274C1439.6481,-1089.6274 1538.0578,-1089.6274 1596.2722,-1089.6274"/>
<polygon fill="#000000" stroke="#000000" points="1602.4716,-1089.6274 1596.4717,-1092.3275 1599.4716,-1089.6275 1596.4716,-1089.6275 1596.4716,-1089.6275 1596.4716,-1089.6275 1599.4716,-1089.6275 1596.4716,-1086.9275 1602.4716,-1089.6274 1602.4716,-1089.6274"/>
<text text-anchor="middle" x="1511.1954" y="-1092.3274" font-family="Times,serif" font-size="9.00" fill="#000000">ROT_MAT-&gt;EUL_ANGLES[tf2::Matrix3x3]</text>
</g>
<!-- 12 -->
<g id="node13" class="node">
<title>12</title>
<polygon fill="none" stroke="#000000" points="1952.7314,-1182.6274 1874.7354,-1182.6274 1874.7354,-1188.6274 1856.7354,-1166.6274 1874.7354,-1144.6274 1874.7354,-1150.6274 1952.7314,-1150.6274 1952.7314,-1182.6274"/>
<text text-anchor="middle" x="1904.7334" y="-1175.6274" font-family="Times,serif" font-size="10.00" fill="#000000">ROSUnit_Publisher</text>
<text text-anchor="middle" x="1904.7334" y="-1163.6274" font-family="Times,serif" font-size="10.00" fill="#000000">Pub_estimator/ori</text>
<text text-anchor="middle" x="1904.7334" y="-1151.6274" font-family="Times,serif" font-size="10.00" fill="#000000">Syn:13, Asyn: 1</text>
</g>
<!-- 8&#45;&gt;12 -->
<g id="edge14" class="edge">
<title>8-&gt;12</title>
<path fill="none" stroke="#000000" d="M1683.3851,-1101.4899C1728.1554,-1114.6647 1800.6642,-1136.0024 1850.4149,-1150.6428"/>
<polygon fill="#000000" stroke="#000000" points="1856.3658,-1152.394 1849.8476,-1153.2903 1853.4878,-1151.547 1850.6099,-1150.7001 1850.6099,-1150.7001 1850.6099,-1150.7001 1853.4878,-1151.547 1851.3721,-1148.1099 1856.3658,-1152.394 1856.3658,-1152.394"/>
<text text-anchor="middle" x="1764.0232" y="-1148.3274" font-family="Times,serif" font-size="9.00" fill="#000000">ROT_MAT-&gt;INPUT[Vector3D&lt;float&gt;]</text>
</g>
<!-- 16 -->
<g id="node17" class="node">
<title>16</title>
<ellipse fill="#00ff00" stroke="#000000" cx="1904.7334" cy="-1013.6274" rx="60.248" ry="22.7556"/>
<text text-anchor="middle" x="1904.7334" y="-1016.6274" font-family="Times,serif" font-size="10.00" fill="#000000">Vector3D&lt;float&gt;</text>
<text text-anchor="middle" x="1904.7334" y="-1004.6274" font-family="Times,serif" font-size="10.00" fill="#000000">ROT_MAT</text>
</g>
<!-- 8&#45;&gt;16 -->
<g id="edge18" class="edge">
<title>8-&gt;16</title>
<path fill="none" stroke="#000000" d="M1652.127,-1067.3885C1659.9545,-1051.3499 1672.9453,-1030.8317 1691.4368,-1020.8274 1738.5306,-995.3489 1800.4244,-996.3412 1845.4023,-1002.0378"/>
<polygon fill="#000000" stroke="#000000" points="1851.3554,-1002.8316 1845.0511,-1004.7148 1848.3817,-1002.4351 1845.408,-1002.0385 1845.408,-1002.0385 1845.408,-1002.0385 1848.3817,-1002.4351 1845.7649,-999.3622 1851.3554,-1002.8316 1851.3554,-1002.8316"/>
<text text-anchor="middle" x="1764.0232" y="-1023.3274" font-family="Times,serif" font-size="9.00" fill="#000000">-&gt;ROT_MAT[Vector3D&lt;float&gt;]</text>
</g>
</g>
</svg>