<?xml version="1.0" encoding="UTF-8" standalone="no"?>
<!DOCTYPE svg PUBLIC "-//W3C//DTD SVG 1.1//EN"
 "http://www.w3.org/Graphics/SVG/1.1/DTD/svg11.dtd">
<!-- Generated by graphviz version 2.43.0 (0)
 -->
<!-- Title: MultiDroneSystem Pages: 1 -->
<svg width="1626pt" height="460pt"
 viewBox="0.00 0.00 1626.00 460.00" xmlns="http://www.w3.org/2000/svg" xmlns:xlink="http://www.w3.org/1999/xlink">
<g id="graph0" class="graph" transform="scale(1 1) rotate(0) translate(4 456)">
<title>MultiDroneSystem</title>
<polygon fill="white" stroke="transparent" points="-4,4 -4,-456 1622,-456 1622,4 -4,4"/>
<g id="clust1" class="cluster">
<title>cluster_aws</title>
<polygon fill="lightyellow" stroke="lightblue" points="694,-8 694,-277 928,-277 928,-8 694,-8"/>
<text text-anchor="middle" x="811" y="-263.4" font-family="Arial" font-size="12.00">AWS Cloud</text>
</g>
<g id="clust2" class="cluster">
<title>cluster_devhub</title>
<polygon fill="lightgreen" stroke="darkgreen" points="715,-175 715,-248 911,-248 911,-175 715,-175"/>
<text text-anchor="middle" x="813" y="-234.4" font-family="Arial" font-size="12.00">DevHub (Lambda)</text>
</g>
<g id="clust3" class="cluster">
<title>cluster_webclient</title>
<polygon fill="lightcyan" stroke="darkblue" points="702,-16 702,-89 920,-89 920,-16 702,-16"/>
<text text-anchor="middle" x="811" y="-75.4" font-family="Arial" font-size="12.00">droneleaf.io</text>
</g>
<g id="clust4" class="cluster">
<title>cluster_drone1</title>
<polygon fill="mistyrose" stroke="darkred" points="8,-16 8,-444 386,-444 386,-16 8,-16"/>
<text text-anchor="middle" x="197" y="-430.4" font-family="Arial" font-size="12.00">Drone 1</text>
</g>
<g id="clust5" class="cluster">
<title>cluster_companion1</title>
<polygon fill="lavender" stroke="purple" points="16,-171 16,-415 218,-415 218,-171 16,-171"/>
<text text-anchor="middle" x="117" y="-401.4" font-family="Arial" font-size="12.00">Companion Computer</text>
</g>
<g id="clust6" class="cluster">
<title>cluster_drone2</title>
<polygon fill="mistyrose" stroke="darkred" points="1232,-16 1232,-444 1610,-444 1610,-16 1232,-16"/>
<text text-anchor="middle" x="1421" y="-430.4" font-family="Arial" font-size="12.00">Drone 2</text>
</g>
<g id="clust7" class="cluster">
<title>cluster_companion2</title>
<polygon fill="lavender" stroke="purple" points="1240,-171 1240,-415 1442,-415 1442,-171 1240,-171"/>
<text text-anchor="middle" x="1341" y="-401.4" font-family="Arial" font-size="12.00">Companion Computer</text>
</g>
<!-- devhub -->
<g id="node1" class="node">
<title>devhub</title>
<path fill="none" stroke="black" d="M891,-219C891,-219 859,-219 859,-219 853,-219 847,-213 847,-207 847,-207 847,-195 847,-195 847,-189 853,-183 859,-183 859,-183 891,-183 891,-183 897,-183 903,-189 903,-195 903,-195 903,-207 903,-207 903,-213 897,-219 891,-219"/>
<text text-anchor="middle" x="875" y="-204.2" font-family="Arial" font-size="11.00">DevHub</text>
<text text-anchor="middle" x="875" y="-192.2" font-family="Arial" font-size="11.00">Lambda</text>
</g>
<!-- webclient_db -->
<g id="node4" class="node">
<title>webclient_db</title>
<path fill="none" stroke="black" d="M911.5,-56.73C911.5,-58.53 895.14,-60 875,-60 854.86,-60 838.5,-58.53 838.5,-56.73 838.5,-56.73 838.5,-27.27 838.5,-27.27 838.5,-25.47 854.86,-24 875,-24 895.14,-24 911.5,-25.47 911.5,-27.27 911.5,-27.27 911.5,-56.73 911.5,-56.73"/>
<path fill="none" stroke="black" d="M911.5,-56.73C911.5,-54.92 895.14,-53.45 875,-53.45 854.86,-53.45 838.5,-54.92 838.5,-56.73"/>
<text text-anchor="middle" x="875" y="-39.2" font-family="Arial" font-size="11.00">DynamoDB</text>
</g>
<!-- devhub&#45;&gt;webclient_db -->
<g id="edge1" class="edge">
<title>devhub&#45;&gt;webclient_db</title>
<path fill="none" stroke="black" d="M875,-172.77C875,-144.02 875,-98.98 875,-70.23"/>
<polygon fill="black" stroke="black" points="871.5,-172.9 875,-182.9 878.5,-172.9 871.5,-172.9"/>
<polygon fill="black" stroke="black" points="878.5,-70.08 875,-60.08 871.5,-70.08 878.5,-70.08"/>
<text text-anchor="middle" x="888.5" y="-117" font-family="Arial" font-size="10.00">HTTP</text>
</g>
<!-- s3 -->
<g id="node2" class="node">
<title>s3</title>
<path fill="none" stroke="black" d="M789,-215.73C789,-217.53 774.21,-219 756,-219 737.79,-219 723,-217.53 723,-215.73 723,-215.73 723,-186.27 723,-186.27 723,-184.47 737.79,-183 756,-183 774.21,-183 789,-184.47 789,-186.27 789,-186.27 789,-215.73 789,-215.73"/>
<path fill="none" stroke="black" d="M789,-215.73C789,-213.92 774.21,-212.45 756,-212.45 737.79,-212.45 723,-213.92 723,-215.73"/>
<text text-anchor="middle" x="756" y="-198.2" font-family="Arial" font-size="11.00">S3 Bucket</text>
</g>
<!-- webclient -->
<g id="node3" class="node">
<title>webclient</title>
<path fill="none" stroke="black" d="M768,-60C768,-60 722,-60 722,-60 716,-60 710,-54 710,-48 710,-48 710,-36 710,-36 710,-30 716,-24 722,-24 722,-24 768,-24 768,-24 774,-24 780,-30 780,-36 780,-36 780,-48 780,-48 780,-54 774,-60 768,-60"/>
<text text-anchor="middle" x="745" y="-39.2" font-family="Arial" font-size="11.00">Web Client</text>
</g>
<!-- pam1 -->
<g id="node5" class="node">
<title>pam1</title>
<path fill="#fac2f3" stroke="black" d="M198,-386C198,-386 168,-386 168,-386 162,-386 156,-380 156,-374 156,-374 156,-362 156,-362 156,-356 162,-350 168,-350 168,-350 198,-350 198,-350 204,-350 210,-356 210,-362 210,-362 210,-374 210,-374 210,-380 204,-386 198,-386"/>
<text text-anchor="middle" x="183" y="-365.2" font-family="Arial" font-size="11.00">PAM</text>
</g>
<!-- pam1&#45;&gt;s3 -->
<g id="edge4" class="edge">
<title>pam1&#45;&gt;s3</title>
<path fill="none" stroke="orange" stroke-width="1.5" d="M210.06,-365.78C301.86,-361.25 600.2,-343.12 682,-296 709.4,-280.22 730.38,-249.96 742.89,-228.03"/>
<polygon fill="orange" stroke="orange" stroke-width="1.5" points="745.99,-229.65 747.73,-219.2 739.85,-226.29 745.99,-229.65"/>
<text text-anchor="middle" x="716" y="-288" font-family="Arial" font-size="10.00">IAM Role</text>
</g>
<!-- pam1&#45;&gt;webclient -->
<g id="edge2" class="edge">
<title>pam1&#45;&gt;webclient</title>
<path fill="none" stroke="blue" stroke-width="1.5" d="M220.2,-360.01C265.14,-350.44 341.94,-330.4 400,-296 501.71,-235.74 496.19,-180.41 594,-114 627.45,-91.29 669.3,-72.24 700.46,-59.61"/>
<polygon fill="blue" stroke="blue" stroke-width="1.5" points="219.38,-356.61 210.3,-362.06 220.8,-363.46 219.38,-356.61"/>
<polygon fill="blue" stroke="blue" stroke-width="1.5" points="701.77,-62.85 709.76,-55.9 699.18,-56.35 701.77,-62.85"/>
<text text-anchor="middle" x="543" y="-198.5" font-family="Arial" font-size="10.00">MQTT</text>
</g>
<!-- pam1&#45;&gt;webclient_db -->
<g id="edge3" class="edge">
<title>pam1&#45;&gt;webclient_db</title>
<path fill="none" stroke="darkgreen" d="M220.27,-365.29C292.46,-360.53 454.48,-342.76 571,-277 628.21,-244.71 622.63,-211.94 674,-171 728.9,-127.25 750.17,-127.31 809,-89 820.36,-81.6 832.59,-73.2 843.4,-65.62"/>
<polygon fill="darkgreen" stroke="darkgreen" points="220.05,-361.79 210.29,-365.9 220.48,-368.78 220.05,-361.79"/>
<polygon fill="darkgreen" stroke="darkgreen" points="845.57,-68.38 851.72,-59.76 841.53,-62.66 845.57,-68.38"/>
<text text-anchor="middle" x="687.5" y="-198.5" font-family="Arial" font-size="10.00">HTTP</text>
</g>
<!-- leaffc1 -->
<g id="node6" class="node">
<title>leaffc1</title>
<path fill="none" stroke="black" d="M66,-219C66,-219 36,-219 36,-219 30,-219 24,-213 24,-207 24,-207 24,-195 24,-195 24,-189 30,-183 36,-183 36,-183 66,-183 66,-183 72,-183 78,-189 78,-195 78,-195 78,-207 78,-207 78,-213 72,-219 66,-219"/>
<text text-anchor="middle" x="51" y="-198.2" font-family="Arial" font-size="11.00">LeafFC</text>
</g>
<!-- pam1&#45;&gt;leaffc1 -->
<g id="edge6" class="edge">
<title>pam1&#45;&gt;leaffc1</title>
<path fill="none" stroke="purple" stroke-width="1.5" d="M161.72,-341.84C150.24,-328.26 135.84,-311.22 123,-296 115.88,-287.56 113.86,-285.65 107,-277 94.08,-260.72 80.1,-241.98 69.33,-227.31"/>
<polygon fill="purple" stroke="purple" stroke-width="1.5" points="159.31,-344.41 168.44,-349.79 164.66,-339.89 159.31,-344.41"/>
<polygon fill="purple" stroke="purple" stroke-width="1.5" points="72.12,-225.2 63.4,-219.19 66.47,-229.33 72.12,-225.2"/>
<text text-anchor="middle" x="136" y="-288" font-family="Arial" font-size="10.00">Redis</text>
</g>
<!-- local_db1 -->
<g id="node7" class="node">
<title>local_db1</title>
<path fill="none" stroke="black" d="M209.5,-219C209.5,-221.21 193.14,-223 173,-223 152.86,-223 136.5,-221.21 136.5,-219 136.5,-219 136.5,-183 136.5,-183 136.5,-180.79 152.86,-179 173,-179 193.14,-179 209.5,-180.79 209.5,-183 209.5,-183 209.5,-219 209.5,-219"/>
<path fill="none" stroke="black" d="M209.5,-219C209.5,-216.79 193.14,-215 173,-215 152.86,-215 136.5,-216.79 136.5,-219"/>
<text text-anchor="middle" x="173" y="-204.2" font-family="Arial" font-size="11.00">Local</text>
<text text-anchor="middle" x="173" y="-192.2" font-family="Arial" font-size="11.00">DynamoDB</text>
</g>
<!-- pam1&#45;&gt;local_db1 -->
<g id="edge5" class="edge">
<title>pam1&#45;&gt;local_db1</title>
<path fill="none" stroke="darkgreen" d="M173.5,-339.99C169.39,-326.89 165.05,-310.81 163,-296 160.11,-275.11 162.64,-251.51 165.88,-233.18"/>
<polygon fill="darkgreen" stroke="darkgreen" points="170.27,-341.36 176.71,-349.78 176.92,-339.18 170.27,-341.36"/>
<polygon fill="darkgreen" stroke="darkgreen" points="169.32,-233.81 167.78,-223.33 162.45,-232.48 169.32,-233.81"/>
<text text-anchor="middle" x="176.5" y="-288" font-family="Arial" font-size="10.00">HTTP</text>
</g>
<!-- pixhawk1 -->
<g id="node8" class="node">
<title>pixhawk1</title>
<path fill="lightsalmon" stroke="black" d="M280,-60C280,-60 222,-60 222,-60 216,-60 210,-54 210,-48 210,-48 210,-36 210,-36 210,-30 216,-24 222,-24 222,-24 280,-24 280,-24 286,-24 292,-30 292,-36 292,-36 292,-48 292,-48 292,-54 286,-60 280,-60"/>
<text text-anchor="middle" x="251" y="-45.2" font-family="Arial" font-size="11.00">Pixhawk</text>
<text text-anchor="middle" x="251" y="-33.2" font-family="Arial" font-size="11.00">PX4 Autopilot</text>
</g>
<!-- pam1&#45;&gt;pixhawk1 -->
<g id="edge7" class="edge">
<title>pam1&#45;&gt;pixhawk1</title>
<path fill="none" stroke="red" stroke-width="1.5" d="M203.44,-341.33C215.85,-324.18 230.67,-300.52 238,-277 260.42,-205.05 257.2,-114.71 253.71,-70.27"/>
<polygon fill="red" stroke="red" stroke-width="1.5" points="200.4,-339.57 197.23,-349.67 206.01,-343.75 200.4,-339.57"/>
<polygon fill="red" stroke="red" stroke-width="1.5" points="257.19,-69.91 252.85,-60.24 250.22,-70.51 257.19,-69.91"/>
<text text-anchor="middle" x="282" y="-204" font-family="Arial" font-size="10.00">PyMAVLink</text>
<text text-anchor="middle" x="282" y="-193" font-family="Arial" font-size="10.00">MAVFTP</text>
</g>
<!-- leaffc1&#45;&gt;pixhawk1 -->
<g id="edge8" class="edge">
<title>leaffc1&#45;&gt;pixhawk1</title>
<path fill="none" stroke="red" stroke-width="1.5" d="M80.71,-176.68C118.48,-147.03 183.31,-96.14 221.14,-66.44"/>
<polygon fill="red" stroke="red" stroke-width="1.5" points="78.49,-173.97 72.78,-182.9 82.81,-179.48 78.49,-173.97"/>
<polygon fill="red" stroke="red" stroke-width="1.5" points="223.54,-69.01 229.24,-60.08 219.22,-63.5 223.54,-69.01"/>
<text text-anchor="middle" x="177" y="-117" font-family="Arial" font-size="10.00">MAVLink</text>
</g>
<!-- pam2 -->
<g id="node9" class="node">
<title>pam2</title>
<path fill="#fac2f3" stroke="black" d="M1305,-386C1305,-386 1275,-386 1275,-386 1269,-386 1263,-380 1263,-374 1263,-374 1263,-362 1263,-362 1263,-356 1269,-350 1275,-350 1275,-350 1305,-350 1305,-350 1311,-350 1317,-356 1317,-362 1317,-362 1317,-374 1317,-374 1317,-380 1311,-386 1305,-386"/>
<text text-anchor="middle" x="1290" y="-365.2" font-family="Arial" font-size="11.00">PAM</text>
</g>
<!-- pam2&#45;&gt;s3 -->
<g id="edge11" class="edge">
<title>pam2&#45;&gt;s3</title>
<path fill="none" stroke="orange" stroke-width="1.5" d="M1262.88,-364.26C1174.34,-354.95 895,-322.55 818,-277 798.13,-265.24 781.8,-244.66 770.9,-228.03"/>
<polygon fill="orange" stroke="orange" stroke-width="1.5" points="773.69,-225.89 765.41,-219.27 767.76,-229.61 773.69,-225.89"/>
<text text-anchor="middle" x="883" y="-288" font-family="Arial" font-size="10.00">IAM Role</text>
</g>
<!-- pam2&#45;&gt;webclient -->
<g id="edge9" class="edge">
<title>pam2&#45;&gt;webclient</title>
<path fill="none" stroke="blue" stroke-width="1.5" d="M1253.18,-356.2C1209.11,-342.21 1134.22,-315.05 1078,-277 993.41,-219.75 1005.14,-163.87 916,-114 873.76,-90.37 854.12,-108.9 810,-89 796.95,-83.11 783.81,-74.46 772.8,-66.24"/>
<polygon fill="blue" stroke="blue" stroke-width="1.5" points="1252.31,-359.59 1262.9,-359.22 1254.39,-352.91 1252.31,-359.59"/>
<polygon fill="blue" stroke="blue" stroke-width="1.5" points="774.89,-63.43 764.83,-60.09 770.61,-68.97 774.89,-63.43"/>
<text text-anchor="middle" x="1092" y="-198.5" font-family="Arial" font-size="10.00">MQTT</text>
</g>
<!-- pam2&#45;&gt;webclient_db -->
<g id="edge10" class="edge">
<title>pam2&#45;&gt;webclient_db</title>
<path fill="none" stroke="darkgreen" d="M1261.97,-343.37C1241.75,-325.83 1214.21,-300.9 1192,-277 1129.11,-209.32 1137.59,-168.52 1063,-114 1020.16,-82.68 961.85,-63.52 921.59,-53.12"/>
<polygon fill="darkgreen" stroke="darkgreen" points="1259.74,-346.07 1269.61,-349.95 1264.31,-340.77 1259.74,-346.07"/>
<polygon fill="darkgreen" stroke="darkgreen" points="922.31,-49.69 911.76,-50.66 920.61,-56.48 922.31,-49.69"/>
<text text-anchor="middle" x="1205.5" y="-198.5" font-family="Arial" font-size="10.00">HTTP</text>
</g>
<!-- leaffc2 -->
<g id="node10" class="node">
<title>leaffc2</title>
<path fill="none" stroke="black" d="M1290,-219C1290,-219 1260,-219 1260,-219 1254,-219 1248,-213 1248,-207 1248,-207 1248,-195 1248,-195 1248,-189 1254,-183 1260,-183 1260,-183 1290,-183 1290,-183 1296,-183 1302,-189 1302,-195 1302,-195 1302,-207 1302,-207 1302,-213 1296,-219 1290,-219"/>
<text text-anchor="middle" x="1275" y="-198.2" font-family="Arial" font-size="11.00">LeafFC</text>
</g>
<!-- pam2&#45;&gt;leaffc2 -->
<g id="edge13" class="edge">
<title>pam2&#45;&gt;leaffc2</title>
<path fill="none" stroke="purple" stroke-width="1.5" d="M1287.52,-339.74C1284.74,-309.13 1280.25,-259.73 1277.47,-229.16"/>
<polygon fill="purple" stroke="purple" stroke-width="1.5" points="1284.06,-340.32 1288.45,-349.96 1291.03,-339.69 1284.06,-340.32"/>
<polygon fill="purple" stroke="purple" stroke-width="1.5" points="1280.95,-228.83 1276.56,-219.19 1273.98,-229.47 1280.95,-228.83"/>
<text text-anchor="middle" x="1296" y="-288" font-family="Arial" font-size="10.00">Redis</text>
</g>
<!-- local_db2 -->
<g id="node11" class="node">
<title>local_db2</title>
<path fill="none" stroke="black" d="M1433.5,-219C1433.5,-221.21 1417.14,-223 1397,-223 1376.86,-223 1360.5,-221.21 1360.5,-219 1360.5,-219 1360.5,-183 1360.5,-183 1360.5,-180.79 1376.86,-179 1397,-179 1417.14,-179 1433.5,-180.79 1433.5,-183 1433.5,-183 1433.5,-219 1433.5,-219"/>
<path fill="none" stroke="black" d="M1433.5,-219C1433.5,-216.79 1417.14,-215 1397,-215 1376.86,-215 1360.5,-216.79 1360.5,-219"/>
<text text-anchor="middle" x="1397" y="-204.2" font-family="Arial" font-size="11.00">Local</text>
<text text-anchor="middle" x="1397" y="-192.2" font-family="Arial" font-size="11.00">DynamoDB</text>
</g>
<!-- pam2&#45;&gt;local_db2 -->
<g id="edge12" class="edge">
<title>pam2&#45;&gt;local_db2</title>
<path fill="none" stroke="darkgreen" d="M1306.58,-341.44C1325.78,-311.82 1357.38,-263.1 1377.68,-231.8"/>
<polygon fill="darkgreen" stroke="darkgreen" points="1303.55,-339.67 1301.05,-349.96 1309.43,-343.48 1303.55,-339.67"/>
<polygon fill="darkgreen" stroke="darkgreen" points="1380.83,-233.36 1383.34,-223.07 1374.96,-229.55 1380.83,-233.36"/>
<text text-anchor="middle" x="1353.5" y="-288" font-family="Arial" font-size="10.00">HTTP</text>
</g>
<!-- pixhawk2 -->
<g id="node12" class="node">
<title>pixhawk2</title>
<path fill="lightsalmon" stroke="black" d="M1504,-60C1504,-60 1446,-60 1446,-60 1440,-60 1434,-54 1434,-48 1434,-48 1434,-36 1434,-36 1434,-30 1440,-24 1446,-24 1446,-24 1504,-24 1504,-24 1510,-24 1516,-30 1516,-36 1516,-36 1516,-48 1516,-48 1516,-54 1510,-60 1504,-60"/>
<text text-anchor="middle" x="1475" y="-45.2" font-family="Arial" font-size="11.00">Pixhawk</text>
<text text-anchor="middle" x="1475" y="-33.2" font-family="Arial" font-size="11.00">PX4 Autopilot</text>
</g>
<!-- pam2&#45;&gt;pixhawk2 -->
<g id="edge14" class="edge">
<title>pam2&#45;&gt;pixhawk2</title>
<path fill="none" stroke="red" stroke-width="1.5" d="M1327.21,-359.15C1368.23,-348.33 1432.46,-324.52 1463,-277 1504.42,-212.55 1491.39,-116.29 1481.61,-69.9"/>
<polygon fill="red" stroke="red" stroke-width="1.5" points="1326.17,-355.8 1317.32,-361.63 1327.87,-362.59 1326.17,-355.8"/>
<polygon fill="red" stroke="red" stroke-width="1.5" points="1485,-69.01 1479.41,-60 1478.16,-70.52 1485,-69.01"/>
<text text-anchor="middle" x="1517" y="-204" font-family="Arial" font-size="10.00">PyMAVLink</text>
<text text-anchor="middle" x="1517" y="-193" font-family="Arial" font-size="10.00">MAVFTP</text>
</g>
<!-- leaffc2&#45;&gt;pixhawk2 -->
<g id="edge15" class="edge">
<title>leaffc2&#45;&gt;pixhawk2</title>
<path fill="none" stroke="red" stroke-width="1.5" d="M1304.71,-176.68C1342.48,-147.03 1407.31,-96.14 1445.14,-66.44"/>
<polygon fill="red" stroke="red" stroke-width="1.5" points="1302.49,-173.97 1296.78,-182.9 1306.81,-179.48 1302.49,-173.97"/>
<polygon fill="red" stroke="red" stroke-width="1.5" points="1447.54,-69.01 1453.24,-60.08 1443.22,-63.5 1447.54,-69.01"/>
<text text-anchor="middle" x="1400" y="-117" font-family="Arial" font-size="10.00">MAVLink</text>
</g>
</g>
</svg>
