<?xml version="1.0" encoding="UTF-8" standalone="no"?>
<!DOCTYPE svg PUBLIC "-//W3C//DTD SVG 1.1//EN"
 "http://www.w3.org/Graphics/SVG/1.1/DTD/svg11.dtd">
<!-- Generated by graphviz version 2.43.0 (0)
 -->
<!-- Title: MultiDroneSystem Pages: 1 -->
<svg width="1162pt" height="471pt"
 viewBox="0.00 0.00 1161.93 471.00" xmlns="http://www.w3.org/2000/svg" xmlns:xlink="http://www.w3.org/1999/xlink">
<g id="graph0" class="graph" transform="scale(1 1) rotate(0) translate(4 467)">
<title>MultiDroneSystem</title>
<polygon fill="white" stroke="transparent" points="-4,4 -4,-467 1157.93,-467 1157.93,4 -4,4"/>
<g id="clust1" class="cluster">
<title>cluster_aws</title>
<polygon fill="lightyellow" stroke="lightblue" points="445.93,-8 445.93,-277 679.93,-277 679.93,-8 445.93,-8"/>
<text text-anchor="middle" x="562.93" y="-263.4" font-family="Arial" font-size="12.00">AWS Cloud</text>
</g>
<g id="clust2" class="cluster">
<title>cluster_devhub</title>
<polygon fill="lightgreen" stroke="darkgreen" points="466.93,-175 466.93,-248 662.93,-248 662.93,-175 466.93,-175"/>
<text text-anchor="middle" x="564.93" y="-234.4" font-family="Arial" font-size="12.00">DevHub (Lambda)</text>
</g>
<g id="clust3" class="cluster">
<title>cluster_webclient</title>
<polygon fill="lightcyan" stroke="darkblue" points="453.93,-16 453.93,-89 671.93,-89 671.93,-16 453.93,-16"/>
<text text-anchor="middle" x="562.93" y="-75.4" font-family="Arial" font-size="12.00">droneleaf.io</text>
</g>
<g id="clust4" class="cluster">
<title>cluster_drone1</title>
<polygon fill="mistyrose" stroke="darkred" points="184.93,-163 184.93,-455 424.93,-455 424.93,-163 184.93,-163"/>
<text text-anchor="middle" x="304.93" y="-441.4" font-family="Arial" font-size="12.00">Drone 1</text>
</g>
<g id="clust5" class="cluster">
<title>cluster_companion1</title>
<polygon fill="lavender" stroke="purple" points="192.93,-171 192.93,-426 326.93,-426 326.93,-171 192.93,-171"/>
<text text-anchor="middle" x="259.93" y="-412.4" font-family="Arial" font-size="12.00">Companion Computer</text>
</g>
<g id="clust6" class="cluster">
<title>cluster_drone2</title>
<polygon fill="mistyrose" stroke="darkred" points="694.93,-163 694.93,-455 934.93,-455 934.93,-163 694.93,-163"/>
<text text-anchor="middle" x="814.93" y="-441.4" font-family="Arial" font-size="12.00">Drone 2</text>
</g>
<g id="clust7" class="cluster">
<title>cluster_companion2</title>
<polygon fill="lavender" stroke="purple" points="702.93,-171 702.93,-426 836.93,-426 836.93,-171 702.93,-171"/>
<text text-anchor="middle" x="769.93" y="-412.4" font-family="Arial" font-size="12.00">Companion Computer</text>
</g>
<!-- devhub -->
<g id="node1" class="node">
<title>devhub</title>
<path fill="none" stroke="black" d="M642.93,-219C642.93,-219 610.93,-219 610.93,-219 604.93,-219 598.93,-213 598.93,-207 598.93,-207 598.93,-195 598.93,-195 598.93,-189 604.93,-183 610.93,-183 610.93,-183 642.93,-183 642.93,-183 648.93,-183 654.93,-189 654.93,-195 654.93,-195 654.93,-207 654.93,-207 654.93,-213 648.93,-219 642.93,-219"/>
<text text-anchor="middle" x="626.93" y="-204.2" font-family="Arial" font-size="11.00">DevHub</text>
<text text-anchor="middle" x="626.93" y="-192.2" font-family="Arial" font-size="11.00">Lambda</text>
</g>
<!-- webclient_db -->
<g id="node4" class="node">
<title>webclient_db</title>
<path fill="none" stroke="black" d="M663.43,-56.73C663.43,-58.53 647.07,-60 626.93,-60 606.79,-60 590.43,-58.53 590.43,-56.73 590.43,-56.73 590.43,-27.27 590.43,-27.27 590.43,-25.47 606.79,-24 626.93,-24 647.07,-24 663.43,-25.47 663.43,-27.27 663.43,-27.27 663.43,-56.73 663.43,-56.73"/>
<path fill="none" stroke="black" d="M663.43,-56.73C663.43,-54.92 647.07,-53.45 626.93,-53.45 606.79,-53.45 590.43,-54.92 590.43,-56.73"/>
<text text-anchor="middle" x="626.93" y="-39.2" font-family="Arial" font-size="11.00">DynamoDB</text>
</g>
<!-- devhub&#45;&gt;webclient_db -->
<g id="edge1" class="edge">
<title>devhub&#45;&gt;webclient_db</title>
<path fill="none" stroke="black" d="M626.93,-172.77C626.93,-144.02 626.93,-98.98 626.93,-70.23"/>
<polygon fill="black" stroke="black" points="623.43,-172.9 626.93,-182.9 630.43,-172.9 623.43,-172.9"/>
<polygon fill="black" stroke="black" points="630.43,-70.08 626.93,-60.08 623.43,-70.08 630.43,-70.08"/>
<text text-anchor="middle" x="640.43" y="-117" font-family="Arial" font-size="10.00">HTTP</text>
</g>
<!-- s3 -->
<g id="node2" class="node">
<title>s3</title>
<path fill="none" stroke="black" d="M540.93,-215.73C540.93,-217.53 526.14,-219 507.93,-219 489.72,-219 474.93,-217.53 474.93,-215.73 474.93,-215.73 474.93,-186.27 474.93,-186.27 474.93,-184.47 489.72,-183 507.93,-183 526.14,-183 540.93,-184.47 540.93,-186.27 540.93,-186.27 540.93,-215.73 540.93,-215.73"/>
<path fill="none" stroke="black" d="M540.93,-215.73C540.93,-213.92 526.14,-212.45 507.93,-212.45 489.72,-212.45 474.93,-213.92 474.93,-215.73"/>
<text text-anchor="middle" x="507.93" y="-198.2" font-family="Arial" font-size="11.00">S3 Bucket</text>
</g>
<!-- webclient -->
<g id="node3" class="node">
<title>webclient</title>
<path fill="none" stroke="black" d="M519.93,-60C519.93,-60 473.93,-60 473.93,-60 467.93,-60 461.93,-54 461.93,-48 461.93,-48 461.93,-36 461.93,-36 461.93,-30 467.93,-24 473.93,-24 473.93,-24 519.93,-24 519.93,-24 525.93,-24 531.93,-30 531.93,-36 531.93,-36 531.93,-48 531.93,-48 531.93,-54 525.93,-60 519.93,-60"/>
<text text-anchor="middle" x="496.93" y="-39.2" font-family="Arial" font-size="11.00">Web Client</text>
</g>
<!-- pam1 -->
<g id="node5" class="node">
<title>pam1</title>
<path fill="#fac2f3" stroke="black" d="M273.93,-397C273.93,-397 243.93,-397 243.93,-397 237.93,-397 231.93,-391 231.93,-385 231.93,-385 231.93,-373 231.93,-373 231.93,-367 237.93,-361 243.93,-361 243.93,-361 273.93,-361 273.93,-361 279.93,-361 285.93,-367 285.93,-373 285.93,-373 285.93,-385 285.93,-385 285.93,-391 279.93,-397 273.93,-397"/>
<text text-anchor="middle" x="258.93" y="-376.2" font-family="Arial" font-size="11.00">PAM</text>
</g>
<!-- pam1&#45;&gt;s3 -->
<g id="edge4" class="edge">
<title>pam1&#45;&gt;s3</title>
<path fill="none" stroke="orange" stroke-width="1.5" d="M286.06,-371.33C321.45,-361.63 384.02,-340.99 427.93,-307 456.09,-285.2 479.53,-251.19 493.62,-227.81"/>
<polygon fill="orange" stroke="orange" stroke-width="1.5" points="496.68,-229.52 498.72,-219.12 490.64,-225.97 496.68,-229.52"/>
<text text-anchor="middle" x="469.93" y="-293.5" font-family="Arial" font-size="10.00">IAM Role</text>
</g>
<!-- pam1&#45;&gt;webclient -->
<g id="edge2" class="edge">
<title>pam1&#45;&gt;webclient</title>
<path fill="none" stroke="blue" stroke-width="1.5" d="M221.46,-375.39C165.09,-369.17 60.51,-348.12 17.93,-277 -8.1,-233.53 -3.01,-209.14 17.93,-163 31.6,-132.88 44.04,-128.16 73.93,-114 201.28,-53.65 371.52,-43.73 451.63,-42.65"/>
<polygon fill="blue" stroke="blue" stroke-width="1.5" points="221.44,-378.91 231.73,-376.42 222.13,-371.94 221.44,-378.91"/>
<polygon fill="blue" stroke="blue" stroke-width="1.5" points="451.9,-46.15 461.86,-42.56 451.83,-39.15 451.9,-46.15"/>
<text text-anchor="middle" x="31.93" y="-198.5" font-family="Arial" font-size="10.00">MQTT</text>
</g>
<!-- pam1&#45;&gt;webclient_db -->
<g id="edge3" class="edge">
<title>pam1&#45;&gt;webclient_db</title>
<path fill="none" stroke="darkgreen" d="M223.33,-357.19C197.04,-339.58 163.26,-311.68 147.93,-277 127.44,-230.66 115.42,-201.86 147.93,-163 267.6,-19.98 388.67,-160.41 560.93,-89 574.4,-83.42 587.86,-74.74 599.07,-66.42"/>
<polygon fill="darkgreen" stroke="darkgreen" points="221.63,-360.26 231.93,-362.76 225.44,-354.38 221.63,-360.26"/>
<polygon fill="darkgreen" stroke="darkgreen" points="601.39,-69.05 607.18,-60.18 597.12,-63.5 601.39,-69.05"/>
<text text-anchor="middle" x="161.43" y="-198.5" font-family="Arial" font-size="10.00">HTTP</text>
</g>
<!-- local_db1 -->
<g id="node6" class="node">
<title>local_db1</title>
<path fill="none" stroke="black" d="M276.43,-219C276.43,-221.21 260.07,-223 239.93,-223 219.79,-223 203.43,-221.21 203.43,-219 203.43,-219 203.43,-183 203.43,-183 203.43,-180.79 219.79,-179 239.93,-179 260.07,-179 276.43,-180.79 276.43,-183 276.43,-183 276.43,-219 276.43,-219"/>
<path fill="none" stroke="black" d="M276.43,-219C276.43,-216.79 260.07,-215 239.93,-215 219.79,-215 203.43,-216.79 203.43,-219"/>
<text text-anchor="middle" x="239.93" y="-204.2" font-family="Arial" font-size="11.00">Local</text>
<text text-anchor="middle" x="239.93" y="-192.2" font-family="Arial" font-size="11.00">DynamoDB</text>
</g>
<!-- pam1&#45;&gt;local_db1 -->
<g id="edge5" class="edge">
<title>pam1&#45;&gt;local_db1</title>
<path fill="none" stroke="darkgreen" d="M251.05,-351.14C247.56,-337.96 243.82,-321.78 241.93,-307 238.78,-282.36 238.42,-254.2 238.77,-233.26"/>
<polygon fill="darkgreen" stroke="darkgreen" points="247.73,-352.26 253.76,-360.98 254.48,-350.41 247.73,-352.26"/>
<polygon fill="darkgreen" stroke="darkgreen" points="242.27,-233.09 239,-223.01 235.27,-232.93 242.27,-233.09"/>
<text text-anchor="middle" x="255.43" y="-293.5" font-family="Arial" font-size="10.00">HTTP</text>
</g>
<!-- pixhawk1 -->
<g id="node7" class="node">
<title>pixhawk1</title>
<path fill="lightsalmon" stroke="black" d="M404.93,-219C404.93,-219 346.93,-219 346.93,-219 340.93,-219 334.93,-213 334.93,-207 334.93,-207 334.93,-195 334.93,-195 334.93,-189 340.93,-183 346.93,-183 346.93,-183 404.93,-183 404.93,-183 410.93,-183 416.93,-189 416.93,-195 416.93,-195 416.93,-207 416.93,-207 416.93,-213 410.93,-219 404.93,-219"/>
<text text-anchor="middle" x="375.93" y="-204.2" font-family="Arial" font-size="11.00">Pixhawk</text>
<text text-anchor="middle" x="375.93" y="-192.2" font-family="Arial" font-size="11.00">PX4 Autopilot</text>
</g>
<!-- pam1&#45;&gt;pixhawk1 -->
<g id="edge6" class="edge">
<title>pam1&#45;&gt;pixhawk1</title>
<path fill="none" stroke="red" stroke-width="1.5" d="M277.81,-352.7C292.67,-332.5 313.69,-303.32 330.93,-277 341.37,-261.06 352.39,-242.72 360.91,-228.17"/>
<polygon fill="red" stroke="red" stroke-width="1.5" points="274.97,-350.65 271.84,-360.77 280.6,-354.81 274.97,-350.65"/>
<polygon fill="red" stroke="red" stroke-width="1.5" points="364.12,-229.62 366.12,-219.21 358.07,-226.1 364.12,-229.62"/>
<text text-anchor="middle" x="350.93" y="-299" font-family="Arial" font-size="10.00">PyMAVLink</text>
<text text-anchor="middle" x="350.93" y="-288" font-family="Arial" font-size="10.00">MAVFTP</text>
</g>
<!-- pam2 -->
<g id="node8" class="node">
<title>pam2</title>
<path fill="#fac2f3" stroke="black" d="M816.93,-397C816.93,-397 786.93,-397 786.93,-397 780.93,-397 774.93,-391 774.93,-385 774.93,-385 774.93,-373 774.93,-373 774.93,-367 780.93,-361 786.93,-361 786.93,-361 816.93,-361 816.93,-361 822.93,-361 828.93,-367 828.93,-373 828.93,-373 828.93,-385 828.93,-385 828.93,-391 822.93,-397 816.93,-397"/>
<text text-anchor="middle" x="801.93" y="-376.2" font-family="Arial" font-size="11.00">PAM</text>
</g>
<!-- pam2&#45;&gt;s3 -->
<g id="edge9" class="edge">
<title>pam2&#45;&gt;s3</title>
<path fill="none" stroke="orange" stroke-width="1.5" d="M774.76,-370.71C729.1,-357.53 635.56,-326.41 569.93,-277 551.82,-263.37 535.67,-243.43 524.39,-227.53"/>
<polygon fill="orange" stroke="orange" stroke-width="1.5" points="527.2,-225.44 518.65,-219.18 521.43,-229.41 527.2,-225.44"/>
<text text-anchor="middle" x="636.93" y="-293.5" font-family="Arial" font-size="10.00">IAM Role</text>
</g>
<!-- pam2&#45;&gt;webclient -->
<g id="edge7" class="edge">
<title>pam2&#45;&gt;webclient</title>
<path fill="none" stroke="blue" stroke-width="1.5" d="M839.05,-371.56C874.19,-363.27 925,-345.13 948.93,-307 982.95,-252.79 989.71,-212.32 948.93,-163 837.34,-28.05 723.06,-157.58 561.93,-89 548.65,-83.35 535.39,-74.66 524.35,-66.34"/>
<polygon fill="blue" stroke="blue" stroke-width="1.5" points="838.16,-368.17 829.15,-373.73 839.66,-375.01 838.16,-368.17"/>
<polygon fill="blue" stroke="blue" stroke-width="1.5" points="526.41,-63.51 516.37,-60.12 522.1,-69.03 526.41,-63.51"/>
<text text-anchor="middle" x="990.93" y="-198.5" font-family="Arial" font-size="10.00">MQTT</text>
</g>
<!-- pam2&#45;&gt;webclient_db -->
<g id="edge8" class="edge">
<title>pam2&#45;&gt;webclient_db</title>
<path fill="none" stroke="darkgreen" d="M839.1,-374.33C909.17,-366.56 1056.54,-345.89 1086.93,-307 1139.75,-239.41 1142.77,-179.12 1086.93,-114 1033.99,-52.26 779.89,-43.72 673.71,-42.88"/>
<polygon fill="darkgreen" stroke="darkgreen" points="838.51,-370.87 828.94,-375.42 839.26,-377.83 838.51,-370.87"/>
<polygon fill="darkgreen" stroke="darkgreen" points="673.63,-39.38 663.61,-42.82 673.59,-46.38 673.63,-39.38"/>
<text text-anchor="middle" x="1140.43" y="-198.5" font-family="Arial" font-size="10.00">HTTP</text>
</g>
<!-- local_db2 -->
<g id="node9" class="node">
<title>local_db2</title>
<path fill="none" stroke="black" d="M786.43,-219C786.43,-221.21 770.07,-223 749.93,-223 729.79,-223 713.43,-221.21 713.43,-219 713.43,-219 713.43,-183 713.43,-183 713.43,-180.79 729.79,-179 749.93,-179 770.07,-179 786.43,-180.79 786.43,-183 786.43,-183 786.43,-219 786.43,-219"/>
<path fill="none" stroke="black" d="M786.43,-219C786.43,-216.79 770.07,-215 749.93,-215 729.79,-215 713.43,-216.79 713.43,-219"/>
<text text-anchor="middle" x="749.93" y="-204.2" font-family="Arial" font-size="11.00">Local</text>
<text text-anchor="middle" x="749.93" y="-192.2" font-family="Arial" font-size="11.00">DynamoDB</text>
</g>
<!-- pam2&#45;&gt;local_db2 -->
<g id="edge10" class="edge">
<title>pam2&#45;&gt;local_db2</title>
<path fill="none" stroke="darkgreen" d="M780.89,-352.65C771.48,-339.79 761.31,-323.45 755.93,-307 748.11,-283.1 746.97,-254.52 747.58,-233.22"/>
<polygon fill="darkgreen" stroke="darkgreen" points="778.37,-355.12 787.22,-360.95 783.94,-350.87 778.37,-355.12"/>
<polygon fill="darkgreen" stroke="darkgreen" points="751.09,-233.25 748.02,-223.1 744.09,-232.94 751.09,-233.25"/>
<text text-anchor="middle" x="769.43" y="-293.5" font-family="Arial" font-size="10.00">HTTP</text>
</g>
<!-- pixhawk2 -->
<g id="node10" class="node">
<title>pixhawk2</title>
<path fill="lightsalmon" stroke="black" d="M914.93,-219C914.93,-219 856.93,-219 856.93,-219 850.93,-219 844.93,-213 844.93,-207 844.93,-207 844.93,-195 844.93,-195 844.93,-189 850.93,-183 856.93,-183 856.93,-183 914.93,-183 914.93,-183 920.93,-183 926.93,-189 926.93,-195 926.93,-195 926.93,-207 926.93,-207 926.93,-213 920.93,-219 914.93,-219"/>
<text text-anchor="middle" x="885.93" y="-204.2" font-family="Arial" font-size="11.00">Pixhawk</text>
<text text-anchor="middle" x="885.93" y="-192.2" font-family="Arial" font-size="11.00">PX4 Autopilot</text>
</g>
<!-- pam2&#45;&gt;pixhawk2 -->
<g id="edge11" class="edge">
<title>pam2&#45;&gt;pixhawk2</title>
<path fill="none" stroke="red" stroke-width="1.5" d="M814.47,-351.72C830.37,-318.41 857.61,-261.33 873.47,-228.1"/>
<polygon fill="red" stroke="red" stroke-width="1.5" points="811.29,-350.27 810.14,-360.8 817.6,-353.29 811.29,-350.27"/>
<polygon fill="red" stroke="red" stroke-width="1.5" points="876.66,-229.54 877.81,-219.01 870.35,-226.52 876.66,-229.54"/>
<text text-anchor="middle" x="869.93" y="-299" font-family="Arial" font-size="10.00">PyMAVLink</text>
<text text-anchor="middle" x="869.93" y="-288" font-family="Arial" font-size="10.00">MAVFTP</text>
</g>
</g>
</svg>
